{"glyphs":{"0":{"ha":648,"x_min":56,"x_max":621,"o":"m 347 857 q 475 821 423 857 q 560 726 528 785 q 606 591 592 667 q 621 435 621 515 q 614 336 621 389 q 595 229 608 282 q 559 125 581 175 q 504 36 536 75 q 427 -26 471 -3 q 326 -49 383 -49 q 233 -31 273 -49 q 162 19 192 -12 q 111 93 132 51 q 79 184 91 136 q 61 284 66 233 q 56 386 56 336 q 62 494 56 439 q 83 602 68 550 q 120 701 98 654 q 176 782 143 747 q 251 837 208 817 q 347 857 293 857 m 329 812 q 249 796 283 812 q 188 750 214 779 q 144 683 162 722 q 116 600 127 644 q 100 509 105 556 q 96 416 96 462 q 100 335 96 380 q 115 243 104 290 q 143 153 125 197 q 189 74 161 109 q 255 18 217 39 q 345 -3 294 -3 q 426 15 391 -3 q 488 64 462 33 q 531 135 513 94 q 558 221 548 176 q 573 314 569 267 q 578 407 578 362 q 573 487 578 443 q 557 575 568 530 q 527 663 545 621 q 480 739 508 706 q 415 792 453 772 q 329 812 378 812 z "},"1":{"ha":332,"x_min":14,"x_max":249,"o":"m 187 -28 q 184 13 185 -12 q 182 66 183 37 q 181 126 182 95 q 181 188 181 158 q 180 244 180 218 q 180 290 180 271 q 183 474 180 395 q 190 611 186 553 q 196 707 193 669 q 199 768 199 745 q 197 780 199 774 q 191 785 196 785 q 161 770 180 785 q 119 733 142 755 q 72 685 96 711 q 25 633 47 658 l 14 646 q 74 717 42 680 q 135 786 106 754 q 189 838 165 817 q 227 859 213 859 q 242 856 235 859 q 249 847 249 852 q 249 836 249 843 q 248 817 249 828 q 241 734 244 770 q 235 663 238 698 q 231 592 233 629 q 228 511 229 556 q 226 406 227 465 q 225 267 225 347 q 226 220 225 247 q 229 163 227 193 q 233 103 231 134 q 236 47 235 73 q 239 2 238 21 q 240 -25 240 -18 q 236 -32 240 -28 q 226 -39 232 -36 q 213 -44 220 -42 q 200 -46 206 -46 q 191 -42 194 -46 q 187 -28 189 -37 z "},"2":{"ha":681,"x_min":46,"x_max":647,"o":"m 534 39 q 521 11 528 26 q 505 -17 514 -4 q 480 -40 495 -31 q 444 -49 466 -49 q 401 -42 421 -49 q 363 -24 382 -35 q 328 -2 345 -14 q 292 20 310 9 q 242 -8 266 1 q 204 -17 219 -17 q 163 -7 178 -17 q 147 20 147 3 q 154 37 147 30 q 171 50 161 45 q 195 57 182 55 q 220 60 208 60 q 256 55 237 60 q 294 45 275 51 q 360 103 326 68 q 428 183 395 138 q 492 279 462 227 q 546 388 522 331 q 583 504 569 444 q 596 623 596 563 q 583 703 596 667 q 546 762 570 738 q 490 800 522 787 q 419 812 457 812 q 295 793 357 812 q 183 739 233 774 q 102 653 134 703 q 68 541 70 603 q 83 497 68 512 q 123 482 98 482 q 153 488 142 482 q 170 497 163 494 l 174 496 q 168 481 172 490 q 156 461 163 471 q 139 445 149 452 q 114 437 128 437 q 81 447 94 437 q 60 470 68 456 q 49 503 52 485 q 46 539 46 522 q 63 626 46 585 q 110 703 81 667 q 177 766 139 738 q 257 815 215 795 q 342 846 299 836 q 424 857 385 857 q 517 843 475 857 q 587 801 558 829 q 632 732 616 773 q 647 636 647 690 q 632 517 647 576 q 592 400 617 457 q 533 289 566 342 q 463 190 499 236 q 388 104 426 143 q 315 37 350 65 q 385 13 350 25 q 453 0 419 0 q 485 4 473 0 q 505 13 497 7 q 518 26 513 19 q 529 41 524 34 l 534 39 m 205 12 q 235 16 217 12 q 271 29 253 20 q 215 41 246 41 q 184 26 184 39 q 190 16 184 19 q 205 12 196 12 z "},"3":{"ha":647,"x_min":28,"x_max":614,"o":"m 114 68 q 135 43 122 57 q 168 17 148 29 q 215 -4 188 5 q 279 -12 243 -12 q 325 -5 304 -12 q 360 15 345 2 q 384 44 375 27 q 392 82 392 62 q 378 140 392 113 q 340 184 363 167 q 290 164 315 171 q 239 157 264 157 q 215 159 227 157 q 194 166 203 161 q 179 178 185 171 q 174 196 174 186 q 181 214 174 207 q 201 226 189 222 q 228 233 214 231 q 257 235 243 235 q 304 228 281 235 q 350 210 328 221 q 430 274 392 233 q 497 369 468 315 q 543 485 526 422 q 559 615 559 548 q 548 684 559 649 q 514 746 537 718 q 456 792 491 774 q 372 810 420 810 q 255 791 313 810 q 152 739 197 772 q 78 660 106 706 q 50 558 50 613 q 55 519 50 536 q 66 489 60 503 q 81 465 73 475 q 96 446 89 454 l 89 439 q 68 461 79 447 q 48 491 58 475 q 34 527 39 508 q 28 566 28 546 q 46 651 28 611 q 93 723 64 690 q 160 780 122 755 q 237 822 197 805 q 314 848 276 840 q 382 857 352 857 q 488 839 444 857 q 560 788 532 821 q 601 713 588 756 q 614 621 614 670 q 593 503 614 564 q 539 385 573 442 q 460 280 505 328 q 367 200 415 231 q 418 146 398 178 q 437 77 437 114 q 428 27 437 50 q 401 -13 418 4 q 358 -40 383 -31 q 301 -50 333 -50 q 229 -38 260 -50 q 173 -7 197 -25 q 133 29 149 10 q 107 61 117 48 l 114 68 m 253 183 q 288 186 271 183 q 322 197 304 190 q 253 218 290 218 q 224 214 237 218 q 211 201 211 210 q 220 188 211 193 q 253 183 230 183 z "},"4":{"ha":593,"x_min":32,"x_max":553,"o":"m 524 184 q 503 185 512 185 q 484 186 493 186 q 465 188 475 187 q 443 189 455 189 l 443 -11 q 437 -27 443 -20 q 425 -40 432 -35 q 410 -47 417 -45 q 397 -50 402 -50 q 389 -43 390 -50 q 387 -28 387 -36 q 390 82 389 28 q 392 191 391 137 l 361 191 q 324 190 347 191 q 274 188 301 189 q 217 185 246 186 q 160 182 187 184 q 109 180 132 181 q 72 178 86 178 q 59 178 66 177 q 46 181 52 178 q 36 190 40 184 q 32 205 32 195 q 46 239 32 213 q 85 305 61 266 q 141 394 109 345 q 207 495 172 443 q 275 601 241 548 q 340 701 310 654 q 393 785 370 747 q 428 846 416 823 q 428 850 428 848 q 429 856 428 853 q 444 867 435 868 q 460 858 453 865 q 470 840 467 850 q 467 828 473 831 q 447 528 452 678 q 443 229 443 378 q 462 229 453 229 q 480 228 471 229 q 502 228 490 228 q 530 227 514 227 q 550 225 547 231 q 549 211 553 220 q 537 193 545 201 q 524 184 530 184 m 392 229 q 399 515 394 376 q 419 787 404 654 q 362 696 396 749 q 291 586 328 644 q 216 469 254 528 q 149 360 179 410 q 101 274 119 311 q 82 222 82 237 q 98 218 82 219 q 138 218 113 218 q 194 221 163 219 q 255 224 224 222 q 313 227 286 226 q 358 229 340 229 l 392 229 z "},"5":{"ha":407,"x_min":52,"x_max":400,"o":"m 172 -50 q 118 -44 140 -50 q 80 -31 95 -39 q 58 -14 65 -22 q 52 0 52 -5 q 55 12 52 5 q 62 24 58 18 q 71 35 66 31 q 78 39 75 39 q 84 32 84 39 q 87 20 83 26 q 97 10 90 16 q 117 -1 104 4 q 147 -9 129 -5 q 191 -12 165 -12 q 253 -1 227 -12 q 296 27 279 9 q 322 67 313 45 q 330 113 330 90 q 318 167 330 142 q 285 209 305 191 q 238 236 264 227 q 183 245 212 245 q 150 244 165 245 q 123 239 135 242 q 107 195 117 212 q 81 179 98 179 q 64 188 68 179 q 60 201 60 196 q 72 233 60 215 q 107 264 83 250 q 109 302 109 281 q 110 342 110 322 q 110 378 110 361 q 110 407 110 395 q 108 503 110 455 q 102 596 106 551 q 94 680 98 641 q 85 750 90 720 q 75 801 80 781 q 66 828 71 821 q 61 839 61 833 q 66 845 61 844 q 74 850 71 846 q 93 856 78 856 q 128 853 107 857 q 174 845 149 850 q 224 834 199 840 q 273 826 249 829 q 315 822 297 822 q 364 831 345 822 q 392 865 383 840 l 400 864 q 391 828 397 845 q 375 799 385 811 q 350 779 365 786 q 317 771 336 771 q 265 777 288 771 q 220 790 242 783 q 173 803 198 797 q 115 808 149 808 q 124 699 121 746 q 130 617 127 652 q 132 555 132 581 q 133 507 133 528 q 134 467 134 486 q 134 429 134 449 q 133 350 134 391 q 127 273 132 309 q 161 283 142 280 q 200 286 179 286 q 261 277 231 286 q 313 248 290 267 q 349 201 336 229 q 363 134 363 172 q 349 58 363 92 q 309 0 334 24 q 249 -37 284 -24 q 172 -50 214 -50 m 93 208 q 104 232 100 208 q 87 214 87 224 q 93 208 87 208 z "},"6":{"ha":653,"x_min":46,"x_max":694,"o":"m 684 745 q 654 776 669 761 q 618 803 639 791 q 570 821 598 814 q 503 828 542 828 q 365 800 425 828 q 259 725 304 772 q 181 617 213 677 q 129 491 149 556 q 100 360 109 425 q 92 240 92 295 q 94 197 92 219 q 100 153 96 174 q 119 203 106 179 q 153 245 133 227 q 201 273 174 262 q 262 283 228 283 q 318 273 291 283 q 367 243 346 262 q 401 197 388 224 q 414 138 414 170 q 400 64 414 98 q 364 6 387 31 q 311 -33 341 -19 q 249 -47 281 -47 q 164 -27 202 -47 q 100 29 127 -7 q 60 115 74 65 q 46 224 46 165 q 61 360 46 287 q 103 505 75 433 q 173 645 132 578 q 267 764 214 713 q 384 847 319 816 q 524 878 448 878 q 590 865 561 878 q 640 834 618 853 q 675 793 661 815 q 694 750 688 770 l 684 745 m 119 89 q 170 18 137 46 q 256 -9 203 -9 q 300 -4 279 -9 q 337 14 321 1 q 362 45 353 26 q 371 94 371 65 q 360 151 371 124 q 332 197 350 177 q 289 229 313 217 q 236 240 264 240 q 182 229 204 240 q 146 198 160 217 q 126 155 132 179 q 119 104 119 130 l 119 89 z "},"7":{"ha":604,"x_min":32,"x_max":688,"o":"m 41 711 q 35 729 37 720 q 32 750 32 739 q 38 786 32 768 q 58 818 45 804 q 91 842 71 833 q 138 851 111 851 q 235 843 189 851 q 328 826 281 836 q 423 808 374 816 q 530 800 472 800 q 601 855 568 836 q 660 875 634 875 q 680 868 671 875 q 688 847 688 861 q 672 814 688 829 q 631 789 656 800 q 575 773 606 779 q 514 764 545 766 q 442 664 478 722 q 372 538 406 606 q 310 397 339 471 q 259 250 281 323 q 225 107 237 176 q 211 -18 212 39 l 211 -21 q 206 -31 211 -26 q 195 -39 201 -36 q 181 -45 189 -43 q 167 -47 173 -47 q 153 -37 153 -47 q 179 121 161 42 q 223 275 197 200 q 282 420 250 350 q 350 553 314 491 q 422 668 385 615 q 496 762 460 722 l 478 762 q 383 770 431 762 q 289 789 336 779 q 195 807 241 799 q 103 815 149 815 q 77 809 88 815 q 58 794 66 804 q 46 774 50 785 q 43 750 43 762 q 44 734 43 742 q 50 718 46 726 l 41 711 m 639 844 q 595 833 618 844 q 549 800 572 821 q 586 803 568 801 q 620 808 605 804 q 643 819 634 812 q 652 836 652 826 q 647 842 652 840 q 639 844 643 844 z "},"8":{"ha":639,"x_min":58,"x_max":636,"o":"m 363 857 q 435 845 404 857 q 486 818 465 833 q 509 809 494 815 q 540 793 524 804 q 574 768 557 783 q 605 731 591 752 q 627 682 618 709 q 636 619 636 654 q 612 506 636 559 q 550 407 588 452 q 463 322 511 361 q 367 253 415 283 q 400 217 385 235 q 427 180 416 199 q 445 140 439 161 q 452 96 452 119 q 441 44 452 68 q 411 0 430 19 q 363 -30 391 -19 q 302 -41 336 -41 q 244 -33 271 -41 q 198 -8 218 -24 q 168 29 178 7 q 157 77 157 51 q 168 130 157 107 q 199 172 180 153 q 246 207 219 191 q 302 241 273 224 q 220 305 263 273 q 141 375 177 338 q 82 459 105 413 q 58 562 58 505 q 83 677 58 623 q 149 771 107 730 q 245 834 190 811 q 363 857 300 857 m 500 743 q 481 763 494 751 q 451 788 469 776 q 407 808 432 800 q 351 817 382 817 q 247 801 294 817 q 166 755 200 785 q 113 682 132 726 q 94 583 94 639 q 119 487 94 530 q 182 407 144 444 q 264 337 220 370 q 349 269 309 304 q 437 332 395 298 q 513 409 480 367 q 565 503 545 452 q 585 618 585 555 q 572 694 585 662 q 538 749 559 727 q 530 740 535 744 q 520 734 526 735 q 509 734 515 732 q 500 743 504 736 m 418 78 q 410 119 418 100 q 390 157 403 139 q 360 193 378 176 q 322 227 342 210 q 272 196 294 210 q 234 166 250 182 q 209 132 218 150 q 200 89 200 113 q 209 50 200 67 q 233 20 218 32 q 267 1 248 7 q 306 -5 286 -5 q 348 0 328 -5 q 384 15 368 5 q 409 41 399 25 q 418 78 418 56 z "},"9":{"ha":632,"x_min":64,"x_max":590,"o":"m 425 -33 q 425 -3 425 -25 q 426 52 425 20 q 428 125 427 85 q 432 210 429 165 q 439 301 435 254 q 449 392 443 347 q 357 342 409 363 q 241 321 304 321 q 156 337 190 321 q 101 380 121 354 q 72 439 81 406 q 64 504 64 471 q 77 589 64 547 q 115 671 91 632 q 171 745 138 711 q 241 804 203 779 q 320 843 279 829 q 403 857 361 857 q 473 846 444 857 q 523 817 503 836 q 554 773 543 798 q 572 718 566 747 q 561 677 571 690 q 542 665 550 665 q 532 672 533 665 q 521 738 532 711 q 490 781 510 764 q 442 805 471 798 q 379 812 414 812 q 257 785 309 812 q 169 714 204 757 q 116 621 134 671 q 98 525 98 570 q 112 455 98 485 q 150 407 126 426 q 205 379 174 388 q 272 370 237 370 q 374 383 330 370 q 453 418 419 396 q 470 505 460 464 q 492 576 479 545 q 521 624 505 606 q 557 642 537 642 q 580 630 570 642 q 590 599 590 618 q 585 565 590 583 q 571 528 580 547 q 550 491 562 509 q 525 458 538 473 q 510 443 519 451 q 492 425 501 435 q 485 341 488 385 q 481 254 483 298 q 479 166 479 210 q 478 86 478 123 q 478 17 478 48 q 478 -35 478 -14 q 474 -42 478 -39 q 464 -47 470 -45 q 451 -52 458 -50 q 437 -53 444 -53 q 427 -50 430 -53 q 425 -33 423 -46 m 543 604 q 526 593 534 604 q 513 562 519 582 q 503 513 507 541 q 494 453 498 486 q 538 519 524 484 q 553 586 553 555 q 551 598 553 591 q 543 604 549 604 z "},"A":{"ha":1069,"x_min":0,"x_max":1055,"o":"m 8 199 q 20 140 12 170 q 46 84 29 109 q 91 44 64 60 q 157 28 117 28 q 233 42 196 28 q 306 83 271 57 q 376 146 342 110 q 441 227 410 182 q 367 223 404 225 q 290 220 329 222 q 272 217 282 220 q 260 215 262 215 q 253 224 253 215 q 255 233 253 228 q 262 244 258 239 q 274 252 267 249 q 290 256 281 256 q 356 257 309 256 q 465 262 402 259 q 557 414 513 333 q 639 576 600 496 q 712 731 677 656 q 777 862 747 805 q 831 952 806 918 q 878 986 857 986 q 898 978 890 986 q 910 955 906 969 q 915 923 913 941 q 916 886 916 905 q 909 730 916 806 q 894 579 903 654 q 877 429 886 504 q 864 277 869 354 q 901 278 883 278 q 935 278 918 278 l 964 278 q 991 277 979 278 q 1003 269 1003 276 q 995 252 1003 261 q 970 243 987 243 q 915 241 941 241 q 861 241 888 241 q 860 190 860 216 q 860 139 860 165 q 863 96 860 117 q 873 57 865 74 q 896 28 882 39 q 935 17 911 17 q 968 25 951 17 q 1000 48 985 34 q 1027 79 1015 62 q 1047 113 1039 96 l 1055 109 q 1035 66 1047 91 q 1007 20 1023 42 q 969 -19 991 -3 q 918 -35 947 -35 q 845 5 867 -35 q 823 125 823 45 q 824 182 823 153 q 827 240 824 211 q 648 235 735 238 q 471 228 561 232 q 395 127 434 174 q 316 46 356 81 q 234 -7 275 12 q 150 -26 192 -26 q 96 -15 119 -26 q 58 15 74 -4 q 32 57 43 33 q 16 105 22 81 q 6 154 9 130 q 0 197 3 178 l 8 199 m 496 264 q 577 267 535 265 q 662 270 619 269 q 747 274 705 272 q 828 277 789 275 q 839 430 832 351 q 851 586 845 508 q 861 740 857 664 q 865 886 865 816 q 865 900 865 891 q 864 917 865 909 q 862 931 863 925 q 859 937 861 937 q 831 907 849 937 q 788 826 813 877 q 731 707 763 774 q 663 565 700 640 q 583 412 625 490 q 496 264 541 334 z "},"B":{"ha":1019,"x_min":0,"x_max":997,"o":"m 300 72 q 320 58 311 64 q 340 46 330 52 q 337 110 338 79 q 335 172 336 141 q 290 181 307 174 q 272 201 272 188 q 289 224 272 216 q 334 233 305 231 l 334 314 q 335 471 334 395 q 340 622 336 547 q 349 772 343 696 q 366 926 355 847 q 232 864 296 901 q 121 780 169 827 q 44 676 73 733 q 16 553 16 618 q 20 520 16 538 q 35 482 25 501 q 58 445 44 463 q 92 414 73 427 l 83 404 q 47 438 62 418 q 21 478 31 457 q 5 519 10 498 q 0 558 0 540 q 31 688 0 627 q 114 801 62 749 q 233 894 166 852 q 370 965 299 935 q 372 981 371 972 q 375 997 374 989 q 378 1015 376 1006 q 379 1026 379 1025 q 379 1040 379 1033 q 385 1047 378 1047 q 393 1044 389 1047 q 402 1038 398 1042 q 409 1028 406 1034 q 412 1019 412 1023 q 410 1000 411 1009 q 407 981 408 990 q 537 1018 474 1004 q 652 1031 600 1031 q 784 1014 722 1031 q 895 961 847 997 q 969 867 942 924 q 997 729 997 810 q 979 593 997 657 q 928 474 960 530 q 850 373 895 419 q 753 290 806 326 q 642 228 701 254 q 524 187 583 202 q 549 152 541 172 q 557 109 557 132 q 550 70 557 89 q 529 34 543 50 q 494 8 515 18 q 444 -1 473 -1 q 412 1 428 -1 q 383 8 397 4 q 385 -16 385 -4 q 387 -40 386 -28 q 388 -50 387 -43 q 389 -58 389 -56 q 384 -69 389 -64 q 375 -74 378 -74 q 349 -40 353 -74 q 345 -6 347 -22 q 342 28 343 11 q 314 47 326 37 q 293 64 302 56 l 300 72 m 374 427 q 373 339 374 388 q 374 236 372 290 l 386 236 q 453 228 422 236 q 505 204 484 219 q 619 237 564 215 q 724 291 675 259 q 814 366 773 323 q 885 462 855 409 q 931 578 914 515 q 947 714 947 641 q 926 824 947 774 q 867 908 905 873 q 775 963 829 943 q 656 982 722 982 q 532 971 597 982 q 403 940 468 961 q 386 763 392 839 q 377 626 380 686 q 374 518 374 566 q 374 427 374 471 m 375 171 q 378 99 376 134 q 382 29 380 63 q 401 25 391 26 q 422 24 411 24 q 495 50 472 24 q 518 115 518 77 q 494 182 518 157 q 437 173 466 176 q 382 171 409 171 l 375 171 m 375 192 l 378 192 q 425 193 401 192 q 472 199 449 195 q 436 212 456 207 q 389 216 415 216 l 375 216 l 375 192 m 335 193 q 334 203 335 199 q 334 214 334 208 q 310 201 310 210 q 317 196 310 197 q 335 193 324 195 z "},"C":{"ha":760,"x_min":57,"x_max":733,"o":"m 733 252 q 721 202 730 233 q 696 136 712 171 q 655 66 680 102 q 595 3 630 31 q 513 -43 560 -25 q 407 -61 467 -61 q 276 -28 339 -61 q 164 65 213 4 q 86 215 115 126 q 57 415 57 303 q 71 570 57 494 q 112 713 85 646 q 177 837 139 781 q 264 935 216 894 q 372 998 313 975 q 496 1021 430 1021 q 585 1006 545 1021 q 651 965 624 991 q 693 904 679 939 q 708 829 708 869 q 700 778 708 803 q 682 730 692 752 q 659 690 671 708 q 639 661 647 672 l 631 668 q 646 693 639 679 q 659 725 653 708 q 667 761 664 742 q 671 799 671 779 q 658 867 671 835 q 622 923 646 899 q 564 961 598 947 q 486 975 530 975 q 367 956 421 975 q 269 902 312 937 q 192 818 225 867 q 138 711 159 770 q 105 587 116 653 q 94 452 94 522 q 103 341 94 397 q 131 233 113 285 q 177 135 149 180 q 240 55 204 89 q 322 1 277 21 q 422 -18 368 -18 q 546 7 494 -18 q 633 72 597 33 q 689 160 668 112 q 720 254 709 208 l 733 252 z "},"D":{"ha":979,"x_min":0,"x_max":956,"o":"m 425 237 q 425 275 425 255 q 427 317 425 295 q 377 305 404 309 q 321 301 350 301 q 180 328 240 301 q 80 398 120 354 q 20 501 40 443 q 0 624 0 559 q 20 748 0 690 q 74 852 39 805 q 155 937 108 900 q 256 999 202 974 q 370 1038 311 1025 q 489 1051 429 1051 q 681 1019 595 1051 q 828 923 767 986 q 922 769 889 861 q 956 558 956 677 q 948 441 956 505 q 923 311 940 376 q 879 183 906 245 q 813 72 852 121 q 723 -5 774 24 q 607 -35 672 -35 q 528 -20 564 -35 q 461 8 492 -6 q 422 -38 448 -21 q 364 -54 397 -54 q 341 -51 354 -54 q 318 -41 329 -47 q 300 -23 307 -34 q 293 1 293 -13 q 300 26 293 16 q 318 44 307 37 q 343 55 329 51 q 374 58 358 58 q 403 56 389 58 q 432 50 417 54 l 432 62 q 429 139 432 96 q 425 237 425 182 m 494 578 q 477 470 483 529 q 468 354 471 412 q 515 373 496 363 q 550 393 534 382 l 554 386 q 520 360 542 374 q 468 332 498 345 q 467 284 467 307 q 467 240 467 261 q 468 189 467 211 q 470 147 469 166 q 472 111 471 128 q 473 74 473 93 q 473 56 473 64 q 471 40 472 47 q 537 18 505 28 q 607 7 570 7 q 713 29 667 7 q 793 89 760 51 q 850 176 827 126 q 886 281 872 226 q 905 394 899 336 q 911 505 911 452 q 882 707 911 614 q 798 869 854 800 q 661 976 743 937 q 473 1015 580 1015 q 292 989 373 1015 q 154 912 211 962 q 65 787 96 861 q 35 618 35 713 q 59 507 35 559 q 123 418 83 456 q 214 358 163 380 q 321 336 266 336 q 427 345 385 336 q 436 447 430 393 q 454 564 441 502 q 457 582 456 572 q 458 593 458 591 q 458 607 458 600 q 464 614 458 614 q 473 610 467 614 q 483 600 478 606 q 491 588 488 594 q 494 578 494 582 m 372 -22 q 413 -9 400 -22 q 429 24 425 5 q 401 33 414 29 q 375 36 388 36 q 339 29 355 36 q 323 7 323 22 q 338 -15 323 -7 q 372 -22 353 -22 z "},"E":{"ha":720,"x_min":0,"x_max":844,"o":"m 771 203 q 748 169 764 191 q 709 118 732 146 q 655 60 686 90 q 589 6 625 31 q 513 -33 553 -18 q 428 -49 472 -49 q 319 -10 359 -49 q 278 107 279 29 q 160 145 212 116 q 73 219 109 174 q 19 323 37 264 q 0 450 0 382 q 25 595 0 524 q 93 730 50 667 q 196 848 137 794 q 325 940 256 901 q 470 1001 394 979 q 624 1023 547 1023 q 695 1016 656 1023 q 766 989 733 1008 q 822 939 800 970 q 844 861 844 908 q 822 781 844 825 q 753 697 800 737 l 747 703 q 793 771 780 736 q 806 846 806 806 q 786 908 806 883 q 739 949 767 934 q 677 971 710 965 q 616 978 644 978 q 468 959 541 978 q 329 907 395 941 q 208 825 264 873 q 112 720 152 778 q 48 596 71 663 q 25 458 25 530 q 44 351 25 402 q 98 258 64 300 q 180 188 133 217 q 282 149 227 159 q 304 205 289 178 q 340 251 319 231 q 386 283 361 271 q 439 294 412 294 q 489 278 469 294 q 509 228 509 262 q 492 171 509 195 q 451 132 476 147 q 395 110 425 117 q 335 103 364 103 q 318 103 326 103 q 302 104 310 103 q 316 60 304 80 q 346 26 328 40 q 387 5 363 12 q 435 -3 410 -3 q 609 51 525 -3 q 762 208 693 104 l 771 203 m 436 258 q 385 250 408 258 q 347 225 363 241 q 320 190 330 210 q 306 144 310 169 q 325 143 315 143 q 343 143 334 143 q 392 148 366 143 q 439 162 418 152 q 474 186 460 172 q 488 221 488 201 q 483 238 488 231 q 471 250 478 245 q 454 256 463 254 q 436 258 445 258 z "},"F":{"ha":751,"x_min":0,"x_max":918,"o":"m 568 264 q 588 264 572 264 q 623 263 605 264 q 656 259 642 262 q 671 250 671 256 q 656 232 671 232 q 604 233 628 233 q 555 233 579 233 q 554 227 554 231 q 531 129 544 177 q 497 44 518 81 q 446 -17 477 6 q 370 -40 415 -40 q 310 -27 336 -40 q 265 6 284 -14 q 234 49 246 26 q 215 92 222 72 l 224 96 q 250 47 236 66 q 280 15 264 27 q 312 -2 296 3 q 346 -7 329 -7 q 408 5 382 -7 q 451 46 433 18 q 484 120 470 74 q 511 233 498 165 q 421 231 467 233 q 325 222 376 228 q 307 220 317 222 q 294 218 296 218 q 288 227 288 218 q 297 245 288 235 q 325 256 307 256 q 355 257 336 256 q 398 259 374 258 q 453 261 423 260 q 517 262 484 262 q 532 340 524 299 q 547 429 539 381 q 590 630 565 533 q 652 806 616 727 q 605 807 632 806 q 547 811 578 809 q 484 815 517 813 q 421 817 452 817 q 265 794 338 817 q 137 728 192 772 q 49 615 81 683 q 17 457 17 548 q 21 391 17 420 q 33 341 26 363 q 48 304 39 319 q 65 279 57 290 l 57 271 q 38 298 48 281 q 19 339 28 315 q 5 395 11 363 q 0 467 0 427 q 33 626 0 553 q 121 750 65 699 q 254 831 178 802 q 416 860 330 860 q 486 858 452 860 q 552 852 521 855 q 609 847 583 849 q 654 844 635 844 l 671 844 q 708 906 688 878 q 750 953 728 933 q 797 983 772 972 q 848 994 821 994 q 903 979 887 994 q 918 943 918 963 q 901 897 918 920 q 851 854 883 873 q 776 822 820 835 q 681 806 732 808 q 643 686 659 752 q 612 548 626 619 q 586 403 598 476 q 561 264 574 330 l 568 264 m 829 957 q 754 926 787 957 q 697 844 722 896 q 790 857 754 847 q 845 879 825 867 q 872 905 865 892 q 879 929 879 919 q 865 950 879 943 q 829 957 851 957 z "},"G":{"ha":606,"x_min":41,"x_max":953,"o":"m 335 -240 q 368 -231 353 -239 q 394 -203 383 -222 q 412 -156 406 -185 q 418 -87 418 -127 q 414 -23 418 -62 q 407 64 411 16 q 341 17 378 35 q 253 0 303 0 q 167 15 206 0 q 100 60 128 29 q 57 137 72 90 q 41 248 41 183 q 61 386 41 315 q 116 524 81 456 q 198 655 151 591 q 301 776 245 720 q 417 880 356 833 q 539 961 477 927 q 660 1014 600 995 q 772 1032 720 1032 q 833 1024 802 1032 q 892 997 865 1017 q 936 943 918 977 q 953 857 953 909 q 930 777 953 821 q 861 693 908 733 l 856 699 q 901 767 888 732 q 914 842 914 802 q 901 904 914 876 q 868 951 888 932 q 823 981 848 970 q 772 991 798 991 q 607 960 690 991 q 447 874 524 928 q 304 747 370 820 q 189 591 237 674 q 112 418 140 507 q 83 243 83 329 q 94 171 83 208 q 127 106 104 135 q 186 58 150 77 q 272 40 222 40 q 354 52 323 40 q 406 86 385 64 q 396 214 400 147 q 392 346 392 280 q 392 413 392 378 q 394 482 393 448 q 400 547 396 516 q 412 601 405 577 q 431 638 420 624 q 460 652 443 652 q 498 606 486 652 q 510 465 510 560 q 503 341 510 410 q 478 200 496 272 q 446 118 467 155 q 454 16 450 63 q 458 -60 458 -31 q 448 -135 458 -95 q 417 -209 437 -175 q 368 -264 397 -242 q 301 -286 338 -286 q 278 -282 289 -286 q 261 -273 268 -279 q 250 -262 254 -268 q 245 -250 245 -256 q 249 -238 245 -245 q 256 -225 252 -231 q 265 -215 260 -219 q 272 -211 269 -211 q 276 -213 275 -211 q 277 -219 277 -216 q 278 -225 277 -222 q 282 -231 279 -229 q 300 -238 290 -235 q 335 -240 311 -241 m 433 350 q 436 253 433 304 q 443 151 439 202 q 449 168 446 160 q 456 186 452 176 q 476 295 473 235 q 479 418 479 354 q 477 502 479 465 q 471 565 475 539 q 461 605 467 591 q 447 619 455 619 q 436 604 439 619 q 430 563 432 588 q 429 507 429 538 q 430 447 429 477 q 432 391 431 417 q 433 350 433 366 z "},"H":{"ha":684,"x_min":-17,"x_max":663,"o":"m 624 250 q 651 249 640 250 q 663 241 663 248 q 654 224 663 229 q 633 216 646 218 q 605 215 621 214 q 574 215 589 215 l 558 215 l 558 142 q 560 68 558 98 q 565 16 562 38 q 572 -23 568 -6 q 582 -56 576 -39 q 586 -62 586 -60 q 575 -75 586 -68 q 553 -81 564 -81 q 540 -77 545 -81 q 533 -62 536 -74 q 525 -23 528 -47 q 519 29 522 2 q 516 80 517 56 q 515 121 515 105 q 515 168 515 144 q 517 215 515 191 q 373 217 440 215 q 239 220 306 220 l 212 220 q 197 91 209 155 q 161 -30 184 28 q 101 -138 137 -88 q 12 -225 64 -188 l 1 -216 q 81 -130 49 -181 q 132 -19 113 -78 q 159 101 151 39 q 168 218 168 162 q 96 216 132 218 q 21 211 60 214 q 2 208 12 210 q -9 207 -7 207 q -17 215 -17 207 q -7 239 -17 231 q 23 250 3 247 q 73 254 43 254 q 143 254 103 254 l 168 254 q 161 423 167 342 q 149 585 155 504 q 136 752 142 667 q 131 935 131 838 q 132 961 131 946 q 135 988 133 975 q 140 1009 137 1000 q 146 1018 142 1018 q 157 1014 149 1018 q 172 1005 164 1010 q 185 993 179 999 q 191 983 191 987 q 189 977 191 981 q 185 965 187 973 q 182 944 184 957 q 180 913 180 932 q 183 798 180 848 q 189 702 185 747 q 197 613 193 656 q 205 521 201 570 q 211 413 209 472 q 214 278 214 354 l 214 254 q 364 252 286 253 q 517 250 443 250 q 523 412 519 330 q 532 571 527 494 q 541 714 536 647 q 550 832 546 781 q 557 915 554 884 q 559 950 559 946 q 557 967 559 956 q 554 987 554 978 q 559 991 554 989 q 570 994 564 993 q 583 996 576 996 q 591 997 589 997 q 606 987 600 997 q 612 968 612 977 q 609 902 612 942 q 601 809 606 861 q 589 693 595 757 q 577 559 583 630 q 566 410 571 488 q 559 250 562 332 l 624 250 z "},"I":{"ha":591,"x_min":0,"x_max":661,"o":"m 443 29 q 423 33 433 31 q 403 37 413 35 q 346 -15 380 4 q 267 -33 313 -33 q 224 -23 237 -33 q 211 0 211 -14 q 219 19 211 9 q 244 36 228 28 q 283 49 260 44 q 335 54 306 54 q 355 54 345 54 q 375 52 366 53 q 414 155 401 93 q 433 292 427 218 q 441 447 439 366 q 448 607 444 528 q 460 755 452 685 q 489 879 469 826 q 393 869 444 874 q 292 853 342 864 q 198 823 243 842 q 118 771 153 804 q 63 691 83 739 q 43 575 43 644 q 51 519 43 547 q 75 469 59 491 q 116 434 92 448 q 174 421 141 421 q 224 429 203 421 q 261 449 245 437 q 287 473 276 460 q 304 494 297 486 l 311 490 q 293 461 305 480 q 262 425 281 443 q 217 394 243 407 q 157 380 191 380 q 89 396 118 380 q 40 435 60 411 q 10 490 20 460 q 0 550 0 520 q 25 677 0 623 q 91 769 50 731 q 185 833 132 808 q 294 875 238 859 q 406 901 351 891 q 507 918 461 911 q 556 973 527 954 q 625 993 585 993 q 649 983 637 993 q 661 954 661 973 q 651 924 661 936 q 621 903 640 911 q 577 890 602 895 q 521 882 551 886 q 499 765 505 833 q 491 620 494 697 q 487 460 488 543 q 477 302 485 378 q 455 160 470 226 q 410 47 439 94 q 427 43 418 45 q 446 39 436 41 l 443 29 m 332 7 q 350 22 341 14 q 367 40 359 30 q 354 41 360 41 q 340 41 348 41 q 298 38 315 41 q 272 31 281 35 q 258 21 262 26 q 254 9 254 15 q 261 -2 254 2 q 282 -7 267 -7 q 306 -4 294 -7 q 332 7 318 -1 m 621 971 q 573 960 593 971 q 538 924 552 949 q 607 940 581 931 q 633 964 633 948 q 628 970 633 969 q 621 971 623 971 z "},"J":{"ha":547,"x_min":0,"x_max":631,"o":"m 56 -62 q 68 -105 59 -83 q 93 -145 77 -127 q 132 -174 109 -163 q 187 -186 155 -186 q 269 -156 236 -186 q 323 -75 302 -126 q 357 46 345 -23 q 376 193 369 115 q 323 179 351 184 q 265 174 296 174 q 159 189 208 174 q 75 235 111 205 q 20 310 40 266 q 0 412 0 355 q 21 530 0 477 q 77 625 42 583 q 158 700 112 667 q 253 760 203 733 q 352 806 302 786 q 446 844 402 827 q 500 943 467 906 q 586 979 533 979 q 599 978 591 979 q 613 972 606 977 q 626 959 621 968 q 631 937 631 951 q 618 897 631 915 q 583 865 605 880 q 530 838 560 850 q 464 812 499 825 q 452 688 456 757 q 445 545 448 620 q 437 391 441 470 q 427 237 433 313 q 498 281 469 256 q 550 328 526 307 l 559 318 q 539 298 551 310 q 509 271 526 286 q 470 242 492 257 q 424 214 449 227 q 398 47 414 125 q 352 -90 381 -31 q 280 -184 323 -149 q 174 -218 237 -218 q 115 -208 144 -218 q 63 -179 86 -198 q 25 -134 40 -161 q 11 -74 11 -107 q 15 -59 11 -66 q 25 -48 19 -53 q 40 -41 32 -44 q 56 -39 47 -39 q 61 -45 61 -39 q 58 -53 61 -48 q 56 -62 56 -57 m 282 210 q 379 221 336 210 q 389 374 385 295 q 398 528 393 452 q 411 674 403 604 q 433 803 419 745 q 345 773 391 789 q 256 737 300 757 q 174 691 213 717 q 106 631 135 665 q 60 554 77 597 q 43 454 43 510 q 54 363 43 401 q 83 297 64 324 q 126 253 102 270 q 177 226 150 235 q 231 213 203 216 q 282 210 258 210 m 571 947 q 541 942 555 947 q 512 926 526 937 q 489 898 499 916 q 472 856 478 881 q 518 876 497 866 q 555 895 540 885 q 579 913 570 904 q 587 933 587 923 q 583 942 587 937 q 571 947 579 947 z "},"K":{"ha":575,"x_min":0,"x_max":1047,"o":"m 125 1 q 126 -8 125 -3 q 126 -19 127 -14 q 123 -28 125 -24 q 113 -32 120 -32 q 96 -28 102 -32 q 89 -12 90 -24 q 84 34 87 9 q 79 85 81 59 q 54 64 64 68 q 35 60 43 60 q 9 69 19 60 q 0 93 0 79 q 6 115 0 104 q 23 132 13 125 q 47 144 34 140 q 74 149 60 149 q 65 296 68 218 q 61 458 61 374 q 61 561 61 512 q 62 662 61 609 q 67 776 64 714 q 77 918 71 838 q 79 934 78 926 q 79 943 79 942 q 79 954 79 949 q 83 960 78 960 q 94 958 87 960 q 109 954 102 956 q 122 948 117 951 q 127 942 127 945 q 117 773 121 846 q 111 645 113 701 q 108 545 109 589 q 107 463 107 501 q 107 398 107 433 q 109 323 108 362 q 111 242 109 283 q 114 160 112 201 q 181 261 143 201 q 263 392 218 321 q 359 538 309 463 q 465 688 410 614 q 578 826 520 761 q 695 942 636 892 q 813 1021 754 991 q 929 1050 872 1050 q 980 1041 958 1050 q 1017 1018 1002 1032 q 1039 983 1031 1003 q 1047 942 1047 964 q 1036 883 1047 911 q 1009 831 1024 854 q 982 794 995 808 q 965 777 968 779 l 957 782 q 972 800 964 790 q 988 826 981 810 q 1001 862 996 841 q 1006 914 1006 884 q 999 949 1006 932 q 981 977 993 965 q 953 996 970 989 q 916 1003 937 1003 q 811 976 865 1003 q 703 902 758 949 q 592 794 648 856 q 484 663 537 732 q 380 520 431 593 q 283 378 329 447 q 196 248 237 309 q 123 142 156 187 q 181 118 154 134 q 234 83 208 102 q 283 44 259 64 q 332 8 307 24 q 382 -19 357 -8 q 436 -29 408 -29 q 478 -20 461 -29 q 507 2 496 -11 q 525 31 518 16 q 538 60 532 47 l 547 56 q 539 35 544 47 q 528 9 535 23 q 511 -19 521 -5 q 488 -44 502 -33 q 457 -62 475 -55 q 418 -69 440 -69 q 355 -59 385 -69 q 300 -32 326 -48 q 250 6 274 -15 q 204 47 227 27 q 160 85 182 68 q 117 114 138 103 q 120 55 118 83 q 125 1 121 26 m 43 93 q 60 97 52 93 q 78 113 68 102 q 77 119 77 116 q 77 125 77 121 q 72 125 75 125 q 68 126 70 126 q 37 118 45 126 q 29 104 29 111 q 43 93 29 93 z "},"L":{"ha":509,"x_min":0,"x_max":786,"o":"m 647 647 q 686 680 667 661 q 718 722 704 699 q 741 772 732 745 q 749 828 749 799 q 729 908 749 872 q 677 968 710 943 q 600 1006 644 993 q 507 1019 556 1019 q 389 1003 446 1019 q 280 956 331 986 q 187 884 229 926 q 114 791 144 842 q 66 682 83 741 q 49 561 49 624 q 56 477 49 517 q 75 399 64 437 q 99 322 85 360 q 123 247 112 285 q 141 170 134 209 q 149 89 149 130 q 148 68 149 79 q 143 49 146 58 q 189 28 166 40 q 234 6 212 16 q 277 -12 256 -5 q 318 -20 298 -20 q 354 -14 339 -20 q 380 3 370 -8 q 399 28 391 14 q 412 60 407 42 l 427 57 q 374 -31 406 -5 q 298 -57 343 -57 q 251 -50 273 -57 q 207 -32 228 -43 q 168 -9 186 -22 q 131 12 149 3 q 98 -29 118 -12 q 50 -46 77 -46 q 13 -33 26 -46 q 0 -4 0 -19 q 7 22 0 10 q 25 43 14 35 q 50 57 36 52 q 78 62 64 62 q 125 54 100 62 q 125 62 125 58 q 126 69 126 66 q 117 142 126 105 q 94 217 108 179 q 64 293 80 254 q 34 372 47 332 q 11 454 20 412 q 1 539 1 496 q 21 671 1 606 q 77 793 41 735 q 162 900 113 851 q 270 984 212 949 q 394 1040 329 1020 q 528 1060 460 1060 q 640 1044 591 1060 q 721 999 688 1027 q 770 932 753 970 q 786 848 786 893 q 776 784 786 814 q 748 729 766 755 q 706 681 730 703 q 654 639 682 659 l 647 647 m 64 -9 q 93 0 81 -9 q 113 22 105 9 q 87 33 100 28 q 64 37 75 37 q 41 29 48 37 q 33 12 33 21 q 41 -3 33 3 q 64 -9 48 -9 z "},"M":{"ha":1136,"x_min":0,"x_max":1139,"o":"m 1139 107 q 1129 83 1137 100 q 1111 45 1122 66 q 1085 2 1099 24 q 1055 -40 1071 -21 q 1023 -70 1040 -58 q 990 -82 1006 -82 q 950 -60 966 -82 q 923 -6 933 -39 q 908 65 913 26 q 904 138 904 104 q 918 346 904 243 q 953 549 931 448 q 1003 750 975 650 q 1060 947 1031 849 q 1020 913 1046 947 q 962 824 995 880 q 892 696 930 768 q 815 549 854 625 q 739 400 777 473 q 668 267 701 326 q 659 251 665 260 q 647 234 654 242 q 631 220 640 226 q 612 214 622 214 q 598 220 602 214 q 593 239 594 227 q 587 329 589 279 q 581 432 584 380 q 574 536 578 485 q 567 630 571 587 q 557 702 563 672 q 545 741 552 731 q 545 728 545 735 q 546 715 545 723 q 546 697 546 707 q 539 614 546 663 q 519 506 532 564 q 485 386 505 448 q 439 262 465 323 q 380 148 412 202 q 308 52 347 93 q 223 -13 269 11 q 127 -37 178 -37 q 70 -24 93 -37 q 33 8 47 -11 q 11 46 18 26 q 0 79 3 66 l 7 82 q 29 50 15 62 q 61 29 43 37 q 97 19 78 22 q 136 16 117 16 q 222 36 181 16 q 298 93 262 57 q 365 176 334 128 q 421 278 395 224 q 466 390 446 332 q 498 505 485 448 q 518 612 511 561 q 524 705 524 664 q 522 727 524 715 q 519 750 521 739 q 523 758 520 753 q 529 767 525 762 q 539 775 533 772 q 553 778 545 778 q 584 751 572 778 q 604 680 597 724 q 616 579 612 635 q 623 466 620 524 q 627 354 625 408 q 633 260 629 300 q 649 281 637 260 q 680 337 661 302 q 722 421 698 373 q 772 522 745 469 q 828 633 799 576 q 887 743 858 690 q 946 845 917 797 q 1002 928 975 892 q 1051 985 1028 964 q 1092 1006 1074 1006 q 1103 998 1097 1002 q 1108 987 1108 994 q 1055 793 1083 896 q 1004 583 1027 690 q 965 365 981 475 q 950 149 950 255 q 954 92 950 123 q 966 35 958 61 q 986 -10 975 8 q 1013 -28 998 -28 q 1043 -12 1025 -28 q 1078 27 1061 5 q 1111 72 1096 49 q 1132 110 1125 96 l 1139 107 z "},"N":{"ha":885,"x_min":0,"x_max":1413,"o":"m 1407 957 q 1379 997 1394 977 q 1343 1034 1364 1017 q 1293 1060 1322 1050 q 1225 1069 1265 1069 q 1097 1035 1154 1069 q 998 941 1041 1000 q 922 803 954 882 q 867 637 890 725 q 828 458 844 549 q 803 280 813 366 q 786 120 792 195 q 774 -7 779 46 q 759 -26 770 -18 q 739 -35 747 -35 q 728 -17 730 -35 q 715 72 722 20 q 699 182 709 123 q 677 302 690 240 q 649 425 665 365 q 610 537 632 484 q 561 632 589 591 q 529 525 547 584 q 489 402 511 466 q 440 272 467 338 q 386 144 414 205 q 326 28 357 82 q 262 -66 295 -26 q 195 -129 229 -106 q 126 -153 161 -153 q 71 -140 94 -153 q 33 -112 48 -128 q 11 -81 18 -96 q 0 -61 3 -66 l 5 -57 q 21 -72 12 -64 q 44 -88 30 -81 q 79 -101 58 -96 q 127 -106 99 -106 q 200 -82 165 -106 q 268 -17 235 -58 q 331 79 301 24 q 387 195 361 134 q 437 321 414 256 q 480 447 460 386 q 515 563 500 509 q 542 659 530 618 q 484 709 516 691 q 412 728 451 728 q 352 717 378 728 q 308 688 326 706 q 280 646 290 670 q 271 597 271 623 q 279 549 271 570 q 298 512 287 528 q 323 485 310 496 q 346 468 336 474 l 340 461 q 318 476 334 465 q 286 506 302 488 q 258 550 270 525 q 245 606 245 575 q 260 677 245 647 q 298 727 275 707 q 351 756 321 747 q 411 766 380 766 q 489 750 454 766 q 554 704 525 734 q 558 718 556 711 q 562 729 560 725 q 571 744 566 739 q 581 751 576 749 q 589 754 585 753 q 593 754 592 754 q 586 724 591 743 q 575 682 581 706 q 629 594 606 644 q 671 489 653 545 q 703 375 690 433 q 726 261 716 316 q 742 159 735 207 q 755 75 749 111 q 770 208 761 132 q 791 367 779 283 q 823 540 804 452 q 867 712 842 628 q 927 870 893 795 q 1004 1000 961 944 q 1102 1087 1048 1055 q 1222 1120 1156 1120 q 1280 1111 1254 1120 q 1325 1088 1305 1102 q 1360 1056 1345 1074 q 1385 1020 1375 1038 q 1402 986 1396 1002 q 1413 960 1409 970 l 1407 957 z "},"O":{"ha":796,"x_min":53,"x_max":765,"o":"m 408 -3 q 510 17 465 -3 q 592 70 556 37 q 654 147 627 103 q 697 239 680 191 q 722 338 714 288 q 730 435 730 389 q 721 572 730 505 q 694 700 711 639 q 690 703 694 701 q 685 710 685 705 q 689 719 685 713 q 698 729 692 724 q 710 738 704 734 q 722 742 717 742 q 734 729 728 742 q 744 695 739 716 q 752 647 749 674 q 759 593 756 621 q 764 540 762 566 q 765 494 765 514 q 756 381 765 442 q 730 260 748 321 q 683 144 711 200 q 612 45 654 88 q 517 -23 571 3 q 393 -49 463 -49 q 285 -28 334 -49 q 199 27 237 -8 q 133 111 161 62 q 88 215 106 159 q 61 331 70 271 q 53 453 53 392 q 65 589 53 519 q 101 723 77 658 q 162 846 125 789 q 247 947 198 904 q 356 1015 295 990 q 490 1040 417 1040 q 585 1022 545 1040 q 651 974 625 1003 q 691 908 677 944 q 704 838 704 872 q 688 760 704 797 q 636 688 672 722 l 628 699 q 661 753 653 724 q 668 811 668 783 q 652 880 668 847 q 608 939 636 913 q 544 980 581 965 q 465 996 507 996 q 343 972 397 996 q 248 910 289 949 q 177 819 206 871 q 129 710 147 768 q 101 594 110 653 q 93 481 93 535 q 100 379 93 433 q 123 271 108 324 q 164 168 139 217 q 224 80 189 118 q 305 20 259 43 q 408 -3 351 -3 z "},"P":{"ha":782,"x_min":50,"x_max":768,"o":"m 227 930 q 228 940 227 936 q 235 947 229 944 q 245 953 239 949 q 257 957 251 957 q 263 955 260 957 q 267 950 267 954 q 267 866 268 925 q 262 729 266 808 q 350 848 304 793 q 442 944 395 903 q 535 1008 489 985 q 625 1031 582 1031 q 684 1021 658 1031 q 729 988 710 1011 q 758 928 748 966 q 768 835 768 890 q 755 727 768 786 q 719 607 743 667 q 663 489 696 546 q 591 388 631 432 q 506 317 551 344 q 412 290 461 290 q 354 302 378 290 q 313 332 330 314 q 285 374 296 351 q 269 420 275 397 q 260 462 262 442 q 257 494 258 482 l 271 497 q 323 374 288 414 q 421 334 357 334 q 514 357 472 334 q 590 418 557 380 q 648 506 623 456 q 690 607 673 555 q 714 709 706 659 q 722 802 722 760 q 717 865 722 833 q 698 922 711 897 q 664 962 685 947 q 610 978 642 978 q 520 957 566 978 q 429 898 474 936 q 342 809 385 861 q 261 696 299 758 q 252 536 258 621 q 239 368 247 451 q 219 208 231 284 q 192 73 208 132 q 158 -20 177 15 q 115 -54 139 -54 q 79 -34 92 -54 q 59 17 66 -13 q 52 78 53 46 q 50 134 50 111 q 62 253 50 189 q 97 385 75 317 q 150 522 119 453 q 218 656 181 591 q 224 808 222 736 q 227 930 227 880 m 118 4 q 140 30 130 4 q 160 99 151 55 q 178 203 170 144 q 193 331 186 263 q 205 472 200 399 q 215 616 211 545 q 163 499 186 559 q 123 376 140 438 q 97 253 106 315 q 87 134 87 192 q 90 86 87 109 q 96 44 92 62 q 105 15 100 26 q 118 4 111 4 z "},"Q":{"ha":665,"x_min":0,"x_max":762,"o":"m 671 97 q 661 76 669 91 q 642 43 654 62 q 613 5 629 25 q 575 -31 596 -14 q 530 -57 555 -47 q 478 -68 506 -68 q 430 -60 456 -68 q 379 -40 405 -52 q 327 -15 353 -28 q 277 8 300 -2 q 225 -17 249 -8 q 183 -26 201 -26 q 165 -25 174 -26 q 149 -19 157 -23 q 137 -8 142 -15 q 132 8 132 -2 q 139 29 132 19 q 157 46 145 39 q 185 57 169 53 q 220 61 201 61 q 256 57 237 61 q 293 45 274 52 q 384 122 336 75 q 478 225 431 168 q 568 346 525 281 q 643 477 610 410 q 695 610 675 544 q 714 736 714 676 q 699 826 714 786 q 655 893 683 865 q 591 936 628 921 q 511 950 554 950 q 386 936 446 950 q 271 897 325 922 q 174 838 218 872 q 98 765 130 804 q 48 683 66 726 q 31 597 31 640 q 37 539 31 565 q 55 494 44 513 q 78 463 65 475 q 103 441 91 450 l 98 436 q 62 460 80 446 q 31 495 45 475 q 8 541 17 515 q 0 595 0 566 q 22 692 0 643 q 83 785 45 741 q 174 869 122 830 q 283 936 225 907 q 404 981 342 964 q 525 997 465 997 q 616 984 573 997 q 692 941 659 970 q 743 865 724 912 q 762 751 762 819 q 742 627 762 693 q 687 493 722 561 q 608 358 653 425 q 513 232 563 292 q 412 121 463 172 q 314 36 360 71 q 358 15 336 26 q 402 -5 380 4 q 445 -20 424 -14 q 488 -26 467 -26 q 563 -12 533 -26 q 613 23 593 3 q 645 65 633 43 q 665 102 657 87 l 671 97 m 184 -4 q 216 2 198 -4 q 253 18 233 7 q 207 29 226 29 q 173 23 185 29 q 160 8 160 18 q 168 -2 160 1 q 184 -4 176 -4 z "},"R":{"ha":882,"x_min":0,"x_max":861,"o":"m 832 25 q 814 0 828 17 q 779 -33 800 -16 q 731 -62 758 -50 q 675 -74 705 -74 q 603 -52 637 -74 q 537 1 568 -31 q 479 70 507 33 q 427 136 452 106 q 405 134 416 134 q 383 134 394 134 q 347 136 363 134 q 319 144 331 138 q 313 67 316 106 q 306 -11 310 28 q 298 -25 306 -20 q 281 -29 290 -29 q 267 -26 273 -29 q 261 -20 261 -24 q 268 -9 261 -15 q 291 454 283 221 q 307 925 300 686 q 193 876 247 905 q 99 808 139 846 q 35 724 58 770 q 11 628 11 679 q 15 597 11 611 q 24 571 18 583 q 35 552 29 560 q 45 541 41 545 l 36 534 q 26 547 33 538 q 15 568 20 555 q 4 598 9 581 q 0 636 0 615 q 25 748 0 696 q 94 842 51 800 q 192 916 136 884 q 309 970 248 948 q 311 1016 310 993 q 313 1063 311 1039 q 321 1072 313 1069 q 339 1075 330 1075 q 352 1073 347 1075 q 358 1067 358 1071 q 355 1061 358 1064 q 353 1022 354 1042 q 351 983 353 1002 q 515 1007 438 1007 q 648 988 585 1007 q 758 929 711 969 q 833 826 806 888 q 861 675 861 763 q 847 565 861 621 q 807 454 833 508 q 745 349 781 399 q 665 258 709 299 q 571 187 621 217 q 467 143 521 157 q 518 86 493 117 q 571 29 544 55 q 629 -15 598 3 q 697 -32 660 -32 q 738 -26 718 -32 q 777 -13 759 -21 q 808 7 794 -4 q 828 28 822 18 l 832 25 m 350 936 q 340 575 344 755 q 323 207 336 395 q 331 209 327 208 q 340 210 335 210 q 398 196 372 210 q 449 161 425 183 q 550 196 503 172 q 639 256 598 220 q 712 336 680 292 q 768 429 745 380 q 803 531 791 479 q 815 636 815 584 q 798 763 815 705 q 744 865 781 822 q 647 931 707 907 q 501 956 587 956 q 350 936 427 956 m 383 155 q 396 155 390 155 q 408 157 402 155 q 378 183 393 172 q 351 193 364 193 q 332 189 339 193 q 325 176 325 184 q 342 161 325 167 q 383 155 359 155 z "},"S":{"ha":642,"x_min":28,"x_max":836,"o":"m 358 -50 q 335 -46 346 -50 q 318 -37 325 -43 q 307 -25 311 -32 q 302 -14 302 -19 q 306 -2 302 -9 q 313 11 309 5 q 322 21 317 17 q 329 25 326 25 q 333 23 332 25 q 334 17 334 20 q 335 11 334 14 q 339 5 336 7 q 357 -1 347 1 q 392 -4 368 -4 q 451 6 423 -4 q 499 32 478 16 q 531 71 519 49 q 543 119 543 94 q 521 176 543 155 q 463 210 499 197 q 380 231 427 223 q 286 249 334 239 q 191 274 237 259 q 108 316 144 290 q 50 384 72 342 q 28 488 28 425 q 56 621 28 557 q 133 739 85 684 q 243 836 181 793 q 374 910 306 880 q 510 957 441 941 q 639 974 579 974 q 786 940 735 974 q 836 838 836 905 q 822 779 836 807 q 790 729 808 751 q 756 693 772 707 q 737 675 741 678 l 733 681 q 745 694 734 682 q 770 725 757 706 q 793 767 783 744 q 804 814 804 790 q 759 896 804 869 q 627 922 713 922 q 460 901 537 922 q 318 845 382 880 q 204 765 254 810 q 120 671 155 720 q 68 576 86 623 q 50 489 50 528 q 73 402 50 436 q 132 348 95 369 q 215 315 168 326 q 310 294 261 303 q 405 276 359 286 q 488 251 452 267 q 547 209 525 235 q 570 140 570 183 q 557 72 570 101 q 525 22 545 43 q 481 -13 505 1 q 433 -35 457 -27 q 390 -47 410 -43 q 358 -50 370 -50 z "},"T":{"ha":878,"x_min":0,"x_max":1156,"o":"m 1107 914 q 1121 904 1113 910 q 1137 888 1129 897 q 1150 866 1145 878 q 1156 839 1156 854 q 1149 805 1156 821 q 1130 777 1143 789 q 1096 757 1117 764 q 1047 750 1076 750 q 977 757 1012 750 q 906 775 942 764 q 834 800 871 786 q 761 829 798 814 q 746 390 759 601 q 707 -21 734 179 q 691 -53 699 -44 q 676 -62 683 -62 q 668 -58 671 -62 q 665 -47 665 -54 l 665 -43 q 684 150 677 56 q 694 339 690 245 q 700 529 698 433 q 704 726 701 625 q 706 790 705 760 q 707 850 707 819 q 593 882 652 869 q 468 896 534 896 q 292 878 372 896 q 155 820 212 860 q 65 716 97 780 q 33 559 33 652 q 43 490 33 526 q 77 426 54 455 q 138 379 100 397 q 231 361 176 361 q 311 375 278 361 q 368 408 345 389 q 405 449 391 428 q 429 486 420 471 l 439 481 q 426 456 434 471 q 404 423 417 441 q 372 387 391 406 q 330 354 354 369 q 276 330 306 339 q 210 321 246 321 q 124 337 163 321 q 58 384 85 354 q 15 457 31 414 q 0 553 0 500 q 19 671 0 617 q 70 769 37 726 q 148 845 103 812 q 244 900 193 878 q 353 933 296 922 q 467 945 410 945 q 594 932 534 945 q 708 900 654 919 l 708 974 q 712 990 708 983 q 723 1002 716 998 q 736 1009 729 1006 q 750 1011 744 1011 q 759 1009 755 1011 q 762 1003 762 1007 l 762 880 q 839 850 802 865 q 914 823 877 836 q 989 804 951 811 q 1065 796 1026 796 q 1092 800 1078 796 q 1115 809 1105 803 q 1132 826 1126 816 q 1139 850 1139 836 q 1127 884 1139 871 q 1103 907 1116 897 l 1107 914 z "},"U":{"ha":914,"x_min":0,"x_max":1003,"o":"m 872 193 q 846 154 863 178 q 806 100 829 130 q 815 51 810 74 q 827 8 820 27 l 829 8 q 832 5 832 8 q 828 -4 832 2 q 819 -15 825 -9 q 806 -25 813 -20 q 793 -29 799 -29 q 777 -7 785 -29 q 760 53 768 15 q 708 10 736 31 q 649 -26 681 -11 q 582 -52 617 -42 q 507 -61 546 -61 q 433 -49 471 -61 q 365 -10 395 -37 q 315 62 334 18 q 296 174 296 107 q 305 266 296 217 q 328 366 314 314 q 357 471 341 417 q 386 578 372 524 q 409 684 399 631 q 418 786 418 736 q 410 843 418 817 q 387 888 403 869 q 348 917 372 907 q 292 928 324 928 q 231 919 262 928 q 170 893 200 909 q 113 855 140 877 q 66 808 86 833 q 34 756 46 783 q 22 701 22 728 q 29 676 22 689 q 53 664 36 664 q 77 670 65 664 q 96 688 88 676 l 103 684 q 94 666 99 675 q 82 649 89 657 q 66 637 75 642 q 45 632 57 632 q 23 637 31 632 q 9 650 14 642 q 2 668 4 659 q 0 688 0 678 q 15 753 0 720 q 53 818 29 787 q 109 878 77 850 q 175 927 140 906 q 243 960 209 948 q 309 972 278 972 q 366 963 338 972 q 416 932 395 953 q 452 881 438 912 q 465 806 465 849 q 456 705 465 757 q 435 601 448 654 q 406 493 422 547 q 378 384 391 439 q 356 276 365 330 q 347 171 347 222 q 358 98 347 132 q 392 38 370 64 q 448 -3 414 12 q 525 -18 481 -18 q 597 -11 564 -18 q 659 8 631 -4 q 712 36 688 20 q 757 71 736 52 q 746 139 751 102 q 738 215 741 176 q 732 294 734 254 q 730 372 730 334 q 747 640 730 532 q 791 814 764 748 q 853 909 818 880 q 925 937 888 937 q 954 930 942 937 q 976 912 966 923 q 991 889 985 901 q 1003 865 998 876 l 994 860 q 965 883 981 873 q 924 893 949 893 q 839 853 869 893 q 796 744 810 814 q 780 577 783 673 q 778 367 778 480 q 784 244 778 310 q 802 118 791 179 q 836 163 821 142 q 863 200 851 185 l 872 193 z "},"V":{"ha":564,"x_min":0,"x_max":953,"o":"m 914 899 q 922 929 918 911 q 926 970 926 947 q 910 1015 926 998 q 859 1032 893 1032 q 752 1003 801 1032 q 662 922 703 973 q 587 801 621 871 q 525 651 553 731 q 475 483 497 570 q 437 309 454 396 q 408 140 420 222 q 387 -14 396 57 q 386 -25 387 -18 q 384 -40 386 -33 q 376 -56 381 -48 q 361 -68 371 -63 q 334 -65 336 -82 q 323 36 329 -20 q 309 155 317 93 q 290 281 300 217 q 266 405 279 345 q 235 518 252 465 q 198 611 218 571 q 152 673 177 650 q 98 696 127 696 q 43 677 65 696 q 21 624 21 659 q 28 588 21 603 q 52 559 36 573 l 49 557 q 12 590 24 568 q 0 635 0 612 q 8 673 0 655 q 30 704 16 691 q 63 725 44 718 q 106 733 83 733 q 171 709 142 733 q 224 645 200 685 q 266 551 248 604 q 299 438 285 497 q 324 319 313 380 q 342 203 334 258 q 356 102 350 148 q 366 26 361 56 q 390 179 376 97 q 422 349 404 262 q 464 523 441 435 q 516 691 487 610 q 580 842 545 772 q 657 964 615 912 q 750 1045 700 1016 q 860 1075 801 1075 q 894 1069 878 1075 q 924 1053 911 1064 q 945 1026 937 1042 q 953 987 953 1009 q 948 958 953 972 q 938 930 944 943 q 927 908 932 918 q 918 896 921 899 l 914 899 z "},"W":{"ha":932,"x_min":0,"x_max":1493,"o":"m 267 46 q 319 93 286 60 q 395 171 353 125 q 480 269 436 216 q 562 376 524 322 q 558 438 559 410 q 557 488 557 467 q 564 562 557 526 q 585 623 571 597 q 620 665 599 650 q 668 681 640 681 q 701 666 690 681 q 711 625 711 650 q 703 579 711 605 q 681 524 695 553 q 647 462 667 494 q 604 396 627 430 q 617 274 609 338 q 635 150 625 210 q 658 36 646 89 q 685 -54 671 -17 q 732 138 707 41 q 784 332 756 236 q 843 517 811 427 q 911 687 874 608 q 991 834 948 767 q 1084 948 1034 901 q 1193 1023 1134 996 q 1320 1050 1251 1050 q 1390 1036 1360 1050 q 1440 1001 1419 1022 q 1474 956 1461 981 q 1493 908 1487 930 l 1487 904 q 1471 928 1482 911 q 1440 962 1460 945 q 1390 992 1421 979 q 1315 1006 1360 1006 q 1171 971 1236 1006 q 1050 870 1105 936 q 949 710 996 804 q 861 495 902 615 q 782 233 819 376 q 707 -71 744 91 q 700 -84 705 -77 q 687 -97 694 -92 q 673 -106 680 -102 q 664 -110 667 -110 q 659 -109 661 -110 q 655 -106 656 -109 q 652 -100 654 -104 q 647 -89 650 -96 q 620 -4 633 -55 q 597 106 608 47 q 578 227 587 165 q 566 343 570 288 q 499 259 534 300 q 431 180 465 218 q 366 110 397 142 q 309 54 334 78 q 266 17 283 31 q 240 4 248 4 q 232 9 235 4 q 228 20 229 14 q 225 32 226 26 q 225 40 225 38 q 233 158 225 100 q 252 275 241 217 q 270 392 262 334 q 278 510 278 450 q 273 550 278 530 q 256 588 269 571 q 222 616 243 605 q 168 627 201 627 q 111 615 138 627 q 65 586 85 604 q 35 544 46 568 q 24 496 24 521 q 41 441 24 465 q 85 411 58 417 l 83 406 q 54 417 69 408 q 27 440 39 427 q 7 471 15 454 q 0 507 0 488 q 19 573 0 544 q 65 623 37 602 q 125 653 93 643 q 186 664 158 664 q 239 655 214 664 q 281 628 263 646 q 309 580 299 609 q 319 510 319 551 q 311 400 319 458 q 293 283 303 343 q 275 164 283 224 q 267 46 267 104 m 599 517 q 599 477 599 498 q 602 435 600 456 q 651 528 632 484 q 671 604 671 572 q 670 615 671 609 q 666 627 669 621 q 660 636 664 632 q 650 640 656 640 q 621 627 631 640 q 606 594 610 614 q 600 554 601 575 q 599 517 599 533 z "},"X":{"ha":782,"x_min":0,"x_max":1310,"o":"m 1305 875 q 1286 892 1299 881 q 1254 915 1273 903 q 1208 934 1234 926 q 1149 942 1182 942 q 1037 909 1091 942 q 932 821 983 877 q 831 691 880 765 q 736 534 783 617 q 644 364 689 451 q 554 195 598 277 q 567 105 560 146 q 585 34 574 64 q 608 -13 595 4 q 642 -29 622 -29 q 672 -21 656 -29 q 703 -3 688 -13 q 729 17 718 7 q 745 31 740 27 l 747 29 q 738 15 745 24 q 720 -6 730 5 q 696 -30 709 -18 q 670 -52 684 -42 q 643 -69 656 -62 q 619 -75 630 -75 q 582 -60 597 -75 q 554 -18 566 -45 q 534 46 542 9 q 519 129 526 84 q 445 4 481 62 q 372 -97 408 -54 q 299 -165 335 -140 q 227 -189 263 -189 q 178 -177 200 -189 q 140 -147 157 -164 q 113 -113 124 -130 q 96 -87 102 -96 l 102 -82 q 123 -103 111 -92 q 150 -122 134 -113 q 185 -137 165 -132 q 231 -143 205 -143 q 300 -119 265 -143 q 369 -52 334 -94 q 440 48 404 -9 q 513 172 476 106 q 497 316 505 240 q 478 465 489 391 q 450 607 467 539 q 405 726 433 675 q 338 808 378 778 q 241 839 298 839 q 149 819 186 839 q 87 766 111 798 q 53 693 64 733 q 43 614 43 653 q 50 552 43 579 q 68 504 57 525 q 95 470 80 484 q 126 449 110 456 l 122 440 q 77 458 99 444 q 38 492 56 471 q 11 542 21 513 q 0 604 0 570 q 23 712 0 662 q 83 800 46 763 q 166 859 120 838 q 258 880 212 880 q 360 851 317 880 q 432 774 402 823 q 481 661 462 725 q 513 526 500 597 q 534 381 526 454 q 550 240 543 307 q 638 410 593 322 q 730 580 683 497 q 826 738 777 663 q 926 868 875 812 q 1033 956 978 924 q 1146 989 1088 989 q 1210 978 1182 989 q 1257 950 1237 966 q 1290 914 1277 933 q 1310 879 1303 895 l 1305 875 z "},"Y":{"ha":534,"x_min":0,"x_max":1063,"o":"m 138 549 q 96 557 120 551 q 51 577 73 563 q 15 617 30 592 q 0 681 0 642 q 15 744 0 717 q 53 789 29 771 q 106 816 77 807 q 167 825 136 825 q 253 808 216 825 q 316 761 290 791 q 361 692 343 731 q 389 608 378 652 q 404 518 399 564 q 410 429 409 473 q 450 566 426 495 q 507 703 474 636 q 580 831 539 770 q 671 937 621 892 q 782 1009 722 983 q 913 1036 842 1036 q 968 1028 941 1036 q 1016 1004 995 1020 q 1050 963 1037 987 q 1063 907 1063 939 q 1047 833 1063 866 q 1009 776 1031 800 q 965 735 987 751 q 930 711 943 719 l 925 718 q 953 739 937 726 q 985 772 970 752 q 1011 819 1000 791 q 1022 885 1022 847 q 1015 924 1022 905 q 994 960 1008 944 q 957 986 979 976 q 904 996 935 996 q 771 967 831 996 q 660 890 710 939 q 571 778 610 842 q 500 642 531 713 q 447 494 469 570 q 408 349 424 419 q 405 248 407 300 q 399 146 403 195 q 392 53 396 96 q 383 -18 388 10 q 377 -31 382 -26 q 366 -41 372 -37 q 352 -47 359 -45 q 340 -49 345 -49 q 333 -46 336 -49 q 329 -37 329 -43 q 336 16 332 -16 q 345 85 340 47 q 355 164 350 123 q 363 247 359 205 q 370 325 368 288 q 372 393 372 363 q 370 475 372 431 q 359 563 367 519 q 336 648 351 607 q 296 719 321 688 q 237 769 272 750 q 154 787 202 787 q 107 780 130 787 q 67 759 84 773 q 39 723 50 745 q 29 673 29 702 q 40 623 29 643 q 67 589 51 602 q 103 567 84 575 q 140 555 123 559 l 138 549 z "},"Z":{"ha":747,"x_min":0,"x_max":1026,"o":"m 817 56 q 783 4 801 30 q 742 -41 765 -21 q 690 -75 719 -62 q 623 -87 661 -87 q 519 -74 569 -87 q 420 -43 469 -61 q 325 -8 372 -26 q 229 18 277 9 q 176 -17 203 -3 q 126 -32 149 -32 q 101 -26 112 -32 q 90 -4 90 -20 q 95 12 90 4 q 111 27 100 20 q 139 38 122 34 q 180 43 157 43 q 201 42 191 43 q 222 41 212 41 q 299 147 258 82 q 387 289 340 212 q 484 451 433 366 q 587 619 534 536 q 694 775 640 701 q 806 904 749 849 q 726 907 767 904 q 639 915 684 911 q 545 922 594 918 q 440 925 495 925 q 276 907 353 925 q 140 851 198 888 q 47 757 81 814 q 12 624 12 701 q 17 572 12 595 q 32 529 22 549 q 56 494 41 510 q 87 463 70 477 l 82 456 q 58 477 72 463 q 31 512 44 492 q 9 559 18 533 q 0 615 0 585 q 19 729 0 678 q 71 821 37 781 q 150 890 104 861 q 252 938 197 919 q 371 966 308 957 q 500 975 433 975 q 578 971 537 975 q 661 963 619 967 q 742 954 702 958 q 819 950 783 950 l 859 950 q 929 997 895 979 q 997 1014 964 1014 q 1018 1006 1010 1014 q 1026 987 1026 998 q 1007 956 1026 970 q 961 931 989 941 q 901 915 933 921 q 840 905 868 908 q 768 819 804 868 q 694 712 731 769 q 621 591 658 654 q 548 465 585 528 q 474 339 511 401 q 400 221 437 277 q 327 119 363 165 q 253 39 290 72 q 355 20 307 33 q 452 -5 404 7 q 549 -26 500 -17 q 652 -36 597 -36 q 714 -25 688 -36 q 757 0 739 -15 q 787 32 775 16 q 808 61 799 49 l 817 56 m 142 3 q 171 6 153 3 q 204 22 189 9 q 183 24 194 24 q 161 25 172 25 q 133 21 142 25 q 123 11 123 16 q 129 4 123 5 q 142 3 134 3 m 970 985 q 930 977 947 985 q 893 954 913 970 q 928 959 912 956 q 957 965 945 962 q 976 973 969 969 q 983 982 983 977 q 978 984 983 984 q 970 985 973 985 z "},"a":{"ha":349,"x_min":3,"x_max":390,"o":"m 252 235 q 240 242 245 235 q 227 257 235 249 q 207 272 219 265 q 174 279 194 279 q 121 265 145 279 q 79 228 96 250 q 51 180 61 206 q 41 131 41 154 q 60 72 41 95 q 109 49 78 49 q 150 58 132 49 q 180 82 168 67 q 176 127 176 100 q 181 175 176 157 q 192 203 185 193 q 205 217 198 214 q 216 221 212 221 q 229 214 222 221 q 236 187 236 206 q 228 137 236 163 q 204 87 219 111 q 229 57 212 66 q 268 47 246 47 q 303 56 287 47 q 335 79 320 64 q 362 112 349 93 q 386 150 375 130 l 390 147 q 368 97 382 121 q 337 54 355 73 q 299 23 319 35 q 256 12 278 12 q 219 23 239 12 q 186 64 199 35 q 138 22 165 39 q 79 5 111 5 q 47 14 62 5 q 23 35 33 22 q 8 67 14 49 q 3 106 3 85 q 18 175 3 140 q 59 237 33 210 q 117 282 84 265 q 186 300 150 300 q 230 294 212 300 q 259 280 248 288 q 275 264 270 273 q 279 252 279 256 q 270 238 279 242 q 252 235 260 235 m 195 144 q 199 106 195 122 q 214 145 209 125 q 218 179 218 165 q 212 196 218 196 q 200 181 206 196 q 195 144 195 166 z "},"b":{"ha":350,"x_min":28,"x_max":309,"o":"m 125 5 q 84 10 102 5 q 53 25 66 14 q 34 56 41 37 q 28 103 28 75 q 30 160 28 121 q 35 261 32 200 q 39 404 37 322 q 41 586 41 485 q 41 681 41 635 q 40 763 41 727 q 39 820 39 798 q 39 844 39 842 q 40 854 39 850 q 47 861 42 858 q 57 867 52 863 q 69 871 63 871 q 81 867 77 871 q 87 854 85 863 q 91 823 90 845 q 93 762 92 801 q 93 661 93 723 q 90 543 93 604 q 84 423 87 482 q 76 310 80 364 q 67 212 71 256 q 61 140 64 169 q 58 103 58 111 q 65 72 58 86 q 83 48 72 58 q 109 32 94 38 q 138 26 123 26 q 190 41 166 26 q 232 78 214 56 q 259 126 250 100 q 269 175 269 152 q 251 234 269 211 q 203 257 233 257 q 152 243 173 257 q 118 208 132 229 q 99 165 105 188 q 93 126 93 143 q 93 117 93 120 q 96 106 94 114 q 95 94 98 97 q 88 92 92 90 q 79 100 83 93 q 75 118 75 106 q 87 178 75 146 q 121 237 100 210 q 171 282 142 264 q 232 300 199 300 q 264 292 250 300 q 288 270 278 284 q 303 238 298 256 q 309 200 309 220 q 293 131 309 165 q 253 68 278 96 q 194 23 227 41 q 125 5 161 5 z "},"c":{"ha":296,"x_min":14,"x_max":261,"o":"m 180 304 q 201 302 191 304 q 221 294 212 299 q 236 281 230 289 q 241 264 241 274 q 228 226 241 242 q 199 198 215 210 q 158 175 181 185 l 154 182 q 176 197 166 189 q 191 216 184 205 q 197 241 197 227 q 185 267 197 255 q 151 278 173 278 q 112 267 130 278 q 83 238 95 256 q 64 197 71 220 q 57 151 57 174 q 63 114 57 132 q 80 82 68 96 q 110 61 92 68 q 154 53 128 53 q 198 59 179 53 q 230 73 217 66 q 256 94 245 82 l 261 90 q 229 52 248 68 q 186 25 212 37 q 126 14 161 14 q 87 20 107 14 q 51 40 67 26 q 24 74 35 53 q 14 122 14 94 q 26 191 14 158 q 61 250 39 224 q 114 290 83 275 q 180 304 144 304 z "},"d":{"ha":408,"x_min":3,"x_max":450,"o":"m 200 293 q 198 334 198 313 q 197 378 197 355 q 200 480 197 427 q 207 587 202 534 q 220 686 212 639 q 238 770 227 734 q 262 827 249 806 q 293 848 276 848 q 331 803 319 848 q 343 663 343 758 q 336 538 343 607 q 311 397 329 469 q 283 289 296 336 q 258 208 270 243 q 274 146 264 176 q 294 96 283 117 q 320 61 306 74 q 351 49 334 49 q 380 60 366 49 q 407 87 394 72 q 429 119 419 103 q 444 146 439 136 l 450 143 q 447 134 450 143 q 437 110 444 124 q 420 78 430 95 q 398 46 410 61 q 371 22 386 32 q 339 12 356 12 q 275 43 302 12 q 228 134 247 75 q 204 91 218 112 q 172 55 190 71 q 133 29 155 39 q 89 20 112 20 q 55 26 71 20 q 28 44 39 32 q 9 72 16 56 q 3 109 3 88 q 18 176 3 143 q 60 235 34 209 q 121 277 87 261 q 193 293 155 293 l 200 293 m 281 817 q 268 797 273 817 q 257 746 262 778 q 249 673 252 714 q 243 588 245 631 q 240 502 241 545 q 239 425 239 460 q 242 338 239 385 q 253 244 245 291 q 274 318 263 277 q 293 406 285 359 q 307 506 302 453 q 313 615 313 558 q 311 699 313 662 q 305 763 309 736 q 295 803 301 789 q 281 817 289 817 m 115 61 q 153 70 136 61 q 182 93 169 79 q 204 124 195 107 q 221 157 214 141 q 210 207 214 181 q 203 262 206 233 q 180 267 193 267 q 120 255 145 267 q 78 227 94 244 q 54 187 62 209 q 46 144 46 165 q 65 85 46 109 q 115 61 85 61 z "},"e":{"ha":302,"x_min":14,"x_max":345,"o":"m 215 335 q 224 323 224 333 q 222 316 224 321 q 218 308 220 312 q 213 300 216 303 q 208 297 210 297 q 200 299 205 297 q 186 305 195 302 q 163 310 178 308 q 126 313 149 313 q 72 300 94 313 q 50 267 50 288 q 63 240 50 251 q 95 224 77 230 q 131 215 113 218 q 160 212 150 212 q 170 210 168 212 q 172 205 172 208 q 168 199 172 200 q 157 196 163 198 q 121 181 139 190 q 87 159 102 172 q 62 131 72 146 q 53 97 53 115 q 78 46 53 66 q 147 26 102 26 q 232 42 198 26 q 288 77 266 57 q 322 118 310 98 q 340 150 334 139 l 345 147 q 315 85 333 114 q 272 36 297 57 q 212 4 246 16 q 135 -8 178 -8 q 86 -2 109 -8 q 47 16 64 5 q 22 45 31 28 q 14 83 14 62 q 25 127 14 109 q 52 157 37 145 q 81 175 66 169 q 102 184 96 182 q 64 196 81 188 q 39 217 51 203 q 28 253 28 230 q 38 291 28 274 q 65 320 48 309 q 105 338 83 332 q 154 345 128 345 q 184 342 169 345 q 215 335 199 340 z "},"f":{"ha":229,"x_min":17,"x_max":277,"o":"m 94 -503 q 61 -494 76 -503 q 37 -464 47 -486 q 22 -406 27 -442 q 17 -313 17 -369 q 17 -101 17 -191 q 17 55 17 -11 q 18 167 18 121 q 18 249 18 213 q 18 314 18 284 q 18 375 18 343 q 22 482 18 427 q 35 591 26 538 q 57 693 43 645 q 90 778 71 741 q 134 836 109 814 q 191 857 159 857 q 215 849 203 857 q 237 826 227 842 q 253 786 247 810 q 258 730 258 762 q 247 617 258 675 q 216 504 235 559 q 174 397 197 448 q 129 304 151 347 q 89 232 107 262 q 61 187 71 201 q 61 182 61 185 q 60 173 60 179 q 60 155 60 166 q 61 125 60 144 q 70 90 63 105 q 88 64 77 75 q 111 48 98 54 q 136 43 123 43 q 184 54 163 43 q 221 82 205 65 q 250 121 237 100 q 272 163 262 142 l 277 160 q 259 119 271 144 q 231 71 248 94 q 189 30 214 47 q 132 12 165 12 q 112 14 123 12 q 89 22 100 16 q 120 -61 106 -20 q 145 -146 134 -102 q 161 -237 155 -189 q 167 -342 167 -285 q 161 -407 167 -378 q 146 -458 155 -437 q 123 -491 136 -479 q 94 -503 109 -503 m 64 379 q 63 337 64 359 q 62 293 63 315 q 61 252 62 272 q 61 218 61 233 q 89 272 73 240 q 124 342 106 304 q 159 425 142 380 q 190 515 176 469 q 213 608 204 561 q 221 701 221 656 q 219 748 221 726 q 210 786 216 770 q 192 812 203 802 q 163 822 181 822 q 129 805 144 822 q 103 756 114 787 q 85 684 92 726 q 73 592 77 642 q 66 489 68 543 q 64 379 64 434 m 139 -318 q 132 -216 139 -264 q 115 -122 125 -167 q 90 -34 104 -77 q 61 49 75 8 l 61 -66 q 61 -164 61 -115 q 61 -259 60 -214 q 63 -344 62 -304 q 68 -412 65 -383 q 78 -458 72 -441 q 94 -475 85 -475 q 113 -467 104 -475 q 127 -441 121 -459 q 136 -393 133 -423 q 139 -318 139 -363 z "},"g":{"ha":350,"x_min":11,"x_max":315,"o":"m 239 298 q 271 296 258 298 q 291 289 283 293 q 301 279 298 284 q 304 269 304 274 q 297 252 304 262 q 285 243 290 243 q 278 245 282 243 q 265 250 273 248 q 244 255 256 252 q 212 257 231 257 q 92 223 134 257 q 49 129 49 189 q 53 106 49 119 q 67 84 58 94 q 91 67 76 74 q 126 60 105 60 q 194 75 166 60 q 241 109 222 90 q 242 115 241 112 q 244 121 243 117 q 257 164 249 144 q 273 198 264 184 q 291 221 282 213 q 306 229 300 229 q 314 224 313 229 q 315 216 315 220 q 301 176 315 204 q 264 117 288 148 q 253 35 258 84 q 243 -79 248 -15 q 235 -219 238 -142 q 232 -380 232 -295 q 235 -518 232 -452 q 240 -635 237 -584 q 246 -717 243 -686 q 249 -751 249 -749 q 247 -766 249 -761 q 240 -777 245 -771 q 230 -785 236 -781 q 218 -790 224 -790 q 207 -785 210 -790 q 198 -765 203 -780 q 190 -715 193 -750 q 183 -620 186 -680 q 180 -463 180 -559 q 186 -297 180 -377 q 200 -148 191 -218 q 218 -18 208 -77 q 237 86 229 41 q 175 38 209 58 q 102 18 140 18 q 67 23 84 18 q 38 39 51 28 q 18 66 26 50 q 11 104 11 83 q 27 168 11 134 q 74 231 44 202 q 146 279 104 260 q 239 298 189 298 m 277 168 q 272 158 274 165 q 268 142 270 151 q 273 148 271 145 q 276 152 275 150 q 278 157 277 155 q 282 172 281 166 q 283 177 283 176 q 277 168 282 177 z "},"h":{"ha":294,"x_min":28,"x_max":309,"o":"m 28 103 q 30 160 28 121 q 35 261 32 200 q 39 404 37 322 q 41 586 41 485 q 41 681 41 635 q 40 763 41 727 q 39 820 39 798 q 39 844 39 842 q 40 854 39 850 q 47 861 42 858 q 57 867 52 863 q 69 871 63 871 q 81 867 77 871 q 87 854 85 863 q 91 823 90 845 q 93 762 92 801 q 93 661 93 723 q 90 543 93 604 q 84 423 87 482 q 76 310 80 364 q 67 212 71 256 q 61 140 64 169 q 58 103 58 111 q 58 95 58 100 q 59 86 58 90 q 61 78 60 81 q 65 75 62 75 q 79 97 72 75 q 98 155 87 119 q 115 202 106 178 q 135 245 125 226 q 157 277 146 264 q 179 289 168 289 q 193 284 187 289 q 203 272 199 279 q 209 257 207 265 q 212 241 211 249 q 214 217 213 233 q 217 180 216 201 q 220 136 218 159 q 224 92 222 113 q 242 37 227 54 q 281 20 257 20 q 296 21 290 20 q 306 22 301 22 q 307 16 309 22 q 296 6 306 13 q 260 0 286 0 q 223 7 238 0 q 200 30 209 14 q 188 70 192 45 q 182 129 183 94 q 179 170 180 149 q 176 209 178 191 q 170 238 174 227 q 158 249 165 249 q 144 235 152 249 q 130 202 137 221 q 117 165 123 184 q 107 136 111 146 q 99 109 104 128 q 86 71 94 90 q 70 36 79 51 q 52 21 61 21 q 39 30 43 21 q 32 53 34 39 q 28 80 29 66 q 28 103 28 94 z "},"i":{"ha":176,"x_min":21,"x_max":224,"o":"m 46 282 q 57 279 52 282 q 65 273 62 276 q 72 266 69 269 q 74 261 74 262 q 72 254 74 260 q 68 233 71 248 q 64 194 66 218 q 62 134 62 170 q 74 66 62 85 q 103 47 86 47 q 137 58 120 47 q 168 84 153 68 q 196 121 183 100 q 220 163 210 142 l 224 160 q 216 139 221 153 q 202 109 210 125 q 183 76 194 93 q 157 44 172 58 q 125 21 142 31 q 87 12 108 12 q 61 18 73 12 q 40 38 50 23 q 26 78 31 52 q 21 144 21 104 q 23 190 21 165 q 27 234 24 214 q 35 269 31 255 q 46 282 40 282 m 62 450 q 87 438 79 450 q 94 410 94 427 q 83 379 94 390 q 57 368 73 368 q 35 377 45 368 q 24 406 24 386 q 35 439 24 427 q 62 450 45 450 z "},"j":{"ha":178,"x_min":-138,"x_max":207,"o":"m -138 -524 q -124 -402 -138 -455 q -87 -305 -111 -350 q -34 -220 -64 -260 q 32 -134 -3 -179 q 30 -71 31 -101 q 27 -9 28 -41 q 26 61 26 24 q 25 146 25 98 q 26 184 25 159 q 27 232 26 208 q 28 275 28 256 q 29 296 29 294 q 32 307 29 302 q 36 314 34 312 q 43 321 38 317 q 53 330 47 326 q 64 337 59 334 q 71 340 68 340 q 76 338 75 340 q 77 334 77 335 q 76 318 77 332 q 73 277 75 303 q 70 216 71 252 q 69 139 69 181 q 70 65 69 97 q 71 8 70 33 q 73 -38 72 -17 q 75 -78 74 -58 q 136 13 106 -36 q 197 125 167 62 l 207 115 q 142 -7 176 45 q 77 -103 109 -59 q 79 -162 78 -130 q 79 -243 79 -195 q 68 -422 79 -345 q 39 -550 57 -499 q -3 -627 20 -602 q -53 -653 -27 -653 q -85 -645 -69 -653 q -112 -620 -100 -636 q -131 -579 -123 -604 q -138 -524 -138 -555 m 35 -264 q 34 -208 35 -233 q 33 -160 33 -183 q -18 -232 5 -197 q -60 -306 -42 -267 q -88 -391 -78 -345 q -98 -496 -98 -437 q -95 -538 -98 -515 q -84 -579 -92 -560 q -64 -610 -76 -598 q -35 -623 -52 -623 q -10 -608 -21 -623 q 8 -568 1 -593 q 21 -508 16 -543 q 29 -433 26 -473 q 33 -350 32 -393 q 35 -264 35 -307 m 64 489 q 89 478 79 489 q 98 446 98 467 q 87 411 98 422 q 61 400 76 400 q 40 409 51 400 q 29 441 29 418 q 40 476 29 463 q 64 489 50 489 z "},"k":{"ha":321,"x_min":17,"x_max":296,"o":"m 26 16 q 21 19 24 16 q 17 28 17 22 q 21 46 17 37 q 33 66 26 54 l 33 139 q 31 212 33 158 q 29 363 29 267 q 33 470 29 414 q 46 579 37 526 q 68 681 54 633 q 101 765 81 729 q 145 823 120 802 q 201 844 170 844 q 226 837 214 844 q 248 813 238 829 q 263 774 258 798 q 269 718 269 750 q 258 608 269 664 q 228 497 246 551 q 188 392 210 442 q 144 301 165 342 q 104 228 122 259 q 75 180 85 197 q 74 152 74 166 q 74 126 74 138 q 110 176 89 148 q 154 228 130 203 q 204 269 178 252 q 256 286 230 286 q 287 277 279 286 q 296 253 296 269 q 285 215 296 233 q 258 182 274 197 q 223 155 242 168 q 189 134 205 143 q 162 119 173 125 q 151 111 151 113 q 163 97 151 106 q 190 81 175 89 q 217 66 205 73 q 231 60 229 60 q 239 56 235 58 q 243 50 243 54 q 241 44 243 49 q 235 35 239 39 q 227 26 232 30 q 216 22 222 22 q 187 31 205 22 q 154 50 170 39 q 127 74 138 60 q 117 97 117 87 q 120 106 117 100 q 131 115 123 112 q 142 122 133 116 q 165 137 152 128 q 193 157 178 146 q 220 181 208 169 q 241 206 233 194 q 249 229 249 218 q 243 246 249 239 q 224 253 237 253 q 204 248 214 253 q 182 234 193 242 q 160 214 171 225 q 139 191 149 203 q 117 161 130 180 q 93 124 104 143 q 72 90 81 106 q 61 68 62 74 q 58 54 60 62 q 52 37 56 45 q 42 22 48 28 q 26 16 36 16 m 72 367 q 73 326 72 347 q 74 284 73 305 q 75 245 74 264 q 75 211 75 226 q 120 298 94 245 q 172 416 146 352 q 214 551 197 481 q 232 689 232 622 q 230 735 232 713 q 221 774 227 758 q 203 800 215 790 q 174 810 192 810 q 140 792 155 810 q 113 744 125 774 q 94 671 102 713 q 81 579 86 629 q 74 476 77 530 q 72 367 72 422 z "},"l":{"ha":233,"x_min":-8,"x_max":273,"o":"m 273 147 q 263 122 272 142 q 238 78 254 101 q 200 36 222 54 q 150 17 178 17 q 85 44 114 17 q 35 122 56 72 q 3 245 14 173 q -8 406 -8 317 q -5 508 -8 454 q 6 614 -1 562 q 25 714 14 667 q 52 798 36 762 q 88 855 67 833 q 134 876 109 876 q 188 831 171 876 q 205 690 205 785 q 197 566 205 635 q 170 425 189 497 q 116 270 144 334 q 68 168 87 206 q 84 120 75 142 q 105 82 94 98 q 130 58 117 66 q 160 49 144 49 q 198 61 180 49 q 230 90 216 73 q 254 123 243 106 q 269 150 264 140 l 273 147 m 33 453 q 35 392 33 425 q 40 325 37 359 q 48 257 43 291 q 61 192 54 223 q 95 269 75 222 q 132 374 114 315 q 162 501 150 433 q 175 643 175 570 q 171 727 175 689 q 160 793 168 766 q 141 836 153 821 q 115 851 130 851 q 90 831 101 851 q 69 779 78 811 q 53 704 60 746 q 42 618 46 662 q 35 531 37 574 q 33 453 33 488 z "},"m":{"ha":471,"x_min":1,"x_max":427,"o":"m 36 347 q 46 351 40 351 q 65 339 58 351 q 72 293 72 327 q 72 265 72 283 q 72 225 72 247 q 71 182 71 204 q 71 140 71 159 q 71 107 71 121 q 71 89 71 93 q 75 74 71 74 q 82 82 78 74 q 93 104 87 91 q 105 135 98 118 q 119 168 112 151 q 141 219 132 195 q 160 259 151 242 q 179 286 169 277 q 204 296 190 296 q 233 278 224 296 q 241 218 241 260 q 241 179 241 202 q 241 134 241 155 q 240 95 241 112 q 240 75 240 78 q 241 66 240 66 q 246 73 243 66 q 253 92 249 80 q 263 118 258 103 q 275 150 269 134 q 296 206 288 182 q 313 246 305 230 q 330 271 321 262 q 349 279 338 279 q 358 278 351 279 q 371 274 364 277 q 382 263 378 270 q 387 243 387 256 q 388 214 387 235 q 390 166 389 192 q 392 117 391 141 q 395 82 393 94 q 401 57 395 66 q 412 42 406 48 q 422 34 417 37 q 427 29 427 31 q 418 23 427 26 q 401 20 410 20 q 364 36 375 20 q 350 81 353 52 q 348 147 347 109 q 345 229 348 185 q 342 240 343 237 q 335 244 340 244 q 324 233 330 244 q 311 204 318 221 q 297 166 304 186 q 283 127 290 146 q 272 96 279 115 q 257 57 265 76 q 241 25 250 39 q 222 12 232 12 q 208 20 212 12 q 202 45 203 28 q 201 88 201 62 q 201 151 201 115 l 201 228 q 197 251 201 247 q 187 256 193 256 q 174 249 180 256 q 161 225 169 243 q 152 202 158 218 q 137 168 145 187 q 120 129 129 149 q 103 90 111 108 q 89 57 95 71 q 79 39 82 43 q 64 23 71 27 q 50 20 58 20 q 43 21 47 20 q 36 27 39 23 q 30 40 33 32 q 28 62 28 49 l 28 294 q 24 314 28 309 q 15 320 20 319 q 5 321 9 321 q 1 325 1 321 q 6 332 1 328 q 18 339 12 336 q 29 344 24 342 q 36 347 35 347 z "},"n":{"ha":309,"x_min":25,"x_max":320,"o":"m 58 302 q 64 297 62 302 q 67 284 66 292 q 68 268 68 277 q 68 253 68 260 q 67 217 68 235 q 65 181 66 198 q 63 149 64 163 q 62 125 62 134 q 64 97 62 107 q 71 86 65 86 q 79 95 74 86 q 91 116 85 104 q 104 143 98 129 q 115 168 110 157 q 131 200 122 182 q 149 232 139 217 q 169 258 158 248 q 191 268 179 268 q 204 264 198 268 q 214 253 210 260 q 220 240 218 247 q 224 227 222 233 q 228 177 226 211 q 235 106 231 144 q 253 51 238 68 q 292 33 268 33 q 307 35 301 33 q 317 36 313 36 q 318 29 320 36 q 315 25 317 28 q 307 20 313 23 q 293 16 302 18 q 271 14 283 14 q 235 21 249 14 q 212 43 220 28 q 199 84 203 59 q 193 143 195 109 q 191 175 192 159 q 188 202 190 190 q 181 221 185 214 q 170 228 177 228 q 155 216 163 228 q 138 187 146 203 q 123 153 130 170 q 111 125 116 135 q 86 73 96 93 q 65 33 77 52 q 58 24 62 28 q 49 21 54 21 q 36 35 41 21 q 29 66 31 48 q 26 101 26 83 q 25 129 25 119 q 25 155 25 140 q 26 186 26 171 q 27 213 27 201 q 28 229 28 225 q 27 240 28 233 q 27 255 27 248 q 27 268 27 262 q 26 275 26 273 q 30 284 26 281 q 36 290 33 288 q 47 297 39 292 q 58 302 54 302 z "},"o":{"ha":306,"x_min":14,"x_max":264,"o":"m 139 43 q 171 50 155 43 q 199 71 186 57 q 218 105 211 85 q 225 153 225 125 q 220 195 225 175 q 204 230 214 215 q 177 254 193 245 q 138 262 160 262 q 106 257 122 262 q 79 238 91 251 q 59 207 66 226 q 52 160 52 187 q 57 118 52 138 q 73 80 62 97 q 100 53 83 63 q 139 43 117 43 m 115 8 q 42 38 71 8 q 14 123 14 67 q 28 194 14 161 q 65 249 42 226 q 115 286 87 273 q 170 298 143 298 q 238 269 212 298 q 264 183 264 240 q 251 113 264 145 q 216 58 237 81 q 168 21 195 35 q 115 8 142 8 z "},"p":{"ha":332,"x_min":-134,"x_max":304,"o":"m 77 410 q 79 396 80 410 q 76 362 78 383 q 71 317 73 342 q 68 268 68 292 q 69 178 68 220 q 72 96 70 136 q 118 163 94 133 q 165 216 141 194 q 212 249 189 237 q 260 261 236 261 q 292 251 279 261 q 304 214 304 240 q 297 175 304 195 q 276 137 289 156 q 246 99 262 117 q 212 64 229 81 q 121 -9 172 26 l 114 -1 q 186 66 154 33 q 212 96 199 81 q 235 126 225 111 q 252 156 245 142 q 258 182 258 170 q 257 193 258 186 q 252 206 256 199 q 240 217 248 212 q 220 221 233 221 q 186 210 204 221 q 150 179 169 199 q 112 131 132 159 q 74 66 93 102 q 80 -28 77 18 q 86 -118 83 -73 q 91 -210 90 -163 q 93 -309 93 -257 q 80 -517 93 -428 q 46 -667 66 -607 q -1 -757 25 -727 q -53 -787 -27 -787 q -82 -775 -68 -787 q -108 -740 -97 -763 q -126 -682 -119 -716 q -134 -604 -134 -648 q -121 -461 -134 -540 q -87 -300 -109 -382 q -35 -136 -65 -218 q 29 17 -5 -54 l 29 85 q 36 225 29 165 q 50 327 42 286 q 66 389 58 368 q 77 410 74 410 m 45 -336 q 43 -236 45 -277 q 39 -163 41 -196 q 34 -98 37 -130 q 31 -21 32 -65 q -18 -146 5 -79 q -57 -284 -40 -213 q -84 -428 -75 -355 q -94 -570 -94 -500 q -92 -629 -94 -596 q -82 -690 -89 -661 q -63 -738 -75 -718 q -35 -757 -52 -757 q -9 -740 -21 -757 q 11 -693 2 -723 q 26 -623 20 -663 q 37 -536 33 -583 q 43 -438 41 -489 q 45 -336 45 -387 z "},"q":{"ha":342,"x_min":3,"x_max":355,"o":"m 200 290 q 206 363 203 336 q 212 390 209 390 q 223 387 218 390 q 232 381 229 385 q 238 374 236 377 q 240 370 240 370 q 239 340 240 362 q 239 285 239 318 q 282 264 264 279 q 300 224 300 249 q 289 188 300 203 q 258 160 277 174 l 249 163 q 258 187 254 176 q 261 207 261 197 q 255 232 261 222 q 237 250 248 243 q 235 114 236 191 q 232 -49 234 37 q 268 -122 251 -88 q 298 -188 284 -155 q 322 -252 312 -220 q 340 -321 333 -284 q 352 -401 348 -357 q 355 -498 355 -444 q 354 -537 355 -515 q 348 -581 352 -558 q 336 -625 343 -604 q 318 -664 329 -647 q 291 -691 307 -680 q 254 -701 275 -701 q 201 -655 220 -701 q 183 -532 183 -609 q 184 -414 183 -483 q 185 -267 184 -345 q 188 -106 186 -189 q 192 54 190 -23 q 177 37 186 46 q 156 19 168 27 q 129 5 144 11 q 94 0 113 0 q 62 6 79 0 q 33 26 46 13 q 11 60 20 39 q 3 109 3 80 q 20 177 3 144 q 64 235 37 210 q 126 275 92 260 q 197 290 161 290 l 200 290 m 317 -519 q 314 -413 317 -460 q 307 -327 312 -366 q 296 -258 302 -289 q 279 -198 289 -227 q 258 -141 270 -169 q 232 -83 246 -114 q 230 -212 231 -148 q 228 -338 229 -277 q 227 -454 227 -399 q 227 -553 227 -509 q 238 -652 227 -618 q 265 -686 250 -686 q 293 -670 282 -686 q 308 -629 303 -654 q 315 -575 313 -605 q 317 -519 317 -546 m 192 71 q 195 174 194 125 q 199 262 197 222 q 188 263 193 262 q 176 264 182 264 q 121 253 146 264 q 80 223 97 241 q 55 183 64 205 q 46 138 46 161 q 50 100 46 118 q 63 68 54 82 q 87 47 73 55 q 121 39 101 39 q 165 50 148 39 q 192 71 183 61 z "},"r":{"ha":319,"x_min":7,"x_max":361,"o":"m 151 286 q 178 279 168 286 q 194 262 189 272 q 200 242 199 252 q 201 225 201 232 q 199 199 201 217 q 195 163 197 182 q 191 127 193 144 q 189 106 189 111 q 191 81 189 92 q 199 61 193 70 q 214 47 204 52 q 239 43 223 43 q 298 71 267 43 q 357 150 330 100 l 361 147 q 338 96 353 122 q 302 48 322 70 q 258 13 281 26 q 214 -1 235 -1 q 184 6 195 -1 q 167 26 173 14 q 159 52 161 38 q 157 78 157 66 q 159 113 157 93 q 165 153 162 133 q 171 191 168 173 q 174 218 174 208 q 171 233 174 227 q 163 241 168 238 q 153 245 158 244 q 146 245 149 245 q 126 243 138 245 q 93 241 115 241 q 81 242 87 241 q 68 244 75 243 q 59 193 66 218 q 45 146 53 168 q 29 110 37 125 q 16 89 21 95 q 7 97 7 89 q 14 114 7 101 q 28 146 20 126 q 43 193 36 165 q 52 253 50 220 q 20 318 20 271 q 25 340 20 331 q 40 349 30 349 q 61 331 55 349 q 69 285 68 314 q 78 283 74 283 q 89 282 83 282 q 122 284 106 282 q 151 286 137 286 m 47 302 q 50 297 47 300 q 49 304 50 300 q 48 309 49 307 q 47 314 47 312 q 44 312 45 314 q 47 302 43 310 z "},"s":{"ha":229,"x_min":-3,"x_max":178,"o":"m -3 82 q 39 157 20 119 q 69 232 57 195 q 42 279 53 255 q 31 329 31 303 q 35 374 31 354 q 48 409 40 395 q 66 431 56 423 q 87 439 77 439 q 112 424 102 439 q 119 386 121 409 q 112 328 118 359 q 96 264 106 296 q 124 233 109 248 q 150 201 138 218 q 170 166 162 185 q 178 126 178 148 q 166 71 178 96 q 140 28 155 46 q 107 -1 124 9 q 78 -11 90 -11 q 46 0 57 -11 q 35 24 35 11 q 38 44 35 34 q 46 63 41 54 q 55 77 50 71 q 61 82 59 82 q 65 80 64 82 q 66 75 66 77 q 66 66 66 72 q 65 56 65 60 q 73 37 65 44 q 98 29 81 29 q 115 33 106 29 q 134 43 125 36 q 148 62 142 51 q 154 89 154 73 q 147 119 154 103 q 130 151 140 134 q 105 184 119 167 q 79 218 92 201 q 45 143 64 180 q 5 77 26 107 l -3 82 m 49 364 q 58 318 49 338 q 83 279 68 298 q 91 320 89 300 q 93 357 93 339 q 72 404 93 404 q 57 395 66 404 q 49 364 49 386 z "},"t":{"ha":224,"x_min":-187,"x_max":345,"o":"m 264 147 q 249 111 259 134 q 221 65 239 87 q 179 28 204 43 q 122 14 155 12 q 73 31 93 16 q 41 76 54 45 q 24 154 29 107 q 18 268 18 201 q 22 383 18 332 q 31 473 25 434 q -24 472 -1 472 q -57 472 -47 472 q -96 475 -77 472 q -132 484 -115 477 q -163 502 -149 491 q -187 530 -178 513 l -184 536 q -178 530 -184 535 q -157 519 -172 525 q -117 510 -142 514 q -50 505 -91 505 l 35 505 q 57 596 45 566 q 72 635 68 627 q 88 654 77 646 q 106 663 98 663 q 129 635 120 663 q 138 551 138 608 q 137 530 138 541 q 136 507 136 519 q 198 509 169 508 q 251 510 228 509 q 291 511 275 511 q 311 513 307 512 q 323 513 315 513 q 334 514 331 514 q 345 507 345 514 q 339 490 345 498 q 315 481 333 482 q 295 480 312 480 q 254 479 279 479 q 197 477 229 478 q 134 475 166 476 q 109 349 127 417 q 60 203 92 281 q 67 128 62 158 q 81 80 73 98 q 103 55 90 62 q 135 47 117 47 q 172 55 155 47 q 202 74 189 62 q 227 98 216 85 q 244 123 237 111 q 255 142 252 134 q 260 150 259 149 l 264 147 m 107 475 q 85 474 96 475 q 62 473 74 473 q 59 394 60 435 q 58 317 58 353 l 58 240 q 91 360 78 302 q 107 475 103 418 m 65 505 q 87 506 76 505 q 110 507 98 507 l 110 530 q 108 585 110 564 q 103 616 106 605 q 98 631 101 627 q 93 635 95 635 q 83 625 87 635 q 76 597 79 614 q 70 556 73 580 q 65 505 67 532 z "},"u":{"ha":335,"x_min":0,"x_max":315,"o":"m 210 139 q 210 151 210 144 q 210 164 210 157 q 211 176 210 171 q 211 183 211 181 q 209 189 211 188 q 205 182 208 191 q 200 166 204 179 q 189 135 196 153 q 171 97 181 117 q 146 59 160 76 q 114 30 132 41 q 75 18 96 18 q 30 36 43 18 q 17 87 17 53 q 19 117 17 98 q 24 157 21 136 q 28 196 26 178 q 31 225 31 215 q 16 254 31 254 q 9 254 12 254 q 5 253 7 253 q 0 258 0 253 q 6 266 0 260 q 31 271 12 271 q 61 254 52 271 q 69 216 69 238 q 67 190 69 207 q 64 153 66 172 q 60 117 62 134 q 58 92 58 100 q 67 55 58 66 q 90 45 75 45 q 118 56 104 45 q 144 83 132 67 q 165 116 156 99 q 179 144 174 133 q 189 177 184 159 q 196 213 193 195 q 203 247 200 231 q 208 275 205 263 q 221 284 210 281 q 244 286 233 286 q 250 282 250 286 q 250 236 250 265 q 249 176 249 207 q 258 67 249 100 q 294 33 267 33 q 305 35 300 33 q 313 36 309 36 q 315 33 315 36 q 315 33 315 35 q 312 25 315 30 q 301 17 309 21 q 275 14 292 14 q 245 20 257 14 q 226 41 233 26 q 215 80 218 56 q 210 139 211 104 z "},"v":{"ha":290,"x_min":-11,"x_max":332,"o":"m 93 33 q 117 45 103 33 q 147 76 132 56 q 176 121 162 96 q 200 175 191 146 q 168 208 179 186 q 157 253 157 230 q 160 280 157 267 q 171 303 164 293 q 186 318 178 313 q 204 323 195 323 q 227 311 217 323 q 236 268 236 298 q 232 234 236 254 q 221 193 229 215 l 235 193 q 264 199 251 193 q 289 214 278 205 q 309 235 300 223 q 323 260 317 248 l 332 256 q 319 231 328 246 q 298 202 311 216 q 268 178 285 189 q 229 168 250 168 q 221 168 225 168 q 212 170 217 168 q 186 110 201 140 q 152 57 170 81 q 112 19 133 33 q 68 4 90 4 q 52 6 59 4 q 40 15 45 7 q 31 39 35 23 q 24 82 27 54 q 21 152 22 110 q 20 253 20 193 q 4 282 20 282 q -2 281 1 282 q -5 281 -4 281 q -11 286 -11 281 q -2 293 -11 288 q 25 298 6 298 q 54 289 47 298 q 61 257 61 279 q 62 161 61 200 q 65 98 63 123 q 70 60 67 73 q 76 41 73 47 q 84 34 80 35 q 93 33 88 33 m 174 258 q 181 223 174 239 q 205 199 188 207 q 211 223 209 211 q 212 248 212 235 q 212 262 212 254 q 209 276 211 270 q 203 286 207 282 q 192 290 199 290 q 179 281 184 290 q 174 258 174 272 z "},"w":{"ha":458,"x_min":18,"x_max":529,"o":"m 239 0 q 215 16 223 0 q 201 57 206 33 q 194 110 197 81 q 189 163 192 138 q 182 203 186 187 q 170 220 178 220 q 155 208 163 220 q 138 180 146 196 q 123 148 130 164 q 111 121 116 131 q 98 93 104 105 q 87 71 92 81 q 76 51 81 60 q 65 33 71 42 q 57 24 62 28 q 46 21 52 21 q 33 35 38 21 q 26 66 28 48 q 23 101 24 83 q 22 129 22 119 q 23 155 22 140 q 24 186 23 171 q 25 213 24 201 q 25 229 25 225 q 24 250 25 241 q 22 262 23 258 q 19 270 20 267 q 18 273 18 272 q 24 283 18 279 q 33 290 30 288 q 44 297 37 292 q 56 302 52 302 q 61 297 59 302 q 64 284 63 292 q 65 268 65 277 q 65 253 65 260 q 64 217 65 235 q 62 181 63 198 q 60 149 61 163 q 60 125 60 134 q 61 95 60 107 q 68 82 62 82 q 77 91 71 82 q 90 113 83 100 q 103 140 96 125 q 115 164 110 154 q 130 194 122 178 q 146 225 138 211 q 165 250 155 240 q 187 260 176 260 q 210 249 203 260 q 220 220 216 238 q 222 196 220 213 q 225 158 223 179 q 231 114 228 137 q 238 73 233 92 q 248 41 242 54 q 261 29 254 29 q 283 39 271 29 q 308 64 295 48 q 333 102 321 81 q 355 147 345 123 q 332 181 339 160 q 325 227 325 203 q 330 264 325 248 q 341 294 334 281 q 358 313 349 306 q 375 319 367 319 q 397 303 391 319 q 404 268 404 288 q 398 224 404 250 q 380 167 392 197 q 396 162 388 163 q 414 161 404 161 q 446 165 432 161 q 473 178 460 170 q 497 201 486 187 q 521 233 509 214 l 529 229 q 508 200 520 216 q 479 169 495 184 q 442 145 463 155 q 397 135 422 135 q 370 139 382 135 q 344 87 358 113 q 313 43 330 62 q 277 12 296 24 q 239 0 258 0 m 339 244 q 346 204 339 221 q 367 175 352 186 q 376 211 372 193 q 379 245 379 229 q 361 286 379 286 q 346 275 353 286 q 339 244 339 264 z "},"x":{"ha":350,"x_min":4,"x_max":338,"o":"m 24 239 q 17 234 22 231 q 14 243 12 237 q 22 265 17 253 q 33 286 26 277 q 49 302 39 296 q 71 309 58 309 q 97 297 85 309 q 118 267 109 286 q 146 207 132 238 q 175 146 160 175 q 206 185 192 165 q 231 224 220 205 q 207 254 216 235 q 199 294 199 273 q 203 322 199 309 q 214 345 207 335 q 231 360 221 354 q 250 366 240 366 q 274 354 264 366 q 283 317 283 342 q 276 280 283 301 q 254 235 268 258 q 283 229 265 229 q 311 235 298 229 q 313 235 313 235 q 315 236 314 236 q 318 233 318 236 q 315 228 318 231 q 305 220 311 224 q 289 214 298 216 q 269 211 280 211 q 243 216 254 211 q 215 175 231 196 q 182 132 199 153 q 203 93 193 111 q 224 61 214 75 q 243 40 235 47 q 260 32 252 32 q 296 45 279 32 q 328 87 313 58 q 334 90 330 93 q 336 82 338 86 q 293 21 317 45 q 241 -3 269 -3 q 198 25 220 -3 q 153 98 176 52 q 117 65 135 80 q 83 38 100 50 q 52 20 66 26 q 25 14 37 14 q 21 14 24 14 q 14 17 18 14 q 7 25 10 20 q 4 41 4 31 q 7 57 4 49 q 14 65 9 65 q 21 62 18 65 q 26 54 24 58 q 32 46 29 50 q 39 43 35 43 q 87 62 58 43 q 146 113 115 82 q 112 183 129 145 q 75 262 95 220 q 65 274 72 269 q 53 279 58 279 q 37 270 43 279 q 24 239 30 260 m 211 301 q 219 269 211 285 q 240 243 227 254 q 254 274 249 260 q 258 301 258 289 q 253 325 258 315 q 236 335 247 335 q 218 325 224 335 q 211 301 211 315 z "},"y":{"ha":311,"x_min":-33,"x_max":258,"o":"m -33 -536 q -17 -477 -33 -496 q 24 -457 -1 -457 q 42 -462 35 -457 q 49 -475 49 -467 q 45 -479 49 -479 q 39 -478 42 -479 q 31 -476 36 -476 q 16 -483 23 -476 q 8 -510 8 -490 q 15 -558 8 -533 q 34 -603 21 -583 q 65 -636 46 -623 q 109 -650 84 -650 q 146 -635 130 -650 q 174 -595 162 -621 q 193 -535 185 -570 q 205 -461 201 -500 q 212 -378 210 -421 q 214 -292 214 -334 q 213 -215 214 -250 q 211 -151 212 -181 q 209 -91 210 -120 q 207 -31 208 -62 q 205 37 205 1 q 204 118 204 73 l 204 176 q 181 117 195 148 q 150 62 167 87 q 114 20 133 37 q 75 4 95 4 q 30 22 43 4 q 17 74 17 39 q 19 105 17 84 q 24 150 21 127 q 28 194 26 174 q 31 225 31 215 q 20 254 31 254 q 18 254 18 254 q 16 254 17 254 q 14 253 14 253 q 9 258 9 253 q 20 266 9 260 q 49 271 30 271 q 62 267 58 271 q 67 257 66 264 q 69 242 69 251 q 69 222 69 233 q 67 192 69 213 q 64 149 66 172 q 60 106 62 126 q 58 78 58 86 q 67 41 58 52 q 90 31 75 31 q 115 43 102 31 q 141 76 128 56 q 164 122 153 96 q 185 173 176 147 q 200 222 195 199 q 208 261 206 245 l 208 262 l 208 268 q 213 282 208 276 q 223 292 217 288 q 237 297 230 295 q 250 298 244 298 q 255 296 254 298 q 256 292 256 293 q 252 243 256 290 q 249 111 249 196 q 250 23 249 60 q 251 -41 250 -13 q 254 -93 252 -69 q 256 -141 255 -116 q 258 -197 257 -167 q 258 -271 258 -228 q 244 -450 258 -373 q 205 -578 229 -527 q 149 -655 180 -629 q 85 -681 118 -681 q 40 -669 62 -681 q 3 -638 19 -658 q -23 -592 -14 -618 q -33 -536 -33 -566 z "},"z":{"ha":317,"x_min":0,"x_max":361,"o":"m 151 147 q 165 135 155 146 q 190 105 176 125 q 217 55 203 85 q 240 -14 231 26 q 297 62 269 22 q 351 151 326 102 l 361 146 q 303 51 332 94 q 244 -29 274 7 q 252 -76 249 -51 q 254 -129 254 -100 q 250 -224 254 -174 q 237 -321 246 -273 q 216 -411 229 -368 q 185 -486 203 -454 q 145 -538 168 -519 q 96 -557 123 -557 q 64 -550 79 -557 q 37 -528 48 -543 q 18 -493 25 -514 q 11 -443 11 -471 q 27 -328 11 -379 q 69 -233 43 -277 q 131 -146 96 -189 q 204 -58 165 -104 q 184 18 197 -15 q 157 74 172 52 q 129 110 143 97 q 104 126 115 123 q 93 131 98 130 q 89 139 89 133 q 92 145 89 142 q 102 149 94 149 q 128 155 112 149 q 160 172 144 161 q 186 200 175 184 q 197 237 197 216 q 181 275 197 260 q 142 290 165 290 q 83 278 107 290 q 44 250 59 265 q 20 222 28 235 q 7 210 11 210 q 1 212 3 210 q 0 216 0 214 q 12 237 0 220 q 45 273 23 254 q 98 307 67 292 q 170 322 130 322 q 224 304 203 322 q 245 257 245 286 q 231 205 245 226 q 198 172 216 184 q 151 147 177 157 m 212 -158 q 211 -115 212 -135 q 207 -77 209 -96 q 146 -152 174 -115 q 96 -229 117 -189 q 62 -314 75 -269 q 50 -415 50 -359 q 54 -452 50 -433 q 65 -488 57 -472 q 84 -515 73 -505 q 114 -526 96 -526 q 153 -507 137 -526 q 180 -456 169 -488 q 198 -385 191 -425 q 207 -304 204 -345 q 211 -225 210 -263 q 212 -158 212 -186 z "},"":{"ha":406,"x_min":17,"x_max":453,"o":"m 332 47 q 365 58 349 47 q 397 84 382 68 q 426 121 412 100 q 449 163 439 142 l 453 160 q 445 139 450 153 q 431 109 439 125 q 412 76 423 93 q 386 44 401 58 q 354 21 372 31 q 317 12 337 12 q 293 16 304 12 q 274 31 282 20 q 259 61 265 42 q 252 109 254 79 q 230 74 242 91 q 203 43 218 57 q 170 21 188 29 q 132 12 153 12 q 112 14 123 12 q 89 22 100 16 q 120 -61 106 -20 q 145 -146 134 -102 q 161 -237 155 -189 q 167 -342 167 -285 q 161 -407 167 -378 q 146 -458 155 -437 q 123 -491 136 -479 q 94 -503 109 -503 q 61 -494 76 -503 q 37 -464 47 -486 q 22 -406 27 -442 q 17 -313 17 -369 l 17 151 q 18 224 17 170 q 18 375 18 279 q 22 482 18 427 q 35 591 26 538 q 57 693 43 645 q 90 778 71 741 q 134 836 109 814 q 191 857 159 857 q 215 849 203 857 q 237 826 227 842 q 253 786 247 810 q 258 730 258 762 q 247 617 258 675 q 216 504 235 559 q 174 397 197 448 q 129 304 151 347 q 89 232 107 262 q 61 187 71 201 l 61 135 q 68 96 62 113 q 86 67 75 79 q 110 49 96 55 q 136 43 123 43 q 176 51 159 43 q 207 71 193 58 q 231 101 220 84 q 250 135 241 117 q 252 185 250 159 q 257 233 254 212 q 264 268 260 254 q 275 282 269 282 q 286 279 281 282 q 295 273 291 276 q 300 266 298 269 q 302 261 302 262 q 301 254 302 260 q 297 233 299 248 q 293 194 295 218 q 292 134 292 170 q 304 66 292 85 q 332 47 316 47 m 64 379 q 63 337 64 359 q 62 293 63 315 q 61 252 62 272 q 61 218 61 233 q 89 272 73 240 q 124 342 106 304 q 159 425 142 380 q 190 515 176 469 q 213 608 204 561 q 221 701 221 656 q 219 748 221 726 q 210 786 216 770 q 192 812 203 802 q 163 822 181 822 q 129 805 144 822 q 103 756 114 787 q 85 684 92 726 q 73 592 77 642 q 66 489 68 543 q 64 379 64 434 m 139 -318 q 132 -216 139 -264 q 115 -122 125 -167 q 90 -34 104 -77 q 61 49 75 8 l 61 -66 q 61 -164 61 -115 q 61 -259 60 -214 q 63 -344 62 -304 q 68 -412 65 -383 q 78 -458 72 -441 q 94 -475 85 -475 q 113 -467 104 -475 q 127 -441 121 -459 q 136 -393 133 -423 q 139 -318 139 -363 m 292 450 q 316 438 309 450 q 323 410 323 427 q 313 379 323 390 q 286 368 302 368 q 264 377 275 368 q 253 406 253 386 q 264 439 253 427 q 292 450 275 450 z "},"":{"ha":490,"x_min":17,"x_max":530,"o":"m 416 49 q 455 61 437 49 q 487 90 473 73 q 511 123 500 106 q 526 150 521 140 l 530 147 q 520 122 529 142 q 495 78 511 101 q 457 36 479 54 q 407 17 435 17 q 338 46 369 17 q 289 125 307 75 q 261 87 278 107 q 223 51 244 68 q 179 23 203 34 q 132 12 156 12 q 112 14 123 12 q 89 22 100 16 q 120 -61 106 -20 q 145 -146 134 -102 q 161 -237 155 -189 q 167 -342 167 -285 q 161 -407 167 -378 q 146 -458 155 -437 q 123 -491 136 -479 q 94 -503 109 -503 q 61 -494 76 -503 q 37 -464 47 -486 q 22 -406 27 -442 q 17 -313 17 -369 l 17 151 q 18 224 17 170 q 18 375 18 279 q 21 482 18 427 q 31 591 24 538 q 49 693 38 645 q 77 778 60 741 q 117 836 94 814 q 170 857 140 857 q 214 826 197 857 q 231 730 231 794 q 222 636 231 684 q 200 542 214 589 q 168 450 186 495 q 131 366 150 406 q 94 292 112 326 q 61 233 76 258 l 61 125 q 70 90 63 105 q 88 64 77 75 q 111 48 98 54 q 136 43 123 43 q 183 52 161 43 q 223 76 205 61 q 257 109 242 90 q 283 146 273 127 q 258 260 267 195 q 249 406 249 326 q 252 508 249 454 q 263 614 256 562 q 282 714 271 667 q 309 798 293 762 q 345 855 324 833 q 390 876 365 876 q 445 831 428 876 q 463 690 463 785 q 454 566 463 635 q 427 425 446 497 q 373 271 401 335 q 325 170 345 208 q 363 82 340 116 q 416 49 387 49 m 290 453 q 292 392 290 425 q 297 327 294 360 q 306 259 300 293 q 319 195 311 225 q 353 272 334 225 q 390 376 372 318 q 420 503 408 435 q 432 643 432 570 q 428 727 432 689 q 417 793 425 766 q 398 836 410 821 q 372 851 387 851 q 347 831 358 851 q 326 779 335 811 q 310 704 317 746 q 299 618 303 662 q 292 531 294 574 q 290 453 290 488 m 64 379 q 63 326 64 354 q 61 272 62 298 q 104 362 81 311 q 148 469 127 412 q 180 585 168 526 q 193 701 193 644 q 191 748 193 726 q 183 788 189 770 q 169 815 178 805 q 149 825 161 825 q 116 808 130 825 q 92 759 102 790 q 77 685 83 728 q 69 593 72 643 q 65 489 66 543 q 64 379 64 434 m 139 -318 q 132 -216 139 -264 q 115 -122 125 -167 q 90 -34 104 -77 q 61 49 75 8 l 61 -66 q 61 -164 61 -115 q 61 -259 60 -214 q 63 -344 62 -304 q 68 -412 65 -383 q 78 -458 72 -441 q 94 -475 85 -475 q 113 -467 104 -475 q 127 -441 121 -459 q 136 -393 133 -423 q 139 -318 139 -363 z "},"":{"ha":458,"x_min":17,"x_max":505,"o":"m 366 43 q 413 54 393 43 q 450 82 434 65 q 479 121 467 100 q 501 163 491 142 l 505 160 q 489 119 500 144 q 460 71 477 94 q 418 30 442 47 q 361 12 393 12 q 340 14 351 12 q 318 22 330 16 q 349 -61 335 -20 q 374 -146 363 -102 q 390 -237 385 -189 q 396 -342 396 -285 q 390 -407 396 -378 q 375 -458 385 -437 q 352 -491 366 -479 q 323 -503 338 -503 q 290 -494 304 -503 q 266 -464 275 -486 q 251 -406 256 -442 q 245 -313 245 -369 l 245 98 q 224 67 236 82 q 198 39 212 52 q 167 20 184 27 q 132 12 151 12 q 112 14 123 12 q 89 22 100 16 q 120 -61 106 -20 q 145 -146 134 -102 q 161 -237 155 -189 q 167 -342 167 -285 q 161 -407 167 -378 q 146 -458 155 -437 q 123 -491 136 -479 q 94 -503 109 -503 q 61 -494 76 -503 q 37 -464 47 -486 q 22 -406 27 -442 q 17 -313 17 -369 l 17 140 q 17 190 17 167 q 18 236 18 214 q 18 283 18 259 q 18 334 18 307 q 21 441 18 385 q 31 550 24 496 q 49 652 38 604 q 77 736 60 700 q 117 794 94 772 q 170 815 140 815 q 214 784 197 815 q 231 689 231 753 q 222 595 231 643 q 200 500 214 547 q 168 408 186 453 q 131 324 150 363 q 94 251 112 284 q 61 192 76 217 l 61 123 q 89 64 66 85 q 136 43 111 43 q 174 50 157 43 q 203 68 190 57 q 227 95 216 80 q 245 126 237 110 q 246 168 245 145 q 247 221 246 191 q 247 289 247 252 q 248 375 248 327 q 252 482 248 427 q 264 591 256 538 q 286 693 273 645 q 319 778 300 741 q 362 836 338 814 q 419 857 387 857 q 444 849 432 857 q 466 826 456 842 q 481 786 475 810 q 488 730 488 762 q 476 617 488 675 q 445 504 464 559 q 403 397 426 448 q 358 304 380 347 q 318 232 336 262 q 290 187 300 201 l 290 123 q 318 64 296 85 q 366 43 340 43 m 293 379 q 293 337 293 359 q 292 293 292 315 q 291 252 291 272 q 290 218 290 233 q 318 272 302 240 q 353 342 335 304 q 388 425 371 380 q 419 515 406 469 q 442 608 433 561 q 450 701 450 656 q 448 748 450 726 q 439 786 446 770 q 421 812 433 802 q 392 822 410 822 q 358 805 373 822 q 332 756 343 787 q 314 684 321 726 q 302 592 307 642 q 295 489 297 543 q 293 379 293 434 m 149 783 q 109 756 125 783 q 84 683 94 728 q 71 579 75 637 q 65 459 66 521 q 63 338 63 398 q 61 231 62 279 q 104 320 81 270 q 148 428 127 371 q 180 544 168 484 q 193 660 193 603 q 191 707 193 684 q 183 746 189 729 q 169 773 178 763 q 149 783 161 783 m 368 -318 q 361 -216 368 -264 q 344 -122 355 -167 q 319 -34 333 -77 q 290 49 304 8 l 290 -66 q 290 -164 290 -115 q 290 -259 290 -214 q 293 -344 291 -304 q 298 -412 294 -383 q 308 -458 301 -441 q 323 -475 314 -475 q 342 -467 334 -475 q 356 -441 351 -459 q 365 -393 362 -423 q 368 -318 368 -363 m 139 -318 q 132 -216 139 -264 q 115 -122 125 -167 q 90 -34 104 -77 q 61 49 75 8 l 61 -66 q 61 -164 61 -115 q 61 -259 60 -214 q 63 -344 62 -304 q 68 -412 65 -383 q 78 -458 72 -441 q 94 -475 85 -475 q 113 -467 104 -475 q 127 -441 121 -459 q 136 -393 133 -423 q 139 -318 139 -363 z "},"":{"ha":635,"x_min":17,"x_max":682,"o":"m 561 47 q 594 58 578 47 q 626 84 611 68 q 654 121 641 100 q 677 163 667 142 l 682 160 q 674 139 680 153 q 661 109 669 125 q 641 76 652 93 q 615 44 630 58 q 584 21 601 31 q 546 12 566 12 q 523 16 534 12 q 503 31 511 20 q 489 61 494 42 q 481 109 483 79 q 459 74 471 91 q 432 43 447 57 q 399 21 416 29 q 361 12 381 12 q 340 14 351 12 q 318 22 330 16 q 349 -61 335 -20 q 374 -146 363 -102 q 390 -237 385 -189 q 396 -342 396 -285 q 390 -407 396 -378 q 375 -458 385 -437 q 352 -491 366 -479 q 323 -503 338 -503 q 290 -494 304 -503 q 266 -464 275 -486 q 251 -406 256 -442 q 245 -313 245 -369 l 245 98 q 224 67 236 82 q 198 39 212 52 q 167 20 184 27 q 132 12 151 12 q 112 14 123 12 q 89 22 100 16 q 120 -61 106 -20 q 145 -146 134 -102 q 161 -237 155 -189 q 167 -342 167 -285 q 161 -407 167 -378 q 146 -458 155 -437 q 123 -491 136 -479 q 94 -503 109 -503 q 61 -494 76 -503 q 37 -464 47 -486 q 22 -406 27 -442 q 17 -313 17 -369 l 17 140 q 17 190 17 167 q 18 236 18 214 q 18 283 18 259 q 18 334 18 307 q 21 441 18 385 q 31 550 24 496 q 49 652 38 604 q 77 736 60 700 q 117 794 94 772 q 170 815 140 815 q 214 784 197 815 q 231 689 231 753 q 222 595 231 643 q 200 500 214 547 q 168 408 186 453 q 131 324 150 363 q 94 251 112 284 q 61 192 76 217 l 61 123 q 89 64 66 85 q 136 43 111 43 q 174 50 157 43 q 203 68 190 57 q 227 95 216 80 q 245 126 237 110 q 246 185 245 157 q 247 243 246 214 q 247 304 247 272 q 248 375 248 336 q 252 482 248 427 q 264 591 256 538 q 286 693 273 645 q 319 778 300 741 q 362 836 338 814 q 419 857 387 857 q 444 849 432 857 q 466 826 456 842 q 481 786 475 810 q 488 730 488 762 q 476 617 488 675 q 445 504 464 559 q 403 397 426 448 q 358 304 380 347 q 318 232 336 262 q 290 187 300 201 l 290 123 q 318 64 296 85 q 366 43 340 43 q 405 51 388 43 q 436 71 422 58 q 460 101 450 84 q 479 135 471 117 q 481 185 479 159 q 485 233 482 212 q 493 268 488 254 q 504 282 498 282 q 515 279 510 282 q 524 273 520 276 q 530 266 528 269 q 532 261 532 262 q 530 254 532 260 q 526 233 528 248 q 523 194 524 218 q 521 134 521 170 q 533 66 521 85 q 561 47 545 47 m 293 379 q 293 337 293 359 q 292 293 292 315 q 291 252 291 272 q 290 218 290 233 q 318 272 302 240 q 353 342 335 304 q 388 425 371 380 q 419 515 406 469 q 442 608 433 561 q 450 701 450 656 q 448 748 450 726 q 439 786 446 770 q 421 812 433 802 q 392 822 410 822 q 358 805 373 822 q 332 756 343 787 q 314 684 321 726 q 302 592 307 642 q 295 489 297 543 q 293 379 293 434 m 64 338 q 63 284 64 313 q 61 231 62 256 q 104 320 81 270 q 148 428 127 371 q 180 544 168 484 q 193 660 193 603 q 191 707 193 684 q 183 746 189 729 q 169 773 178 763 q 149 783 161 783 q 116 766 130 783 q 92 717 102 748 q 77 643 83 686 q 69 551 72 601 q 65 447 66 502 q 64 338 64 393 m 368 -318 q 361 -216 368 -264 q 344 -122 355 -167 q 319 -34 333 -77 q 290 49 304 8 l 290 -66 q 290 -164 290 -115 q 290 -259 290 -214 q 293 -344 291 -304 q 298 -412 294 -383 q 308 -458 301 -441 q 323 -475 314 -475 q 342 -467 334 -475 q 356 -441 351 -459 q 365 -393 362 -423 q 368 -318 368 -363 m 139 -318 q 132 -216 139 -264 q 115 -122 125 -167 q 90 -34 104 -77 q 61 49 75 8 l 61 -66 q 61 -164 61 -115 q 61 -259 60 -214 q 63 -344 62 -304 q 68 -412 65 -383 q 78 -458 72 -441 q 94 -475 85 -475 q 113 -467 104 -475 q 127 -441 121 -459 q 136 -393 133 -423 q 139 -318 139 -363 m 521 450 q 545 438 538 450 q 553 410 553 427 q 542 379 553 390 q 515 368 531 368 q 493 377 504 368 q 482 406 482 386 q 493 439 482 427 q 521 450 504 450 z "},"":{"ha":726,"x_min":17,"x_max":766,"o":"m 653 49 q 691 61 673 49 q 723 90 709 73 q 747 123 736 106 q 762 150 757 140 l 766 147 q 756 122 765 142 q 731 78 747 101 q 693 36 715 54 q 643 17 671 17 q 606 25 624 17 q 573 48 589 33 q 545 83 557 63 q 525 126 533 102 q 497 89 514 109 q 459 52 480 68 q 415 23 439 35 q 368 12 392 12 q 348 14 359 12 q 325 22 336 16 q 356 -61 342 -20 q 381 -146 370 -102 q 397 -237 391 -189 q 403 -342 403 -285 q 397 -407 403 -378 q 382 -458 391 -437 q 359 -491 372 -479 q 330 -503 345 -503 q 297 -494 312 -503 q 273 -464 283 -486 q 258 -406 263 -442 q 253 -313 253 -369 l 253 111 q 231 76 243 94 q 204 44 219 58 q 171 21 189 30 q 132 12 153 12 q 112 14 123 12 q 89 22 100 16 q 120 -61 106 -20 q 145 -146 134 -102 q 161 -237 155 -189 q 167 -342 167 -285 q 161 -407 167 -378 q 146 -458 155 -437 q 123 -491 136 -479 q 94 -503 109 -503 q 61 -494 76 -503 q 37 -464 47 -486 q 22 -406 27 -442 q 17 -313 17 -369 l 17 140 q 17 190 17 167 q 18 236 18 214 q 18 283 18 259 q 18 334 18 307 q 21 441 18 385 q 31 550 24 496 q 49 652 38 604 q 77 736 60 700 q 117 794 94 772 q 170 815 140 815 q 214 784 197 815 q 231 689 231 753 q 222 595 231 643 q 200 500 214 547 q 168 408 186 453 q 131 324 150 363 q 94 251 112 284 q 61 192 76 217 l 61 123 q 89 64 66 85 q 136 43 111 43 q 177 51 159 43 q 209 73 195 60 q 233 104 222 87 q 253 140 243 122 q 254 223 253 168 q 254 375 254 279 q 257 482 254 427 q 267 591 260 538 q 285 693 274 645 q 313 778 296 741 q 353 836 330 814 q 406 857 376 857 q 450 826 433 857 q 467 730 467 794 q 458 636 467 684 q 436 542 450 589 q 404 450 422 495 q 367 366 386 406 q 330 292 348 326 q 297 233 312 258 l 297 123 q 307 89 300 104 q 325 64 315 74 q 348 48 335 54 q 372 43 360 43 q 419 52 397 43 q 459 76 441 61 q 493 109 478 90 q 519 146 509 127 q 494 260 503 195 q 485 406 485 326 q 488 508 485 454 q 499 614 492 562 q 518 714 507 667 q 545 798 529 762 q 581 855 560 833 q 627 876 601 876 q 681 831 664 876 q 699 690 699 785 q 690 566 699 635 q 663 425 682 497 q 609 271 637 335 q 561 170 581 208 q 578 121 569 143 q 599 82 588 98 q 624 58 610 66 q 653 49 637 49 m 526 453 q 528 392 526 425 q 533 327 530 360 q 542 259 536 293 q 555 195 547 225 q 589 272 570 225 q 626 376 608 318 q 656 503 644 435 q 668 643 668 570 q 664 727 668 689 q 653 793 661 766 q 634 836 646 821 q 608 851 623 851 q 583 831 594 851 q 562 779 571 811 q 546 704 553 746 q 535 618 539 662 q 528 531 530 574 q 526 453 526 488 m 64 338 q 63 284 64 313 q 61 231 62 256 q 104 320 81 270 q 148 428 127 371 q 180 544 168 484 q 193 660 193 603 q 191 707 193 684 q 183 746 189 729 q 169 773 178 763 q 149 783 161 783 q 116 766 130 783 q 92 717 102 748 q 77 643 83 686 q 69 551 72 601 q 65 447 66 502 q 64 338 64 393 m 300 379 q 299 326 300 354 q 297 272 298 298 q 340 362 317 311 q 384 469 363 412 q 416 585 404 526 q 429 701 429 644 q 427 748 429 726 q 419 788 425 770 q 405 815 414 805 q 385 825 397 825 q 352 808 366 825 q 329 759 338 790 q 314 685 319 728 q 305 593 308 643 q 301 489 302 543 q 300 379 300 434 m 139 -318 q 132 -216 139 -264 q 115 -122 125 -167 q 90 -34 104 -77 q 61 49 75 8 l 61 -66 q 61 -164 61 -115 q 61 -259 60 -214 q 63 -344 62 -304 q 68 -412 65 -383 q 78 -458 72 -441 q 94 -475 85 -475 q 113 -467 104 -475 q 127 -441 121 -459 q 136 -393 133 -423 q 139 -318 139 -363 m 375 -318 q 368 -216 375 -264 q 351 -122 361 -167 q 326 -34 340 -77 q 297 49 312 8 l 297 -66 q 297 -164 297 -115 q 297 -259 296 -214 q 299 -344 298 -304 q 304 -412 301 -383 q 314 -458 308 -441 q 330 -475 321 -475 q 349 -467 340 -475 q 363 -441 357 -459 q 372 -393 369 -423 q 375 -318 375 -363 z "},"":{"ha":325,"x_min":16,"x_max":283,"o":"m 17 268 q 17 332 17 294 q 17 417 16 371 q 22 514 18 464 q 33 614 25 565 q 52 707 40 663 q 83 784 64 751 q 129 838 102 818 q 191 857 155 857 q 215 849 203 857 q 237 826 227 842 q 253 786 247 810 q 258 730 258 762 q 242 608 258 666 q 206 501 226 549 q 170 418 186 453 q 154 364 154 382 q 163 325 154 344 q 188 288 173 307 q 219 252 202 270 q 250 214 235 233 q 274 172 264 194 q 283 126 283 151 q 272 71 283 96 q 245 28 261 46 q 212 -1 229 9 q 183 -11 195 -11 q 151 0 162 -11 q 140 24 140 11 q 144 44 140 34 q 152 63 147 54 q 160 77 156 71 q 167 82 165 82 q 171 80 170 82 q 172 75 172 77 q 172 66 172 72 q 171 56 171 60 q 179 37 171 44 q 204 29 186 29 q 221 33 212 29 q 239 43 231 36 q 254 62 248 51 q 260 89 260 73 q 250 127 260 109 q 227 161 241 144 q 195 196 212 178 q 164 236 178 214 q 140 283 150 257 q 131 343 131 309 q 145 417 131 378 q 176 501 159 456 q 207 595 193 545 q 221 701 221 646 q 219 748 221 726 q 210 786 216 770 q 192 812 203 802 q 163 822 181 822 q 119 795 136 822 q 90 724 101 768 q 73 625 79 680 q 64 514 66 570 q 61 407 62 458 q 61 318 61 355 q 65 45 61 165 q 74 -157 69 -75 q 82 -277 78 -238 q 86 -306 86 -315 q 85 -318 86 -313 q 78 -326 83 -322 q 67 -334 73 -330 q 56 -338 62 -338 q 45 -334 49 -338 q 39 -322 42 -330 q 32 -294 35 -315 q 26 -233 29 -273 q 22 -128 24 -194 q 18 34 20 -62 q 17 268 17 131 z "},"":{"ha":1069,"x_min":0,"x_max":1055,"o":"m 8 199 q 20 140 12 170 q 46 84 29 109 q 91 44 64 60 q 157 28 117 28 q 233 42 196 28 q 306 83 271 57 q 376 146 342 110 q 441 227 410 182 q 367 223 404 225 q 290 220 329 222 q 272 217 282 220 q 260 215 262 215 q 253 224 253 215 q 255 233 253 228 q 262 244 258 239 q 274 252 267 249 q 290 256 281 256 q 356 257 309 256 q 465 262 402 259 q 557 414 513 333 q 639 576 600 496 q 712 731 677 656 q 777 862 747 805 q 831 952 806 918 q 878 986 857 986 q 898 978 890 986 q 910 955 906 969 q 915 923 913 941 q 916 886 916 905 q 909 730 916 806 q 894 579 903 654 q 877 429 886 504 q 864 277 869 354 q 901 278 883 278 q 935 278 918 278 l 964 278 q 991 277 979 278 q 1003 269 1003 276 q 995 252 1003 261 q 970 243 987 243 q 915 241 941 241 q 861 241 888 241 q 860 190 860 216 q 860 139 860 165 q 863 96 860 117 q 873 57 865 74 q 896 28 882 39 q 935 17 911 17 q 968 25 951 17 q 1000 48 985 34 q 1027 79 1015 62 q 1047 113 1039 96 l 1055 109 q 1035 66 1047 91 q 1007 20 1023 42 q 969 -19 991 -3 q 918 -35 947 -35 q 845 5 867 -35 q 823 125 823 45 q 824 182 823 153 q 827 240 824 211 q 648 235 735 238 q 471 228 561 232 q 395 127 434 174 q 316 46 356 81 q 234 -7 275 12 q 150 -26 192 -26 q 96 -15 119 -26 q 58 15 74 -4 q 32 57 43 33 q 16 105 22 81 q 6 154 9 130 q 0 197 3 178 l 8 199 m 496 264 q 577 267 535 265 q 662 270 619 269 q 747 274 705 272 q 828 277 789 275 q 839 430 832 351 q 851 586 845 508 q 861 740 857 664 q 865 886 865 816 q 865 900 865 891 q 864 917 865 909 q 862 931 863 925 q 859 937 861 937 q 831 907 849 937 q 788 826 813 877 q 731 707 763 774 q 663 565 700 640 q 583 412 625 490 q 496 264 541 334 m 789 1140 q 782 1145 782 1140 q 785 1156 782 1149 q 791 1167 787 1162 q 801 1176 795 1173 q 810 1180 806 1180 q 814 1179 812 1180 q 842 1146 829 1162 q 868 1116 855 1131 q 894 1087 881 1101 q 922 1059 907 1073 q 924 1053 924 1058 q 919 1040 924 1046 q 908 1033 913 1033 q 901 1036 903 1033 q 843 1093 874 1067 q 789 1140 812 1119 z "},"":{"ha":349,"x_min":3,"x_max":390,"o":"m 252 235 q 240 242 245 235 q 227 257 235 249 q 207 272 219 265 q 174 279 194 279 q 121 265 145 279 q 79 228 96 250 q 51 180 61 206 q 41 131 41 154 q 60 72 41 95 q 109 49 78 49 q 150 58 132 49 q 180 82 168 67 q 176 127 176 100 q 181 175 176 157 q 192 203 185 193 q 205 217 198 214 q 216 221 212 221 q 229 214 222 221 q 236 187 236 206 q 228 137 236 163 q 204 87 219 111 q 229 57 212 66 q 268 47 246 47 q 303 56 287 47 q 335 79 320 64 q 362 112 349 93 q 386 150 375 130 l 390 147 q 368 97 382 121 q 337 54 355 73 q 299 23 319 35 q 256 12 278 12 q 219 23 239 12 q 186 64 199 35 q 138 22 165 39 q 79 5 111 5 q 47 14 62 5 q 23 35 33 22 q 8 67 14 49 q 3 106 3 85 q 18 175 3 140 q 59 237 33 210 q 117 282 84 265 q 186 300 150 300 q 230 294 212 300 q 259 280 248 288 q 275 264 270 273 q 279 252 279 256 q 270 238 279 242 q 252 235 260 235 m 195 144 q 199 106 195 122 q 214 145 209 125 q 218 179 218 165 q 212 196 218 196 q 200 181 206 196 q 195 144 195 166 m 84 461 q 77 467 77 461 q 80 477 77 471 q 87 488 83 483 q 96 497 91 494 q 105 501 101 501 q 109 500 108 501 q 137 468 124 484 q 163 437 151 452 q 190 408 176 422 q 218 380 203 394 q 219 374 219 379 q 214 361 219 368 q 203 354 209 354 q 197 357 198 354 q 138 414 170 389 q 84 461 107 440 z "},"":{"ha":1069,"x_min":0,"x_max":1055,"o":"m 8 199 q 20 140 12 170 q 46 84 29 109 q 91 44 64 60 q 157 28 117 28 q 233 42 196 28 q 306 83 271 57 q 376 146 342 110 q 441 227 410 182 q 367 223 404 225 q 290 220 329 222 q 272 217 282 220 q 260 215 262 215 q 253 224 253 215 q 255 233 253 228 q 262 244 258 239 q 274 252 267 249 q 290 256 281 256 q 356 257 309 256 q 465 262 402 259 q 557 414 513 333 q 639 576 600 496 q 712 731 677 656 q 777 862 747 805 q 831 952 806 918 q 878 986 857 986 q 898 978 890 986 q 910 955 906 969 q 915 923 913 941 q 916 886 916 905 q 909 730 916 806 q 894 579 903 654 q 877 429 886 504 q 864 277 869 354 q 901 278 883 278 q 935 278 918 278 l 964 278 q 991 277 979 278 q 1003 269 1003 276 q 995 252 1003 261 q 970 243 987 243 q 915 241 941 241 q 861 241 888 241 q 860 190 860 216 q 860 139 860 165 q 863 96 860 117 q 873 57 865 74 q 896 28 882 39 q 935 17 911 17 q 968 25 951 17 q 1000 48 985 34 q 1027 79 1015 62 q 1047 113 1039 96 l 1055 109 q 1035 66 1047 91 q 1007 20 1023 42 q 969 -19 991 -3 q 918 -35 947 -35 q 845 5 867 -35 q 823 125 823 45 q 824 182 823 153 q 827 240 824 211 q 648 235 735 238 q 471 228 561 232 q 395 127 434 174 q 316 46 356 81 q 234 -7 275 12 q 150 -26 192 -26 q 96 -15 119 -26 q 58 15 74 -4 q 32 57 43 33 q 16 105 22 81 q 6 154 9 130 q 0 197 3 178 l 8 199 m 496 264 q 577 267 535 265 q 662 270 619 269 q 747 274 705 272 q 828 277 789 275 q 839 430 832 351 q 851 586 845 508 q 861 740 857 664 q 865 886 865 816 q 865 900 865 891 q 864 917 865 909 q 862 931 863 925 q 859 937 861 937 q 831 907 849 937 q 788 826 813 877 q 731 707 763 774 q 663 565 700 640 q 583 412 625 490 q 496 264 541 334 m 871 1037 q 861 1033 867 1033 q 854 1036 857 1033 q 850 1044 851 1040 q 854 1054 850 1049 q 918 1115 888 1083 q 968 1171 947 1147 q 971 1172 970 1172 q 980 1169 975 1172 q 991 1161 986 1166 q 1001 1152 997 1157 q 1004 1143 1004 1147 q 1004 1141 1004 1141 q 1002 1140 1003 1141 q 938 1089 972 1115 q 871 1037 903 1063 z "},"":{"ha":349,"x_min":3,"x_max":390,"o":"m 252 235 q 240 242 245 235 q 227 257 235 249 q 207 272 219 265 q 174 279 194 279 q 121 265 145 279 q 79 228 96 250 q 51 180 61 206 q 41 131 41 154 q 60 72 41 95 q 109 49 78 49 q 150 58 132 49 q 180 82 168 67 q 176 127 176 100 q 181 175 176 157 q 192 203 185 193 q 205 217 198 214 q 216 221 212 221 q 229 214 222 221 q 236 187 236 206 q 228 137 236 163 q 204 87 219 111 q 229 57 212 66 q 268 47 246 47 q 303 56 287 47 q 335 79 320 64 q 362 112 349 93 q 386 150 375 130 l 390 147 q 368 97 382 121 q 337 54 355 73 q 299 23 319 35 q 256 12 278 12 q 219 23 239 12 q 186 64 199 35 q 138 22 165 39 q 79 5 111 5 q 47 14 62 5 q 23 35 33 22 q 8 67 14 49 q 3 106 3 85 q 18 175 3 140 q 59 237 33 210 q 117 282 84 265 q 186 300 150 300 q 230 294 212 300 q 259 280 248 288 q 275 264 270 273 q 279 252 279 256 q 270 238 279 242 q 252 235 260 235 m 195 144 q 199 106 195 122 q 214 145 209 125 q 218 179 218 165 q 212 196 218 196 q 200 181 206 196 q 195 144 195 166 m 165 358 q 156 354 161 354 q 149 357 152 354 q 144 366 146 361 q 149 375 144 370 q 212 436 182 404 q 263 492 242 469 q 266 493 264 493 q 275 490 269 493 q 286 483 281 487 q 295 473 292 478 q 299 464 299 468 q 298 463 299 463 q 296 461 298 463 q 232 410 267 436 q 165 358 198 385 z "},"":{"ha":1069,"x_min":0,"x_max":1055,"o":"m 8 199 q 20 140 12 170 q 46 84 29 109 q 91 44 64 60 q 157 28 117 28 q 233 42 196 28 q 306 83 271 57 q 376 146 342 110 q 441 227 410 182 q 367 223 404 225 q 290 220 329 222 q 272 217 282 220 q 260 215 262 215 q 253 224 253 215 q 255 233 253 228 q 262 244 258 239 q 274 252 267 249 q 290 256 281 256 q 356 257 309 256 q 465 262 402 259 q 557 414 513 333 q 639 576 600 496 q 712 731 677 656 q 777 862 747 805 q 831 952 806 918 q 878 986 857 986 q 898 978 890 986 q 910 955 906 969 q 915 923 913 941 q 916 886 916 905 q 909 730 916 806 q 894 579 903 654 q 877 429 886 504 q 864 277 869 354 q 901 278 883 278 q 935 278 918 278 l 964 278 q 991 277 979 278 q 1003 269 1003 276 q 995 252 1003 261 q 970 243 987 243 q 915 241 941 241 q 861 241 888 241 q 860 190 860 216 q 860 139 860 165 q 863 96 860 117 q 873 57 865 74 q 896 28 882 39 q 935 17 911 17 q 968 25 951 17 q 1000 48 985 34 q 1027 79 1015 62 q 1047 113 1039 96 l 1055 109 q 1035 66 1047 91 q 1007 20 1023 42 q 969 -19 991 -3 q 918 -35 947 -35 q 845 5 867 -35 q 823 125 823 45 q 824 182 823 153 q 827 240 824 211 q 648 235 735 238 q 471 228 561 232 q 395 127 434 174 q 316 46 356 81 q 234 -7 275 12 q 150 -26 192 -26 q 96 -15 119 -26 q 58 15 74 -4 q 32 57 43 33 q 16 105 22 81 q 6 154 9 130 q 0 197 3 178 l 8 199 m 496 264 q 577 267 535 265 q 662 270 619 269 q 747 274 705 272 q 828 277 789 275 q 839 430 832 351 q 851 586 845 508 q 861 740 857 664 q 865 886 865 816 q 865 900 865 891 q 864 917 865 909 q 862 931 863 925 q 859 937 861 937 q 831 907 849 937 q 788 826 813 877 q 731 707 763 774 q 663 565 700 640 q 583 412 625 490 q 496 264 541 334 m 789 1036 q 785 1033 786 1033 q 778 1038 781 1033 q 774 1048 774 1043 q 783 1062 774 1052 q 803 1085 791 1072 q 830 1112 816 1098 q 858 1138 845 1126 q 880 1158 871 1150 q 891 1165 889 1165 q 897 1165 892 1165 q 907 1164 902 1165 q 917 1159 912 1162 q 922 1149 921 1156 q 946 1104 931 1126 q 983 1063 960 1082 q 987 1059 985 1061 q 989 1054 989 1056 q 980 1041 989 1046 q 957 1036 971 1036 q 936 1059 946 1044 q 916 1087 925 1074 q 899 1112 907 1101 q 886 1122 891 1122 q 869 1113 880 1122 q 844 1091 858 1104 q 815 1063 830 1078 q 789 1036 801 1048 z "},"":{"ha":349,"x_min":3,"x_max":390,"o":"m 252 235 q 240 242 245 235 q 227 257 235 249 q 207 272 219 265 q 174 279 194 279 q 121 265 145 279 q 79 228 96 250 q 51 180 61 206 q 41 131 41 154 q 60 72 41 95 q 109 49 78 49 q 150 58 132 49 q 180 82 168 67 q 176 127 176 100 q 181 175 176 157 q 192 203 185 193 q 205 217 198 214 q 216 221 212 221 q 229 214 222 221 q 236 187 236 206 q 228 137 236 163 q 204 87 219 111 q 229 57 212 66 q 268 47 246 47 q 303 56 287 47 q 335 79 320 64 q 362 112 349 93 q 386 150 375 130 l 390 147 q 368 97 382 121 q 337 54 355 73 q 299 23 319 35 q 256 12 278 12 q 219 23 239 12 q 186 64 199 35 q 138 22 165 39 q 79 5 111 5 q 47 14 62 5 q 23 35 33 22 q 8 67 14 49 q 3 106 3 85 q 18 175 3 140 q 59 237 33 210 q 117 282 84 265 q 186 300 150 300 q 230 294 212 300 q 259 280 248 288 q 275 264 270 273 q 279 252 279 256 q 270 238 279 242 q 252 235 260 235 m 195 144 q 199 106 195 122 q 214 145 209 125 q 218 179 218 165 q 212 196 218 196 q 200 181 206 196 q 195 144 195 166 m 84 357 q 80 354 81 354 q 73 359 76 354 q 70 370 70 364 q 78 383 70 373 q 99 406 86 393 q 126 433 111 419 q 153 459 140 448 q 175 479 166 471 q 186 486 184 486 q 193 486 188 486 q 202 485 197 486 q 212 480 208 484 q 217 471 216 477 q 241 426 227 448 q 279 385 256 404 q 282 380 281 382 q 284 375 284 377 q 275 362 284 368 q 252 357 267 357 q 231 380 241 366 q 211 409 220 395 q 194 433 202 422 q 181 443 186 443 q 164 434 176 443 q 139 412 153 425 q 111 384 125 399 q 84 357 96 369 z "},"":{"ha":1069,"x_min":0,"x_max":1055,"o":"m 8 199 q 20 140 12 170 q 46 84 29 109 q 91 44 64 60 q 157 28 117 28 q 233 42 196 28 q 306 83 271 57 q 376 146 342 110 q 441 227 410 182 q 367 223 404 225 q 290 220 329 222 q 272 217 282 220 q 260 215 262 215 q 253 224 253 215 q 255 233 253 228 q 262 244 258 239 q 274 252 267 249 q 290 256 281 256 q 356 257 309 256 q 465 262 402 259 q 557 414 513 333 q 639 576 600 496 q 712 731 677 656 q 777 862 747 805 q 831 952 806 918 q 878 986 857 986 q 898 978 890 986 q 910 955 906 969 q 915 923 913 941 q 916 886 916 905 q 909 730 916 806 q 894 579 903 654 q 877 429 886 504 q 864 277 869 354 q 901 278 883 278 q 935 278 918 278 l 964 278 q 991 277 979 278 q 1003 269 1003 276 q 995 252 1003 261 q 970 243 987 243 q 915 241 941 241 q 861 241 888 241 q 860 190 860 216 q 860 139 860 165 q 863 96 860 117 q 873 57 865 74 q 896 28 882 39 q 935 17 911 17 q 968 25 951 17 q 1000 48 985 34 q 1027 79 1015 62 q 1047 113 1039 96 l 1055 109 q 1035 66 1047 91 q 1007 20 1023 42 q 969 -19 991 -3 q 918 -35 947 -35 q 845 5 867 -35 q 823 125 823 45 q 824 182 823 153 q 827 240 824 211 q 648 235 735 238 q 471 228 561 232 q 395 127 434 174 q 316 46 356 81 q 234 -7 275 12 q 150 -26 192 -26 q 96 -15 119 -26 q 58 15 74 -4 q 32 57 43 33 q 16 105 22 81 q 6 154 9 130 q 0 197 3 178 l 8 199 m 496 264 q 577 267 535 265 q 662 270 619 269 q 747 274 705 272 q 828 277 789 275 q 839 430 832 351 q 851 586 845 508 q 861 740 857 664 q 865 886 865 816 q 865 900 865 891 q 864 917 865 909 q 862 931 863 925 q 859 937 861 937 q 831 907 849 937 q 788 826 813 877 q 731 707 763 774 q 663 565 700 640 q 583 412 625 490 q 496 264 541 334 m 778 1063 q 772 1050 778 1055 q 761 1044 766 1044 q 753 1053 755 1044 q 767 1093 758 1076 q 788 1120 777 1109 q 811 1136 800 1131 q 829 1141 822 1141 q 857 1132 843 1141 q 883 1111 870 1122 q 909 1090 897 1099 q 932 1080 921 1080 q 951 1085 943 1080 q 966 1097 960 1090 q 976 1113 972 1104 q 982 1128 979 1121 l 982 1129 q 986 1135 982 1133 q 996 1137 990 1137 q 1003 1132 1003 1137 q 986 1091 996 1107 q 965 1065 977 1074 q 943 1051 954 1055 q 924 1047 932 1047 q 893 1056 907 1047 q 867 1076 880 1065 q 843 1095 854 1086 q 821 1104 831 1104 q 792 1091 803 1104 q 778 1063 782 1078 z "},"":{"ha":349,"x_min":3,"x_max":390,"o":"m 252 235 q 240 242 245 235 q 227 257 235 249 q 207 272 219 265 q 174 279 194 279 q 121 265 145 279 q 79 228 96 250 q 51 180 61 206 q 41 131 41 154 q 60 72 41 95 q 109 49 78 49 q 150 58 132 49 q 180 82 168 67 q 176 127 176 100 q 181 175 176 157 q 192 203 185 193 q 205 217 198 214 q 216 221 212 221 q 229 214 222 221 q 236 187 236 206 q 228 137 236 163 q 204 87 219 111 q 229 57 212 66 q 268 47 246 47 q 303 56 287 47 q 335 79 320 64 q 362 112 349 93 q 386 150 375 130 l 390 147 q 368 97 382 121 q 337 54 355 73 q 299 23 319 35 q 256 12 278 12 q 219 23 239 12 q 186 64 199 35 q 138 22 165 39 q 79 5 111 5 q 47 14 62 5 q 23 35 33 22 q 8 67 14 49 q 3 106 3 85 q 18 175 3 140 q 59 237 33 210 q 117 282 84 265 q 186 300 150 300 q 230 294 212 300 q 259 280 248 288 q 275 264 270 273 q 279 252 279 256 q 270 238 279 242 q 252 235 260 235 m 195 144 q 199 106 195 122 q 214 145 209 125 q 218 179 218 165 q 212 196 218 196 q 200 181 206 196 q 195 144 195 166 m 73 385 q 67 371 73 376 q 56 366 62 366 q 48 374 50 366 q 63 414 53 397 q 84 441 73 431 q 106 457 95 452 q 125 463 117 463 q 152 453 138 463 q 179 432 165 444 q 204 411 192 420 q 227 401 216 401 q 247 406 239 401 q 261 418 255 411 q 271 434 267 425 q 277 449 275 442 l 277 450 q 281 456 277 454 q 291 458 286 458 q 298 453 298 458 q 282 412 292 429 q 261 386 272 395 q 239 372 250 376 q 219 368 228 368 q 189 377 203 368 q 162 397 175 386 q 138 416 150 408 q 116 425 127 425 q 88 412 98 425 q 73 385 77 399 z "},"":{"ha":1069,"x_min":0,"x_max":1055,"o":"m 8 199 q 20 140 12 170 q 46 84 29 109 q 91 44 64 60 q 157 28 117 28 q 233 42 196 28 q 306 83 271 57 q 376 146 342 110 q 441 227 410 182 q 367 223 404 225 q 290 220 329 222 q 272 217 282 220 q 260 215 262 215 q 253 224 253 215 q 255 233 253 228 q 262 244 258 239 q 274 252 267 249 q 290 256 281 256 q 356 257 309 256 q 465 262 402 259 q 557 414 513 333 q 639 576 600 496 q 712 731 677 656 q 777 862 747 805 q 831 952 806 918 q 878 986 857 986 q 898 978 890 986 q 910 955 906 969 q 915 923 913 941 q 916 886 916 905 q 909 730 916 806 q 894 579 903 654 q 877 429 886 504 q 864 277 869 354 q 901 278 883 278 q 935 278 918 278 l 964 278 q 991 277 979 278 q 1003 269 1003 276 q 995 252 1003 261 q 970 243 987 243 q 915 241 941 241 q 861 241 888 241 q 860 190 860 216 q 860 139 860 165 q 863 96 860 117 q 873 57 865 74 q 896 28 882 39 q 935 17 911 17 q 968 25 951 17 q 1000 48 985 34 q 1027 79 1015 62 q 1047 113 1039 96 l 1055 109 q 1035 66 1047 91 q 1007 20 1023 42 q 969 -19 991 -3 q 918 -35 947 -35 q 845 5 867 -35 q 823 125 823 45 q 824 182 823 153 q 827 240 824 211 q 648 235 735 238 q 471 228 561 232 q 395 127 434 174 q 316 46 356 81 q 234 -7 275 12 q 150 -26 192 -26 q 96 -15 119 -26 q 58 15 74 -4 q 32 57 43 33 q 16 105 22 81 q 6 154 9 130 q 0 197 3 178 l 8 199 m 496 264 q 577 267 535 265 q 662 270 619 269 q 747 274 705 272 q 828 277 789 275 q 839 430 832 351 q 851 586 845 508 q 861 740 857 664 q 865 886 865 816 q 865 900 865 891 q 864 917 865 909 q 862 931 863 925 q 859 937 861 937 q 831 907 849 937 q 788 826 813 877 q 731 707 763 774 q 663 565 700 640 q 583 412 625 490 q 496 264 541 334 m 789 1083 q 798 1105 789 1096 q 819 1114 807 1114 q 841 1105 832 1114 q 850 1083 850 1096 q 841 1061 850 1070 q 819 1053 832 1053 q 798 1061 807 1053 q 789 1083 789 1070 m 905 1083 q 915 1105 905 1096 q 936 1114 924 1114 q 958 1105 949 1114 q 966 1083 966 1096 q 958 1061 966 1070 q 936 1053 949 1053 q 915 1061 924 1053 q 905 1083 905 1070 z "},"":{"ha":349,"x_min":3,"x_max":390,"o":"m 252 235 q 240 242 245 235 q 227 257 235 249 q 207 272 219 265 q 174 279 194 279 q 121 265 145 279 q 79 228 96 250 q 51 180 61 206 q 41 131 41 154 q 60 72 41 95 q 109 49 78 49 q 150 58 132 49 q 180 82 168 67 q 176 127 176 100 q 181 175 176 157 q 192 203 185 193 q 205 217 198 214 q 216 221 212 221 q 229 214 222 221 q 236 187 236 206 q 228 137 236 163 q 204 87 219 111 q 229 57 212 66 q 268 47 246 47 q 303 56 287 47 q 335 79 320 64 q 362 112 349 93 q 386 150 375 130 l 390 147 q 368 97 382 121 q 337 54 355 73 q 299 23 319 35 q 256 12 278 12 q 219 23 239 12 q 186 64 199 35 q 138 22 165 39 q 79 5 111 5 q 47 14 62 5 q 23 35 33 22 q 8 67 14 49 q 3 106 3 85 q 18 175 3 140 q 59 237 33 210 q 117 282 84 265 q 186 300 150 300 q 230 294 212 300 q 259 280 248 288 q 275 264 270 273 q 279 252 279 256 q 270 238 279 242 q 252 235 260 235 m 195 144 q 199 106 195 122 q 214 145 209 125 q 218 179 218 165 q 212 196 218 196 q 200 181 206 196 q 195 144 195 166 m 84 404 q 93 426 84 417 q 115 435 102 435 q 136 426 127 435 q 145 404 145 417 q 136 382 145 391 q 115 374 127 374 q 93 382 102 374 q 84 404 84 391 m 201 404 q 210 426 201 417 q 231 435 219 435 q 253 426 244 435 q 262 404 262 417 q 253 382 262 391 q 231 374 244 374 q 210 382 219 374 q 201 404 201 391 z "},"":{"ha":1069,"x_min":0,"x_max":1055,"o":"m 8 199 q 20 140 12 170 q 46 84 29 109 q 91 44 64 60 q 157 28 117 28 q 233 42 196 28 q 306 83 271 57 q 376 146 342 110 q 441 227 410 182 q 367 223 404 225 q 290 220 329 222 q 272 217 282 220 q 260 215 262 215 q 253 224 253 215 q 255 233 253 228 q 262 244 258 239 q 274 252 267 249 q 290 256 281 256 q 356 257 309 256 q 465 262 402 259 q 557 414 513 333 q 639 576 600 496 q 712 731 677 656 q 777 862 747 805 q 831 952 806 918 q 878 986 857 986 q 898 978 890 986 q 910 955 906 969 q 915 923 913 941 q 916 886 916 905 q 909 730 916 806 q 894 579 903 654 q 877 429 886 504 q 864 277 869 354 q 901 278 883 278 q 935 278 918 278 l 964 278 q 991 277 979 278 q 1003 269 1003 276 q 995 252 1003 261 q 970 243 987 243 q 915 241 941 241 q 861 241 888 241 q 860 190 860 216 q 860 139 860 165 q 863 96 860 117 q 873 57 865 74 q 896 28 882 39 q 935 17 911 17 q 968 25 951 17 q 1000 48 985 34 q 1027 79 1015 62 q 1047 113 1039 96 l 1055 109 q 1035 66 1047 91 q 1007 20 1023 42 q 969 -19 991 -3 q 918 -35 947 -35 q 845 5 867 -35 q 823 125 823 45 q 824 182 823 153 q 827 240 824 211 q 648 235 735 238 q 471 228 561 232 q 395 127 434 174 q 316 46 356 81 q 234 -7 275 12 q 150 -26 192 -26 q 96 -15 119 -26 q 58 15 74 -4 q 32 57 43 33 q 16 105 22 81 q 6 154 9 130 q 0 197 3 178 l 8 199 m 496 264 q 577 267 535 265 q 662 270 619 269 q 747 274 705 272 q 828 277 789 275 q 839 430 832 351 q 851 586 845 508 q 861 740 857 664 q 865 886 865 816 q 865 900 865 891 q 864 917 865 909 q 862 931 863 925 q 859 937 861 937 q 831 907 849 937 q 788 826 813 877 q 731 707 763 774 q 663 565 700 640 q 583 412 625 490 q 496 264 541 334 m 779 1124 q 789 1171 779 1151 q 817 1205 800 1192 q 854 1227 834 1219 q 894 1234 875 1234 q 926 1229 910 1234 q 955 1211 942 1223 q 976 1180 968 1198 q 983 1136 983 1161 q 974 1093 983 1112 q 948 1061 964 1074 q 912 1040 932 1048 q 872 1033 892 1033 q 839 1038 855 1033 q 809 1055 822 1044 q 787 1083 795 1066 q 779 1124 779 1101 m 805 1140 q 813 1105 806 1120 q 831 1080 820 1090 q 858 1063 843 1069 q 888 1058 872 1058 q 913 1062 901 1058 q 935 1075 926 1067 q 950 1096 944 1084 q 956 1124 956 1108 q 932 1185 956 1162 q 876 1208 909 1208 q 851 1204 864 1208 q 828 1191 838 1200 q 811 1170 817 1183 q 805 1140 804 1157 z "},"":{"ha":349,"x_min":3,"x_max":390,"o":"m 252 235 q 240 242 245 235 q 227 257 235 249 q 207 272 219 265 q 174 279 194 279 q 121 265 145 279 q 79 228 96 250 q 51 180 61 206 q 41 131 41 154 q 60 72 41 95 q 109 49 78 49 q 150 58 132 49 q 180 82 168 67 q 176 127 176 100 q 181 175 176 157 q 192 203 185 193 q 205 217 198 214 q 216 221 212 221 q 229 214 222 221 q 236 187 236 206 q 228 137 236 163 q 204 87 219 111 q 229 57 212 66 q 268 47 246 47 q 303 56 287 47 q 335 79 320 64 q 362 112 349 93 q 386 150 375 130 l 390 147 q 368 97 382 121 q 337 54 355 73 q 299 23 319 35 q 256 12 278 12 q 219 23 239 12 q 186 64 199 35 q 138 22 165 39 q 79 5 111 5 q 47 14 62 5 q 23 35 33 22 q 8 67 14 49 q 3 106 3 85 q 18 175 3 140 q 59 237 33 210 q 117 282 84 265 q 186 300 150 300 q 230 294 212 300 q 259 280 248 288 q 275 264 270 273 q 279 252 279 256 q 270 238 279 242 q 252 235 260 235 m 195 144 q 199 106 195 122 q 214 145 209 125 q 218 179 218 165 q 212 196 218 196 q 200 181 206 196 q 195 144 195 166 m 74 446 q 85 492 74 472 q 113 527 96 513 q 150 548 130 541 q 189 555 170 555 q 221 550 205 555 q 250 532 237 544 q 271 501 263 519 q 279 457 279 482 q 269 414 279 433 q 243 382 259 395 q 208 361 228 369 q 168 354 188 354 q 134 359 151 354 q 104 376 117 365 q 82 405 91 387 q 74 446 74 422 m 100 461 q 108 427 101 441 q 127 401 115 412 q 153 385 138 390 q 184 379 168 379 q 209 384 197 379 q 230 396 221 388 q 245 417 239 405 q 251 446 251 429 q 228 506 251 484 q 172 529 205 529 q 146 525 159 529 q 123 512 134 521 q 106 491 113 504 q 100 461 100 478 z "},"":{"ha":1584,"x_min":0,"x_max":1708,"o":"m 1004 21 q 961 -22 983 -9 q 918 -35 939 -35 q 875 -28 893 -35 q 846 -5 857 -21 q 829 39 834 12 q 823 106 823 66 q 824 170 823 137 q 827 239 825 203 l 823 239 q 715 237 762 237 q 628 235 668 236 q 550 233 587 234 q 472 229 513 231 q 395 127 435 174 q 316 46 356 81 q 234 -7 275 12 q 150 -26 192 -26 q 96 -15 119 -26 q 58 15 74 -4 q 32 57 43 33 q 16 105 22 81 q 6 154 9 130 q 0 197 3 178 l 8 199 q 20 140 12 170 q 46 84 29 109 q 91 44 64 60 q 157 28 117 28 q 233 42 196 28 q 306 83 271 57 q 376 146 342 110 q 441 227 410 182 q 373 223 409 225 q 290 220 336 222 q 272 217 282 220 q 260 215 262 215 q 253 224 253 215 q 255 233 253 228 q 262 244 258 239 q 274 252 267 249 q 290 256 281 256 q 359 257 313 256 q 467 262 406 259 q 557 415 514 334 q 640 577 601 496 q 712 731 678 657 q 777 862 747 805 q 831 952 806 918 q 878 986 857 986 q 898 978 890 986 q 910 955 906 969 q 915 923 913 941 q 916 886 916 905 q 912 756 916 819 q 903 631 908 694 q 961 735 926 685 q 1041 829 997 785 q 1138 909 1086 873 q 1248 970 1191 945 q 1365 1009 1305 996 q 1487 1023 1426 1023 q 1558 1016 1520 1023 q 1630 989 1596 1008 q 1686 939 1664 970 q 1708 861 1708 908 q 1686 781 1708 825 q 1617 697 1664 737 l 1611 703 q 1657 771 1644 736 q 1670 846 1670 806 q 1650 908 1670 883 q 1603 949 1631 934 q 1541 971 1574 965 q 1480 978 1508 978 q 1332 959 1405 978 q 1193 907 1259 941 q 1072 825 1128 873 q 976 720 1016 778 q 912 596 935 663 q 889 458 889 530 q 908 351 889 402 q 962 258 928 300 q 1044 188 997 217 q 1146 149 1091 159 q 1168 205 1153 178 q 1204 251 1183 231 q 1250 283 1225 271 q 1303 294 1276 294 q 1352 278 1332 294 q 1372 228 1372 262 q 1356 171 1372 195 q 1314 132 1339 147 q 1258 110 1289 117 q 1198 103 1227 103 q 1182 103 1190 103 q 1166 104 1174 103 q 1179 60 1168 80 q 1209 26 1191 40 q 1251 5 1227 12 q 1299 -3 1274 -3 q 1473 51 1389 -3 q 1626 208 1557 104 l 1634 203 q 1611 169 1627 191 q 1572 118 1595 146 q 1519 60 1549 90 q 1453 6 1489 31 q 1377 -33 1417 -18 q 1292 -49 1337 -49 q 1183 -9 1223 -49 q 1141 107 1143 30 q 1046 134 1089 114 q 969 184 1002 154 q 912 255 935 215 q 876 343 888 296 q 870 242 873 293 q 868 139 868 191 q 869 94 868 117 q 877 50 871 70 q 897 17 884 31 q 935 4 911 4 q 973 11 960 4 q 994 26 986 18 l 1004 21 m 828 273 q 839 428 832 349 q 851 586 845 507 q 861 741 857 665 q 865 886 865 817 q 865 900 865 891 q 864 917 865 909 q 862 931 863 925 q 859 937 861 937 q 831 907 849 937 q 788 826 813 877 q 731 707 763 775 q 663 565 700 640 q 583 413 625 490 q 496 264 541 335 q 641 270 565 267 q 789 273 717 273 l 818 273 l 828 273 m 1300 258 q 1249 250 1272 258 q 1211 225 1227 241 q 1184 190 1194 210 q 1169 144 1173 169 q 1188 143 1179 143 q 1207 143 1198 143 q 1256 148 1230 143 q 1303 162 1282 152 q 1338 186 1324 172 q 1352 221 1352 201 q 1347 238 1352 231 q 1335 250 1342 245 q 1318 256 1327 254 q 1300 258 1309 258 z "},"":{"ha":478,"x_min":3,"x_max":519,"o":"m 322 26 q 407 42 373 26 q 463 77 441 57 q 497 118 485 98 q 515 150 509 139 l 519 147 q 490 85 508 114 q 447 36 472 57 q 387 4 421 16 q 310 -8 353 -8 q 239 7 267 -8 q 201 52 212 23 q 156 11 182 26 q 102 -5 131 -5 q 57 1 76 -5 q 26 20 39 8 q 8 46 14 31 q 3 78 3 61 q 13 126 3 102 q 43 170 24 151 q 91 201 63 189 q 153 214 118 214 q 174 212 160 214 q 201 203 188 210 q 183 270 199 248 q 132 292 168 292 q 87 284 108 292 q 46 258 67 277 l 41 262 q 57 282 47 271 q 79 302 67 293 q 106 317 92 311 q 136 323 121 323 q 183 314 165 323 q 212 290 202 305 q 259 330 227 316 q 329 345 290 345 q 359 342 344 345 q 390 335 374 340 q 399 323 399 333 q 397 316 399 321 q 393 308 395 312 q 388 300 391 303 q 383 297 385 297 q 375 299 380 297 q 362 305 370 302 q 339 310 353 308 q 301 313 324 313 q 247 300 269 313 q 225 267 225 288 q 238 240 225 251 q 270 224 252 230 q 306 215 288 218 q 335 212 325 212 q 345 210 342 212 q 347 205 347 208 q 343 199 347 200 q 332 196 338 198 q 296 181 314 190 q 262 159 277 172 q 237 131 247 146 q 228 97 228 115 q 253 46 228 66 q 322 26 277 26 m 184 62 q 194 90 191 74 q 198 123 197 106 q 200 152 199 139 q 200 171 200 165 q 176 180 189 174 q 146 186 163 186 q 65 165 95 186 q 36 102 36 144 q 43 71 36 84 q 62 49 50 58 q 87 35 73 40 q 115 31 101 31 q 156 37 137 31 q 184 62 175 43 m 236 197 q 236 179 236 188 q 235 161 236 171 q 259 176 248 172 q 277 184 270 181 q 264 187 271 185 q 251 191 258 189 q 236 197 243 193 z "},"":{"ha":1584,"x_min":0,"x_max":1708,"o":"m 1004 21 q 961 -22 983 -9 q 918 -35 939 -35 q 875 -28 893 -35 q 846 -5 857 -21 q 829 39 834 12 q 823 106 823 66 q 824 170 823 137 q 827 239 825 203 l 823 239 q 715 237 762 237 q 628 235 668 236 q 550 233 587 234 q 472 229 513 231 q 395 127 435 174 q 316 46 356 81 q 234 -7 275 12 q 150 -26 192 -26 q 96 -15 119 -26 q 58 15 74 -4 q 32 57 43 33 q 16 105 22 81 q 6 154 9 130 q 0 197 3 178 l 8 199 q 20 140 12 170 q 46 84 29 109 q 91 44 64 60 q 157 28 117 28 q 233 42 196 28 q 306 83 271 57 q 376 146 342 110 q 441 227 410 182 q 373 223 409 225 q 290 220 336 222 q 272 217 282 220 q 260 215 262 215 q 253 224 253 215 q 255 233 253 228 q 262 244 258 239 q 274 252 267 249 q 290 256 281 256 q 359 257 313 256 q 467 262 406 259 q 557 415 514 334 q 640 577 601 496 q 712 731 678 657 q 777 862 747 805 q 831 952 806 918 q 878 986 857 986 q 898 978 890 986 q 910 955 906 969 q 915 923 913 941 q 916 886 916 905 q 912 756 916 819 q 903 631 908 694 q 961 735 926 685 q 1041 829 997 785 q 1138 909 1086 873 q 1248 970 1191 945 q 1365 1009 1305 996 q 1487 1023 1426 1023 q 1558 1016 1520 1023 q 1630 989 1596 1008 q 1686 939 1664 970 q 1708 861 1708 908 q 1686 781 1708 825 q 1617 697 1664 737 l 1611 703 q 1657 771 1644 736 q 1670 846 1670 806 q 1650 908 1670 883 q 1603 949 1631 934 q 1541 971 1574 965 q 1480 978 1508 978 q 1332 959 1405 978 q 1193 907 1259 941 q 1072 825 1128 873 q 976 720 1016 778 q 912 596 935 663 q 889 458 889 530 q 908 351 889 402 q 962 258 928 300 q 1044 188 997 217 q 1146 149 1091 159 q 1168 205 1153 178 q 1204 251 1183 231 q 1250 283 1225 271 q 1303 294 1276 294 q 1352 278 1332 294 q 1372 228 1372 262 q 1356 171 1372 195 q 1314 132 1339 147 q 1258 110 1289 117 q 1198 103 1227 103 q 1182 103 1190 103 q 1166 104 1174 103 q 1179 60 1168 80 q 1209 26 1191 40 q 1251 5 1227 12 q 1299 -3 1274 -3 q 1473 51 1389 -3 q 1626 208 1557 104 l 1634 203 q 1611 169 1627 191 q 1572 118 1595 146 q 1519 60 1549 90 q 1453 6 1489 31 q 1377 -33 1417 -18 q 1292 -49 1337 -49 q 1183 -9 1223 -49 q 1141 107 1143 30 q 1046 134 1089 114 q 969 184 1002 154 q 912 255 935 215 q 876 343 888 296 q 870 242 873 293 q 868 139 868 191 q 869 94 868 117 q 877 50 871 70 q 897 17 884 31 q 935 4 911 4 q 973 11 960 4 q 994 26 986 18 l 1004 21 m 828 273 q 839 428 832 349 q 851 586 845 507 q 861 741 857 665 q 865 886 865 817 q 865 900 865 891 q 864 917 865 909 q 862 931 863 925 q 859 937 861 937 q 831 907 849 937 q 788 826 813 877 q 731 707 763 775 q 663 565 700 640 q 583 413 625 490 q 496 264 541 335 q 641 270 565 267 q 789 273 717 273 l 818 273 l 828 273 m 1300 258 q 1249 250 1272 258 q 1211 225 1227 241 q 1184 190 1194 210 q 1169 144 1173 169 q 1188 143 1179 143 q 1207 143 1198 143 q 1256 148 1230 143 q 1303 162 1282 152 q 1338 186 1324 172 q 1352 221 1352 201 q 1347 238 1352 231 q 1335 250 1342 245 q 1318 256 1327 254 q 1300 258 1309 258 m 1082 1030 q 1072 1026 1078 1026 q 1065 1029 1068 1026 q 1061 1038 1062 1033 q 1065 1047 1061 1042 q 1128 1108 1099 1076 q 1179 1164 1158 1141 q 1182 1165 1181 1165 q 1191 1162 1185 1165 q 1202 1155 1197 1159 q 1212 1145 1208 1150 q 1215 1136 1215 1140 q 1215 1135 1215 1135 q 1213 1133 1214 1135 q 1148 1082 1183 1108 q 1082 1030 1114 1057 z "},"":{"ha":478,"x_min":3,"x_max":519,"o":"m 322 26 q 407 42 373 26 q 463 77 441 57 q 497 118 485 98 q 515 150 509 139 l 519 147 q 490 85 508 114 q 447 36 472 57 q 387 4 421 16 q 310 -8 353 -8 q 239 7 267 -8 q 201 52 212 23 q 156 11 182 26 q 102 -5 131 -5 q 57 1 76 -5 q 26 20 39 8 q 8 46 14 31 q 3 78 3 61 q 13 126 3 102 q 43 170 24 151 q 91 201 63 189 q 153 214 118 214 q 174 212 160 214 q 201 203 188 210 q 183 270 199 248 q 132 292 168 292 q 87 284 108 292 q 46 258 67 277 l 41 262 q 57 282 47 271 q 79 302 67 293 q 106 317 92 311 q 136 323 121 323 q 183 314 165 323 q 212 290 202 305 q 259 330 227 316 q 329 345 290 345 q 359 342 344 345 q 390 335 374 340 q 399 323 399 333 q 397 316 399 321 q 393 308 395 312 q 388 300 391 303 q 383 297 385 297 q 375 299 380 297 q 362 305 370 302 q 339 310 353 308 q 301 313 324 313 q 247 300 269 313 q 225 267 225 288 q 238 240 225 251 q 270 224 252 230 q 306 215 288 218 q 335 212 325 212 q 345 210 342 212 q 347 205 347 208 q 343 199 347 200 q 332 196 338 198 q 296 181 314 190 q 262 159 277 172 q 237 131 247 146 q 228 97 228 115 q 253 46 228 66 q 322 26 277 26 m 184 62 q 194 90 191 74 q 198 123 197 106 q 200 152 199 139 q 200 171 200 165 q 176 180 189 174 q 146 186 163 186 q 65 165 95 186 q 36 102 36 144 q 43 71 36 84 q 62 49 50 58 q 87 35 73 40 q 115 31 101 31 q 156 37 137 31 q 184 62 175 43 m 236 197 q 236 179 236 188 q 235 161 236 171 q 259 176 248 172 q 277 184 270 181 q 264 187 271 185 q 251 191 258 189 q 236 197 243 193 m 219 394 q 210 390 215 390 q 202 393 205 390 q 198 401 199 397 q 203 411 198 406 q 266 472 236 440 q 317 528 296 505 q 319 529 318 529 q 329 526 323 529 q 340 518 334 523 q 349 509 345 514 q 353 500 353 504 q 352 498 353 498 q 350 497 351 498 q 286 446 320 472 q 219 394 252 420 z "},"":{"ha":1069,"x_min":0,"x_max":1055,"o":"m 8 199 q 20 140 12 170 q 46 84 29 109 q 91 44 64 60 q 157 28 117 28 q 233 42 196 28 q 306 83 271 57 q 376 146 342 110 q 441 227 410 182 q 367 223 404 225 q 290 220 329 222 q 272 217 282 220 q 260 215 262 215 q 253 224 253 215 q 255 233 253 228 q 262 244 258 239 q 274 252 267 249 q 290 256 281 256 q 356 257 309 256 q 465 262 402 259 q 557 414 513 333 q 639 576 600 496 q 712 731 677 656 q 777 862 747 805 q 831 952 806 918 q 878 986 857 986 q 898 978 890 986 q 910 955 906 969 q 915 923 913 941 q 916 886 916 905 q 909 730 916 806 q 894 579 903 654 q 877 429 886 504 q 864 277 869 354 q 901 278 883 278 q 935 278 918 278 l 964 278 q 991 277 979 278 q 1003 269 1003 276 q 995 252 1003 261 q 970 243 987 243 q 915 241 941 241 q 861 241 888 241 q 860 190 860 216 q 860 139 860 165 q 863 96 860 117 q 873 57 865 74 q 896 28 882 39 q 935 17 911 17 q 968 25 951 17 q 1000 48 985 34 q 1027 79 1015 62 q 1047 113 1039 96 l 1055 109 q 1035 66 1047 91 q 1007 20 1023 42 q 969 -19 991 -3 q 918 -35 947 -35 q 845 5 867 -35 q 823 125 823 45 q 824 182 823 153 q 827 240 824 211 q 648 235 735 238 q 471 228 561 232 q 395 127 434 174 q 316 46 356 81 q 234 -7 275 12 q 150 -26 192 -26 q 96 -15 119 -26 q 58 15 74 -4 q 32 57 43 33 q 16 105 22 81 q 6 154 9 130 q 0 197 3 178 l 8 199 m 496 264 q 577 267 535 265 q 662 270 619 269 q 747 274 705 272 q 828 277 789 275 q 839 430 832 351 q 851 586 845 508 q 861 740 857 664 q 865 886 865 816 q 865 900 865 891 q 864 917 865 909 q 862 931 863 925 q 859 937 861 937 q 831 907 849 937 q 788 826 813 877 q 731 707 763 774 q 663 565 700 640 q 583 412 625 490 q 496 264 541 334 m 795 1063 q 790 1069 791 1063 q 790 1082 789 1075 q 795 1094 791 1088 q 806 1100 800 1100 q 859 1101 831 1100 q 912 1103 886 1103 q 938 1102 925 1103 q 962 1100 950 1101 q 966 1093 966 1099 q 961 1081 965 1087 q 953 1069 958 1074 q 945 1065 948 1063 q 919 1067 932 1067 q 893 1067 905 1067 q 842 1066 868 1067 q 795 1063 815 1065 z "},"":{"ha":349,"x_min":3,"x_max":390,"o":"m 252 235 q 240 242 245 235 q 227 257 235 249 q 207 272 219 265 q 174 279 194 279 q 121 265 145 279 q 79 228 96 250 q 51 180 61 206 q 41 131 41 154 q 60 72 41 95 q 109 49 78 49 q 150 58 132 49 q 180 82 168 67 q 176 127 176 100 q 181 175 176 157 q 192 203 185 193 q 205 217 198 214 q 216 221 212 221 q 229 214 222 221 q 236 187 236 206 q 228 137 236 163 q 204 87 219 111 q 229 57 212 66 q 268 47 246 47 q 303 56 287 47 q 335 79 320 64 q 362 112 349 93 q 386 150 375 130 l 390 147 q 368 97 382 121 q 337 54 355 73 q 299 23 319 35 q 256 12 278 12 q 219 23 239 12 q 186 64 199 35 q 138 22 165 39 q 79 5 111 5 q 47 14 62 5 q 23 35 33 22 q 8 67 14 49 q 3 106 3 85 q 18 175 3 140 q 59 237 33 210 q 117 282 84 265 q 186 300 150 300 q 230 294 212 300 q 259 280 248 288 q 275 264 270 273 q 279 252 279 256 q 270 238 279 242 q 252 235 260 235 m 195 144 q 199 106 195 122 q 214 145 209 125 q 218 179 218 165 q 212 196 218 196 q 200 181 206 196 q 195 144 195 166 m 91 385 q 85 390 86 385 q 85 403 84 396 q 91 415 87 410 q 101 421 95 421 q 154 422 127 421 q 208 424 182 424 q 233 423 220 424 q 258 421 245 422 q 261 414 262 420 q 257 402 260 408 q 248 390 253 395 q 240 386 243 385 q 214 388 227 388 q 189 389 201 389 q 137 387 163 389 q 91 385 111 386 z "},"":{"ha":1069,"x_min":0,"x_max":1055,"o":"m 8 199 q 20 140 12 170 q 46 84 29 109 q 91 44 64 60 q 157 28 117 28 q 233 42 196 28 q 306 83 271 57 q 376 146 342 110 q 441 227 410 182 q 367 223 404 225 q 290 220 329 222 q 272 217 282 220 q 260 215 262 215 q 253 224 253 215 q 255 233 253 228 q 262 244 258 239 q 274 252 267 249 q 290 256 281 256 q 356 257 309 256 q 465 262 402 259 q 557 414 513 333 q 639 576 600 496 q 712 731 677 656 q 777 862 747 805 q 831 952 806 918 q 878 986 857 986 q 898 978 890 986 q 910 955 906 969 q 915 923 913 941 q 916 886 916 905 q 909 730 916 806 q 894 579 903 654 q 877 429 886 504 q 864 277 869 354 q 901 278 883 278 q 935 278 918 278 l 964 278 q 991 277 979 278 q 1003 269 1003 276 q 995 252 1003 261 q 970 243 987 243 q 915 241 941 241 q 861 241 888 241 q 860 190 860 216 q 860 139 860 165 q 863 96 860 117 q 873 57 865 74 q 896 28 882 39 q 935 17 911 17 q 968 25 951 17 q 1000 48 985 34 q 1027 79 1015 62 q 1047 113 1039 96 l 1055 109 q 1035 66 1047 91 q 1007 20 1023 42 q 969 -19 991 -3 q 918 -35 947 -35 q 845 5 867 -35 q 823 125 823 45 q 824 182 823 153 q 827 240 824 211 q 648 235 735 238 q 471 228 561 232 q 395 127 434 174 q 316 46 356 81 q 234 -7 275 12 q 150 -26 192 -26 q 96 -15 119 -26 q 58 15 74 -4 q 32 57 43 33 q 16 105 22 81 q 6 154 9 130 q 0 197 3 178 l 8 199 m 496 264 q 577 267 535 265 q 662 270 619 269 q 747 274 705 272 q 828 277 789 275 q 839 430 832 351 q 851 586 845 508 q 861 740 857 664 q 865 886 865 816 q 865 900 865 891 q 864 917 865 909 q 862 931 863 925 q 859 937 861 937 q 831 907 849 937 q 788 826 813 877 q 731 707 763 774 q 663 565 700 640 q 583 412 625 490 q 496 264 541 334 m 779 1137 q 783 1148 778 1142 q 793 1158 787 1154 q 805 1163 800 1162 q 810 1155 810 1163 q 821 1121 812 1135 q 841 1098 829 1107 q 867 1085 853 1089 q 892 1080 880 1080 q 921 1086 909 1080 q 942 1100 933 1091 q 958 1121 951 1109 q 968 1145 964 1133 q 974 1154 970 1150 q 983 1158 979 1157 q 989 1158 987 1160 q 991 1152 992 1157 q 952 1075 979 1103 q 878 1047 926 1047 q 843 1053 860 1047 q 813 1070 827 1059 q 791 1098 800 1081 q 779 1137 782 1115 z "},"":{"ha":349,"x_min":3,"x_max":390,"o":"m 252 235 q 240 242 245 235 q 227 257 235 249 q 207 272 219 265 q 174 279 194 279 q 121 265 145 279 q 79 228 96 250 q 51 180 61 206 q 41 131 41 154 q 60 72 41 95 q 109 49 78 49 q 150 58 132 49 q 180 82 168 67 q 176 127 176 100 q 181 175 176 157 q 192 203 185 193 q 205 217 198 214 q 216 221 212 221 q 229 214 222 221 q 236 187 236 206 q 228 137 236 163 q 204 87 219 111 q 229 57 212 66 q 268 47 246 47 q 303 56 287 47 q 335 79 320 64 q 362 112 349 93 q 386 150 375 130 l 390 147 q 368 97 382 121 q 337 54 355 73 q 299 23 319 35 q 256 12 278 12 q 219 23 239 12 q 186 64 199 35 q 138 22 165 39 q 79 5 111 5 q 47 14 62 5 q 23 35 33 22 q 8 67 14 49 q 3 106 3 85 q 18 175 3 140 q 59 237 33 210 q 117 282 84 265 q 186 300 150 300 q 230 294 212 300 q 259 280 248 288 q 275 264 270 273 q 279 252 279 256 q 270 238 279 242 q 252 235 260 235 m 195 144 q 199 106 195 122 q 214 145 209 125 q 218 179 218 165 q 212 196 218 196 q 200 181 206 196 q 195 144 195 166 m 75 458 q 78 469 73 463 q 89 479 83 475 q 100 484 95 484 q 105 476 105 484 q 116 443 108 456 q 137 419 125 429 q 162 406 149 410 q 188 401 176 401 q 216 407 204 401 q 238 421 229 412 q 253 443 247 431 q 263 467 259 454 q 270 475 265 471 q 278 479 274 478 q 285 479 282 481 q 287 473 288 478 q 248 396 274 425 q 173 368 221 368 q 139 374 155 368 q 109 391 122 380 q 86 419 96 402 q 75 458 77 436 z "},"":{"ha":1069,"x_min":0,"x_max":1069,"o":"m 8 199 q 20 140 12 170 q 46 84 29 109 q 91 44 64 60 q 157 28 117 28 q 233 42 196 28 q 306 83 271 57 q 376 146 342 110 q 441 227 410 182 q 367 223 404 225 q 290 220 329 222 q 272 217 282 220 q 260 215 262 215 q 253 224 253 215 q 255 233 253 228 q 262 244 258 239 q 274 252 267 249 q 290 256 281 256 q 356 257 309 256 q 465 262 402 259 q 557 414 513 333 q 639 576 600 496 q 712 731 677 656 q 777 862 747 805 q 831 952 806 918 q 878 986 857 986 q 898 978 890 986 q 910 955 906 969 q 915 923 913 941 q 916 886 916 905 q 909 730 916 806 q 894 579 903 654 q 877 429 886 504 q 864 277 869 354 q 901 278 883 278 q 935 278 918 278 l 964 278 q 991 277 979 278 q 1003 269 1003 276 q 995 252 1003 261 q 970 243 987 243 q 915 241 941 241 q 861 241 888 241 q 860 190 860 216 q 860 139 860 165 q 863 96 860 117 q 873 57 865 74 q 896 28 882 39 q 935 17 911 17 q 968 25 951 17 q 1000 48 985 34 q 1027 79 1015 62 q 1047 113 1039 96 l 1055 109 q 1048 90 1053 102 q 1035 63 1043 78 q 1014 30 1027 47 q 985 -5 1002 13 q 966 -28 976 -16 q 949 -53 957 -40 q 937 -79 942 -66 q 932 -102 932 -92 q 941 -123 932 -113 q 968 -134 950 -134 q 1013 -126 989 -134 q 1054 -107 1036 -119 q 1059 -104 1055 -103 q 1065 -108 1063 -105 q 1068 -116 1068 -111 q 1064 -125 1069 -121 q 1012 -156 1038 -146 q 962 -165 985 -165 q 941 -163 952 -165 q 922 -155 930 -161 q 907 -139 913 -149 q 901 -113 901 -129 q 915 -72 901 -93 q 945 -31 928 -50 q 931 -34 939 -33 q 918 -35 924 -35 q 845 5 867 -35 q 823 125 823 45 q 824 182 823 153 q 827 240 824 211 q 648 235 735 238 q 471 228 561 232 q 395 127 434 174 q 316 46 356 81 q 234 -7 275 12 q 150 -26 192 -26 q 96 -15 119 -26 q 58 15 74 -4 q 32 57 43 33 q 16 105 22 81 q 6 154 9 130 q 0 197 3 178 l 8 199 m 496 264 q 577 267 535 265 q 662 270 619 269 q 747 274 705 272 q 828 277 789 275 q 839 430 832 351 q 851 586 845 508 q 861 740 857 664 q 865 886 865 816 q 865 900 865 891 q 864 917 865 909 q 862 931 863 925 q 859 937 861 937 q 831 907 849 937 q 788 826 813 877 q 731 707 763 774 q 663 565 700 640 q 583 412 625 490 q 496 264 541 334 z "},"":{"ha":349,"x_min":3,"x_max":390,"o":"m 252 235 q 240 242 245 235 q 227 257 235 249 q 207 272 219 265 q 174 279 194 279 q 121 265 145 279 q 79 228 96 250 q 51 180 61 206 q 41 131 41 154 q 60 72 41 95 q 109 49 78 49 q 150 58 132 49 q 180 82 168 67 q 176 127 176 100 q 181 175 176 157 q 192 203 185 193 q 205 217 198 214 q 216 221 212 221 q 229 214 222 221 q 236 187 236 206 q 228 137 236 163 q 204 87 219 111 q 229 57 212 66 q 268 47 246 47 q 303 56 287 47 q 335 79 320 64 q 362 112 349 93 q 386 150 375 130 l 390 147 q 346 67 376 101 q 282 14 317 33 q 241 -25 258 0 q 224 -81 224 -51 q 234 -102 224 -92 q 261 -113 243 -113 q 305 -105 283 -113 q 346 -86 327 -98 q 350 -83 347 -83 q 357 -87 354 -84 q 360 -96 360 -91 q 355 -104 361 -100 q 303 -135 330 -125 q 254 -144 277 -144 q 233 -142 244 -144 q 214 -134 222 -140 q 199 -118 205 -128 q 193 -92 193 -108 q 211 -39 193 -66 q 253 12 229 -12 q 217 24 236 12 q 186 64 197 36 q 138 22 165 39 q 79 5 111 5 q 47 14 62 5 q 23 35 33 22 q 8 67 14 49 q 3 106 3 85 q 18 175 3 140 q 59 237 33 210 q 117 282 84 265 q 186 300 150 300 q 230 294 212 300 q 259 280 248 288 q 275 264 270 273 q 279 252 279 256 q 270 238 279 242 q 252 235 260 235 m 195 144 q 199 106 195 122 q 214 145 209 125 q 218 179 218 165 q 212 196 218 196 q 200 181 206 196 q 195 144 195 166 z "},"":{"ha":760,"x_min":57,"x_max":733,"o":"m 733 252 q 721 203 730 233 q 696 139 712 173 q 657 70 681 104 q 598 7 633 35 q 519 -40 564 -22 q 416 -60 474 -58 q 408 -90 411 -77 q 406 -117 406 -104 q 417 -112 410 -115 q 436 -110 425 -110 q 472 -124 459 -110 q 485 -161 485 -138 q 481 -185 485 -172 q 468 -209 477 -198 q 443 -228 459 -220 q 403 -236 427 -236 q 389 -235 397 -236 q 372 -233 380 -235 q 354 -227 363 -231 q 339 -218 346 -224 q 336 -208 335 -216 q 340 -194 337 -201 q 346 -185 342 -188 q 351 -189 350 -182 q 376 -199 363 -197 q 411 -201 390 -201 q 428 -200 419 -201 q 445 -196 437 -199 q 456 -185 452 -192 q 461 -168 461 -179 q 425 -138 461 -138 q 401 -141 410 -138 q 387 -144 393 -144 q 382 -139 382 -144 q 384 -125 382 -134 q 389 -105 386 -116 q 396 -83 393 -94 q 403 -61 399 -71 q 273 -27 336 -60 q 163 66 211 5 q 86 216 115 127 q 57 415 57 304 q 71 570 57 494 q 112 713 85 646 q 177 837 139 781 q 264 935 216 894 q 372 998 313 975 q 496 1021 430 1021 q 585 1006 545 1021 q 651 965 624 991 q 693 904 679 939 q 708 829 708 869 q 700 778 708 803 q 682 730 692 752 q 659 690 671 708 q 639 661 647 672 l 631 668 q 646 693 639 679 q 659 725 653 708 q 667 761 664 742 q 671 799 671 779 q 658 867 671 835 q 622 923 646 899 q 564 961 598 947 q 486 975 530 975 q 367 956 421 975 q 269 902 312 937 q 192 818 225 867 q 138 711 159 770 q 105 587 116 653 q 94 452 94 522 q 103 341 94 397 q 131 233 113 285 q 177 135 149 180 q 240 55 204 89 q 322 1 277 21 q 422 -18 368 -18 q 546 7 494 -18 q 633 72 597 33 q 689 160 668 112 q 720 254 709 208 l 733 252 z "},"":{"ha":296,"x_min":14,"x_max":261,"o":"m 180 304 q 201 302 191 304 q 221 294 212 299 q 236 281 230 289 q 241 264 241 274 q 228 226 241 242 q 199 198 215 210 q 158 175 181 185 l 154 182 q 176 197 166 189 q 191 216 184 205 q 197 241 197 227 q 185 267 197 255 q 151 278 173 278 q 112 267 130 278 q 83 238 95 256 q 64 197 71 220 q 57 151 57 174 q 63 114 57 132 q 80 82 68 96 q 110 61 92 68 q 154 53 128 53 q 198 59 179 53 q 230 73 217 66 q 256 94 245 82 l 261 90 q 229 53 248 70 q 188 26 213 39 q 129 14 163 14 q 122 -14 125 -1 q 119 -39 119 -27 q 131 -34 123 -37 q 150 -32 138 -32 q 186 -46 173 -32 q 199 -83 199 -60 q 195 -107 199 -94 q 182 -131 191 -120 q 157 -150 173 -142 q 117 -158 141 -158 q 86 -154 105 -158 q 53 -140 66 -151 q 50 -130 49 -138 q 54 -116 51 -123 q 60 -107 56 -110 q 65 -111 64 -104 q 90 -121 77 -119 q 125 -123 104 -123 q 142 -122 133 -123 q 158 -118 151 -121 q 170 -107 165 -114 q 175 -90 175 -101 q 139 -60 175 -60 q 115 -63 123 -60 q 102 -66 107 -66 q 96 -61 96 -66 q 98 -48 96 -56 q 102 -29 100 -39 q 109 -7 105 -18 q 115 14 112 4 q 79 23 97 16 q 46 43 60 30 q 23 76 32 56 q 14 122 14 96 q 26 191 14 158 q 61 250 39 224 q 114 290 83 275 q 180 304 144 304 z "},"":{"ha":760,"x_min":57,"x_max":733,"o":"m 733 252 q 721 202 730 233 q 696 136 712 171 q 655 66 680 102 q 595 3 630 31 q 513 -43 560 -25 q 407 -61 467 -61 q 276 -28 339 -61 q 164 65 213 4 q 86 215 115 126 q 57 415 57 303 q 71 570 57 494 q 112 713 85 646 q 177 837 139 781 q 264 935 216 894 q 372 998 313 975 q 496 1021 430 1021 q 585 1006 545 1021 q 651 965 624 991 q 693 904 679 939 q 708 829 708 869 q 700 778 708 803 q 682 730 692 752 q 659 690 671 708 q 639 661 647 672 l 631 668 q 646 693 639 679 q 659 725 653 708 q 667 761 664 742 q 671 799 671 779 q 658 867 671 835 q 622 923 646 899 q 564 961 598 947 q 486 975 530 975 q 367 956 421 975 q 269 902 312 937 q 192 818 225 867 q 138 711 159 770 q 105 587 116 653 q 94 452 94 522 q 103 341 94 397 q 131 233 113 285 q 177 135 149 180 q 240 55 204 89 q 322 1 277 21 q 422 -18 368 -18 q 546 7 494 -18 q 633 72 597 33 q 689 160 668 112 q 720 254 709 208 l 733 252 m 480 1074 q 471 1069 476 1069 q 464 1073 467 1069 q 459 1081 460 1076 q 464 1090 459 1086 q 527 1152 497 1120 q 578 1207 557 1184 q 581 1208 579 1208 q 590 1205 584 1208 q 601 1198 595 1202 q 610 1188 606 1194 q 614 1179 614 1183 q 613 1178 614 1178 q 611 1177 612 1178 q 547 1126 581 1152 q 480 1074 513 1100 z "},"":{"ha":296,"x_min":14,"x_max":283,"o":"m 180 304 q 201 302 191 304 q 221 294 212 299 q 236 281 230 289 q 241 264 241 274 q 228 226 241 242 q 199 198 215 210 q 158 175 181 185 l 154 182 q 176 197 166 189 q 191 216 184 205 q 197 241 197 227 q 185 267 197 255 q 151 278 173 278 q 112 267 130 278 q 83 238 95 256 q 64 197 71 220 q 57 151 57 174 q 63 114 57 132 q 80 82 68 96 q 110 61 92 68 q 154 53 128 53 q 198 59 179 53 q 230 73 217 66 q 256 94 245 82 l 261 90 q 229 52 248 68 q 186 25 212 37 q 126 14 161 14 q 87 20 107 14 q 51 40 67 26 q 24 74 35 53 q 14 122 14 94 q 26 191 14 158 q 61 250 39 224 q 114 290 83 275 q 180 304 144 304 m 149 363 q 140 359 145 359 q 133 363 136 359 q 128 371 130 366 q 133 380 128 376 q 196 442 166 410 q 247 497 226 474 q 250 498 248 498 q 259 495 253 498 q 270 488 264 492 q 279 478 275 484 q 283 469 283 473 q 282 468 283 468 q 280 467 281 468 q 216 416 250 441 q 149 363 182 390 z "},"":{"ha":760,"x_min":57,"x_max":733,"o":"m 733 252 q 721 202 730 233 q 696 136 712 171 q 655 66 680 102 q 595 3 630 31 q 513 -43 560 -25 q 407 -61 467 -61 q 276 -28 339 -61 q 164 65 213 4 q 86 215 115 126 q 57 415 57 303 q 71 570 57 494 q 112 713 85 646 q 177 837 139 781 q 264 935 216 894 q 372 998 313 975 q 496 1021 430 1021 q 585 1006 545 1021 q 651 965 624 991 q 693 904 679 939 q 708 829 708 869 q 700 778 708 803 q 682 730 692 752 q 659 690 671 708 q 639 661 647 672 l 631 668 q 646 693 639 679 q 659 725 653 708 q 667 761 664 742 q 671 799 671 779 q 658 867 671 835 q 622 923 646 899 q 564 961 598 947 q 486 975 530 975 q 367 956 421 975 q 269 902 312 937 q 192 818 225 867 q 138 711 159 770 q 105 587 116 653 q 94 452 94 522 q 103 341 94 397 q 131 233 113 285 q 177 135 149 180 q 240 55 204 89 q 322 1 277 21 q 422 -18 368 -18 q 546 7 494 -18 q 633 72 597 33 q 689 160 668 112 q 720 254 709 208 l 733 252 m 399 1072 q 395 1069 396 1069 q 388 1075 391 1069 q 385 1085 385 1080 q 393 1099 385 1088 q 413 1122 401 1109 q 440 1149 426 1135 q 468 1175 455 1163 q 490 1194 481 1187 q 501 1202 499 1202 q 507 1202 503 1202 q 517 1200 512 1202 q 527 1196 522 1199 q 532 1186 531 1192 q 556 1141 541 1163 q 593 1100 570 1119 q 597 1095 595 1098 q 599 1090 599 1093 q 590 1078 599 1083 q 567 1072 581 1072 q 546 1096 556 1081 q 526 1124 535 1110 q 509 1148 517 1138 q 496 1158 501 1158 q 479 1149 490 1158 q 454 1128 468 1141 q 426 1100 440 1115 q 399 1072 411 1084 z "},"":{"ha":296,"x_min":14,"x_max":267,"o":"m 180 304 q 201 302 191 304 q 221 294 212 299 q 236 281 230 289 q 241 264 241 274 q 228 226 241 242 q 199 198 215 210 q 158 175 181 185 l 154 182 q 176 197 166 189 q 191 216 184 205 q 197 241 197 227 q 185 267 197 255 q 151 278 173 278 q 112 267 130 278 q 83 238 95 256 q 64 197 71 220 q 57 151 57 174 q 63 114 57 132 q 80 82 68 96 q 110 61 92 68 q 154 53 128 53 q 198 59 179 53 q 230 73 217 66 q 256 94 245 82 l 261 90 q 229 52 248 68 q 186 25 212 37 q 126 14 161 14 q 87 20 107 14 q 51 40 67 26 q 24 74 35 53 q 14 122 14 94 q 26 191 14 158 q 61 250 39 224 q 114 290 83 275 q 180 304 144 304 m 67 362 q 63 359 64 359 q 56 365 59 359 q 53 375 53 370 q 61 389 53 378 q 82 412 69 399 q 109 439 94 425 q 136 465 123 453 q 158 484 149 477 q 170 492 168 492 q 176 492 171 492 q 185 490 180 492 q 195 486 191 489 q 200 476 199 482 q 224 431 210 453 q 262 390 239 409 q 266 385 264 388 q 267 380 267 382 q 258 368 267 373 q 235 362 250 362 q 214 386 224 371 q 194 414 203 400 q 177 438 185 428 q 164 448 170 448 q 148 439 159 448 q 122 418 136 431 q 94 390 109 405 q 67 362 79 374 z "},"":{"ha":760,"x_min":57,"x_max":733,"o":"m 733 252 q 721 202 730 233 q 696 136 712 171 q 655 66 680 102 q 595 3 630 31 q 513 -43 560 -25 q 407 -61 467 -61 q 276 -28 339 -61 q 164 65 213 4 q 86 215 115 126 q 57 415 57 303 q 71 570 57 494 q 112 713 85 646 q 177 837 139 781 q 264 935 216 894 q 372 998 313 975 q 496 1021 430 1021 q 585 1006 545 1021 q 651 965 624 991 q 693 904 679 939 q 708 829 708 869 q 700 778 708 803 q 682 730 692 752 q 659 690 671 708 q 639 661 647 672 l 631 668 q 646 693 639 679 q 659 725 653 708 q 667 761 664 742 q 671 799 671 779 q 658 867 671 835 q 622 923 646 899 q 564 961 598 947 q 486 975 530 975 q 367 956 421 975 q 269 902 312 937 q 192 818 225 867 q 138 711 159 770 q 105 587 116 653 q 94 452 94 522 q 103 341 94 397 q 131 233 113 285 q 177 135 149 180 q 240 55 204 89 q 322 1 277 21 q 422 -18 368 -18 q 546 7 494 -18 q 633 72 597 33 q 689 160 668 112 q 720 254 709 208 l 733 252 m 454 1117 q 464 1140 454 1131 q 488 1150 474 1150 q 511 1140 501 1150 q 521 1117 521 1131 q 511 1094 521 1103 q 488 1084 501 1084 q 464 1094 474 1084 q 454 1117 454 1103 z "},"":{"ha":296,"x_min":14,"x_max":261,"o":"m 180 304 q 201 302 191 304 q 221 294 212 299 q 236 281 230 289 q 241 264 241 274 q 228 226 241 242 q 199 198 215 210 q 158 175 181 185 l 154 182 q 176 197 166 189 q 191 216 184 205 q 197 241 197 227 q 185 267 197 255 q 151 278 173 278 q 112 267 130 278 q 83 238 95 256 q 64 197 71 220 q 57 151 57 174 q 63 114 57 132 q 80 82 68 96 q 110 61 92 68 q 154 53 128 53 q 198 59 179 53 q 230 73 217 66 q 256 94 245 82 l 261 90 q 229 52 248 68 q 186 25 212 37 q 126 14 161 14 q 87 20 107 14 q 51 40 67 26 q 24 74 35 53 q 14 122 14 94 q 26 191 14 158 q 61 250 39 224 q 114 290 83 275 q 180 304 144 304 m 123 407 q 133 430 123 420 q 156 440 142 440 q 179 430 170 440 q 189 407 189 420 q 179 384 189 393 q 156 374 170 374 q 133 384 142 374 q 123 407 123 393 z "},"":{"ha":760,"x_min":57,"x_max":733,"o":"m 733 252 q 721 202 730 233 q 696 136 712 171 q 655 66 680 102 q 595 3 630 31 q 513 -43 560 -25 q 407 -61 467 -61 q 276 -28 339 -61 q 164 65 213 4 q 86 215 115 126 q 57 415 57 303 q 71 570 57 494 q 112 713 85 646 q 177 837 139 781 q 264 935 216 894 q 372 998 313 975 q 496 1021 430 1021 q 585 1006 545 1021 q 651 965 624 991 q 693 904 679 939 q 708 829 708 869 q 700 778 708 803 q 682 730 692 752 q 659 690 671 708 q 639 661 647 672 l 631 668 q 646 693 639 679 q 659 725 653 708 q 667 761 664 742 q 671 799 671 779 q 658 867 671 835 q 622 923 646 899 q 564 961 598 947 q 486 975 530 975 q 367 956 421 975 q 269 902 312 937 q 192 818 225 867 q 138 711 159 770 q 105 587 116 653 q 94 452 94 522 q 103 341 94 397 q 131 233 113 285 q 177 135 149 180 q 240 55 204 89 q 322 1 277 21 q 422 -18 368 -18 q 546 7 494 -18 q 633 72 597 33 q 689 160 668 112 q 720 254 709 208 l 733 252 m 575 1195 q 586 1200 578 1200 q 594 1198 590 1200 q 597 1190 597 1195 q 596 1186 597 1187 q 569 1150 584 1170 q 540 1112 555 1130 q 511 1082 525 1094 q 488 1069 498 1069 q 472 1074 479 1069 q 458 1089 465 1078 q 434 1128 449 1106 q 401 1171 419 1149 q 397 1181 397 1175 q 405 1194 397 1188 q 428 1199 412 1199 q 439 1185 431 1199 q 458 1156 448 1172 q 480 1126 469 1140 q 498 1113 491 1113 q 510 1120 502 1113 q 530 1140 519 1128 q 553 1166 541 1152 q 575 1195 565 1181 z "},"":{"ha":296,"x_min":14,"x_max":267,"o":"m 180 304 q 201 302 191 304 q 221 294 212 299 q 236 281 230 289 q 241 264 241 274 q 228 226 241 242 q 199 198 215 210 q 158 175 181 185 l 154 182 q 176 197 166 189 q 191 216 184 205 q 197 241 197 227 q 185 267 197 255 q 151 278 173 278 q 112 267 130 278 q 83 238 95 256 q 64 197 71 220 q 57 151 57 174 q 63 114 57 132 q 80 82 68 96 q 110 61 92 68 q 154 53 128 53 q 198 59 179 53 q 230 73 217 66 q 256 94 245 82 l 261 90 q 229 52 248 68 q 186 25 212 37 q 126 14 161 14 q 87 20 107 14 q 51 40 67 26 q 24 74 35 53 q 14 122 14 94 q 26 191 14 158 q 61 250 39 224 q 114 290 83 275 q 180 304 144 304 m 244 485 q 255 490 248 490 q 263 488 259 490 q 267 480 267 485 q 265 476 267 477 q 238 440 253 460 q 209 402 224 420 q 180 372 194 384 q 157 359 167 359 q 141 363 148 359 q 127 379 134 368 q 103 418 118 396 q 71 461 88 439 q 66 471 66 465 q 74 484 66 478 q 97 489 81 489 q 108 475 100 489 q 127 446 117 462 q 149 416 138 430 q 168 403 160 403 q 179 410 171 403 q 199 430 188 418 q 222 456 210 441 q 244 485 234 471 z "},"":{"ha":979,"x_min":0,"x_max":956,"o":"m 425 237 q 425 275 425 255 q 427 317 425 295 q 377 305 404 309 q 321 301 350 301 q 180 328 240 301 q 80 398 120 354 q 20 501 40 443 q 0 624 0 559 q 20 748 0 690 q 74 852 39 805 q 155 937 108 900 q 256 999 202 974 q 370 1038 311 1025 q 489 1051 429 1051 q 681 1019 595 1051 q 828 923 767 986 q 922 769 889 861 q 956 558 956 677 q 948 441 956 505 q 923 311 940 376 q 879 183 906 245 q 813 72 852 121 q 723 -5 774 24 q 607 -35 672 -35 q 528 -20 564 -35 q 461 8 492 -6 q 422 -38 448 -21 q 364 -54 397 -54 q 341 -51 354 -54 q 318 -41 329 -47 q 300 -23 307 -34 q 293 1 293 -13 q 300 26 293 16 q 318 44 307 37 q 343 55 329 51 q 374 58 358 58 q 403 56 389 58 q 432 50 417 54 l 432 62 q 429 139 432 96 q 425 237 425 182 m 494 578 q 477 470 483 529 q 468 354 471 412 q 515 373 496 363 q 550 393 534 382 l 554 386 q 520 360 542 374 q 468 332 498 345 q 467 284 467 307 q 467 240 467 261 q 468 189 467 211 q 470 147 469 166 q 472 111 471 128 q 473 74 473 93 q 473 56 473 64 q 471 40 472 47 q 537 18 505 28 q 607 7 570 7 q 713 29 667 7 q 793 89 760 51 q 850 176 827 126 q 886 281 872 226 q 905 394 899 336 q 911 505 911 452 q 882 707 911 614 q 798 869 854 800 q 661 976 743 937 q 473 1015 580 1015 q 292 989 373 1015 q 154 912 211 962 q 65 787 96 861 q 35 618 35 713 q 59 507 35 559 q 123 418 83 456 q 214 358 163 380 q 321 336 266 336 q 427 345 385 336 q 436 447 430 393 q 454 564 441 502 q 457 582 456 572 q 458 593 458 591 q 458 607 458 600 q 464 614 458 614 q 473 610 467 614 q 483 600 478 606 q 491 588 488 594 q 494 578 494 582 m 372 -22 q 413 -9 400 -22 q 429 24 425 5 q 401 33 414 29 q 375 36 388 36 q 339 29 355 36 q 323 7 323 22 q 338 -15 323 -7 q 372 -22 353 -22 m 576 1224 q 587 1230 580 1230 q 595 1227 591 1230 q 599 1219 599 1224 q 597 1215 599 1217 q 571 1179 585 1199 q 541 1141 556 1159 q 513 1111 526 1123 q 489 1099 499 1099 q 473 1103 480 1099 q 460 1118 466 1107 q 435 1157 450 1135 q 403 1200 420 1179 q 399 1210 399 1204 q 406 1223 399 1217 q 429 1228 414 1228 q 440 1215 432 1228 q 460 1185 449 1201 q 481 1156 471 1169 q 500 1142 492 1142 q 512 1149 503 1142 q 531 1169 520 1157 q 554 1195 543 1181 q 576 1224 566 1210 z "},"":{"ha":490,"x_min":3,"x_max":476,"o":"m 200 293 q 198 334 198 313 q 197 378 197 355 q 200 480 197 427 q 207 587 202 534 q 220 686 212 639 q 238 770 227 734 q 262 827 249 806 q 293 848 276 848 q 331 803 319 848 q 343 663 343 758 q 336 538 343 607 q 311 397 329 469 q 283 289 296 336 q 258 208 270 243 q 274 146 264 176 q 294 96 283 117 q 320 61 306 74 q 351 49 334 49 q 380 60 366 49 q 407 87 394 72 q 429 119 419 103 q 444 146 439 136 l 450 143 q 447 134 450 143 q 437 110 444 124 q 420 78 430 95 q 398 46 410 61 q 371 22 386 32 q 339 12 356 12 q 275 43 302 12 q 228 134 247 75 q 204 91 218 112 q 172 55 190 71 q 133 29 155 39 q 89 20 112 20 q 55 26 71 20 q 28 44 39 32 q 9 72 16 56 q 3 109 3 88 q 18 176 3 143 q 60 235 34 209 q 121 277 87 261 q 193 293 155 293 l 200 293 m 281 817 q 268 797 273 817 q 257 746 262 778 q 249 673 252 714 q 243 588 245 631 q 240 502 241 545 q 239 425 239 460 q 242 338 239 385 q 253 244 245 291 q 274 318 263 277 q 293 406 285 359 q 307 506 302 453 q 313 615 313 558 q 311 699 313 662 q 305 763 309 736 q 295 803 301 789 q 281 817 289 817 m 115 61 q 153 70 136 61 q 182 93 169 79 q 204 124 195 107 q 221 157 214 141 q 210 207 214 181 q 203 262 206 233 q 180 267 193 267 q 120 255 145 267 q 78 227 94 244 q 54 187 62 209 q 46 144 46 165 q 65 85 46 109 q 115 61 85 61 m 441 849 q 468 835 459 849 q 476 801 476 821 q 474 776 476 791 q 466 744 473 761 q 446 709 459 727 q 408 673 432 690 q 402 670 404 669 q 399 672 399 670 q 399 677 398 674 q 401 681 399 680 q 420 701 412 687 q 435 728 429 714 q 441 753 441 742 q 436 766 442 764 q 413 779 421 769 q 404 805 404 789 q 415 838 404 827 q 441 849 426 849 z "},"":{"ha":979,"x_min":0,"x_max":956,"o":"m 425 237 q 425 275 425 255 q 427 317 425 295 q 377 305 404 309 q 321 301 350 301 q 180 328 240 301 q 80 398 120 354 q 20 501 40 443 q 0 624 0 559 q 20 748 0 690 q 74 852 39 805 q 155 937 108 900 q 256 999 202 974 q 370 1038 311 1025 q 489 1051 429 1051 q 681 1019 595 1051 q 828 923 767 986 q 922 769 889 861 q 956 558 956 677 q 948 441 956 505 q 923 311 940 376 q 879 183 906 245 q 813 72 852 121 q 723 -5 774 24 q 607 -35 672 -35 q 528 -20 564 -35 q 461 8 492 -6 q 422 -38 448 -21 q 364 -54 397 -54 q 341 -51 354 -54 q 318 -41 329 -47 q 300 -23 307 -34 q 293 1 293 -13 q 300 26 293 16 q 318 44 307 37 q 343 55 329 51 q 374 58 358 58 q 403 56 389 58 q 432 50 417 54 l 432 62 q 430 114 432 85 q 427 176 428 143 q 356 173 390 174 q 292 171 322 171 q 290 172 290 172 q 288 176 288 173 q 292 192 288 184 q 300 200 296 200 q 357 201 323 200 q 425 201 391 201 l 425 237 m 608 184 q 539 183 574 184 q 468 180 504 182 q 471 125 469 149 q 473 74 473 101 q 473 56 473 64 q 471 40 472 47 q 537 18 505 28 q 607 7 570 7 q 713 29 667 7 q 793 89 760 51 q 850 176 827 126 q 886 281 872 226 q 905 394 899 336 q 911 505 911 452 q 882 707 911 614 q 798 869 854 800 q 661 976 743 937 q 473 1015 580 1015 q 292 989 373 1015 q 154 912 211 962 q 65 787 96 861 q 35 618 35 713 q 59 507 35 559 q 123 418 83 456 q 214 358 163 380 q 321 336 266 336 q 427 345 385 336 q 436 447 430 393 q 454 564 441 502 q 457 582 456 572 q 458 593 458 591 q 458 607 458 600 q 464 614 458 614 q 473 610 467 614 q 483 600 478 606 q 491 588 488 594 q 494 578 494 582 q 477 470 483 529 q 468 354 471 412 q 515 373 496 363 q 550 393 534 382 l 554 386 q 520 360 542 374 q 468 332 498 345 q 467 284 467 307 q 467 240 467 261 l 467 203 l 503 203 q 515 203 505 203 q 539 203 526 203 q 567 202 552 203 q 594 202 582 202 q 614 200 606 201 q 623 197 623 199 q 617 188 623 191 q 608 184 612 184 m 372 -22 q 413 -9 400 -22 q 429 24 425 5 q 401 33 414 29 q 375 36 388 36 q 339 29 355 36 q 323 7 323 22 q 338 -15 323 -7 q 372 -22 353 -22 z "},"":{"ha":306,"x_min":-37,"x_max":264,"o":"m 9 494 q 6 492 7 493 q 4 492 5 492 q -2 495 0 492 q -4 504 -4 498 q 2 516 -4 508 q 17 533 7 524 q 37 552 26 542 q 61 572 49 562 q 14 617 38 596 q -37 656 -10 638 l -32 663 q 27 628 -1 647 q 81 587 55 609 q 95 599 88 594 q 107 610 102 604 q 120 620 111 613 q 137 634 128 627 q 155 647 146 642 q 168 652 164 652 q 172 644 172 652 q 169 628 172 637 q 160 618 165 620 q 129 597 145 608 q 97 572 113 586 q 220 395 177 496 q 264 183 264 294 q 251 113 264 145 q 216 58 237 81 q 168 21 195 35 q 115 8 142 8 q 42 38 71 8 q 14 123 14 67 q 28 194 14 161 q 65 249 42 226 q 115 286 87 273 q 170 298 143 298 q 214 288 194 298 q 163 431 198 363 q 78 555 128 499 q 42 523 59 538 q 9 494 24 507 m 139 43 q 171 50 155 43 q 199 71 186 57 q 218 105 211 85 q 225 153 225 125 q 220 195 225 175 q 204 230 214 215 q 177 254 193 245 q 138 262 160 262 q 106 257 122 262 q 79 238 91 251 q 59 207 66 226 q 52 160 52 187 q 57 118 52 138 q 73 80 62 97 q 100 53 83 63 q 139 43 117 43 z "},"":{"ha":979,"x_min":0,"x_max":956,"o":"m 425 237 q 425 275 425 255 q 427 317 425 295 q 377 305 404 309 q 321 301 350 301 q 180 328 240 301 q 80 398 120 354 q 20 501 40 443 q 0 624 0 559 q 20 748 0 690 q 74 852 39 805 q 155 937 108 900 q 256 999 202 974 q 370 1038 311 1025 q 489 1051 429 1051 q 681 1019 595 1051 q 828 923 767 986 q 922 769 889 861 q 956 558 956 677 q 948 441 956 505 q 923 311 940 376 q 879 183 906 245 q 813 72 852 121 q 723 -5 774 24 q 607 -35 672 -35 q 528 -20 564 -35 q 461 8 492 -6 q 422 -38 448 -21 q 364 -54 397 -54 q 341 -51 354 -54 q 318 -41 329 -47 q 300 -23 307 -34 q 293 1 293 -13 q 300 26 293 16 q 318 44 307 37 q 343 55 329 51 q 374 58 358 58 q 403 56 389 58 q 432 50 417 54 l 432 62 q 430 114 432 85 q 427 176 428 143 q 356 173 390 174 q 292 171 322 171 q 290 172 290 172 q 288 176 288 173 q 292 192 288 184 q 300 200 296 200 q 357 201 323 200 q 425 201 391 201 l 425 237 m 608 184 q 539 183 574 184 q 468 180 504 182 q 471 125 469 149 q 473 74 473 101 q 473 56 473 64 q 471 40 472 47 q 537 18 505 28 q 607 7 570 7 q 713 29 667 7 q 793 89 760 51 q 850 176 827 126 q 886 281 872 226 q 905 394 899 336 q 911 505 911 452 q 882 707 911 614 q 798 869 854 800 q 661 976 743 937 q 473 1015 580 1015 q 292 989 373 1015 q 154 912 211 962 q 65 787 96 861 q 35 618 35 713 q 59 507 35 559 q 123 418 83 456 q 214 358 163 380 q 321 336 266 336 q 427 345 385 336 q 436 447 430 393 q 454 564 441 502 q 457 582 456 572 q 458 593 458 591 q 458 607 458 600 q 464 614 458 614 q 473 610 467 614 q 483 600 478 606 q 491 588 488 594 q 494 578 494 582 q 477 470 483 529 q 468 354 471 412 q 515 373 496 363 q 550 393 534 382 l 554 386 q 520 360 542 374 q 468 332 498 345 q 467 284 467 307 q 467 240 467 261 l 467 203 l 503 203 q 515 203 505 203 q 539 203 526 203 q 567 202 552 203 q 594 202 582 202 q 614 200 606 201 q 623 197 623 199 q 617 188 623 191 q 608 184 612 184 m 372 -22 q 413 -9 400 -22 q 429 24 425 5 q 401 33 414 29 q 375 36 388 36 q 339 29 355 36 q 323 7 323 22 q 338 -15 323 -7 q 372 -22 353 -22 z "},"":{"ha":408,"x_min":3,"x_max":450,"o":"m 406 504 q 369 503 388 504 q 330 503 350 503 q 322 450 327 477 q 311 397 317 423 q 283 289 296 336 q 258 208 270 243 q 274 146 264 176 q 294 96 283 117 q 320 61 306 74 q 351 49 334 49 q 380 60 366 49 q 407 87 394 72 q 429 119 419 103 q 444 146 439 136 l 450 143 q 447 134 450 143 q 437 110 444 124 q 420 78 430 95 q 398 46 410 61 q 371 22 386 32 q 339 12 356 12 q 275 43 302 12 q 228 134 247 75 q 204 91 218 112 q 172 55 190 71 q 133 29 155 39 q 89 20 112 20 q 55 26 71 20 q 28 44 39 32 q 9 72 16 56 q 3 109 3 88 q 18 176 3 143 q 60 235 34 209 q 121 277 87 261 q 193 293 155 293 l 200 293 q 198 334 198 313 q 197 378 197 355 q 198 434 197 405 q 200 494 199 464 q 142 491 171 492 q 89 490 114 490 q 87 492 87 491 q 85 496 85 492 q 89 512 85 505 q 97 519 94 519 q 144 519 117 519 q 201 521 172 519 q 212 641 205 583 q 231 746 220 700 q 258 820 242 792 q 293 848 273 848 q 331 803 319 848 q 343 663 343 758 q 341 595 343 631 q 334 522 339 560 q 362 522 347 522 q 390 521 377 522 q 411 519 403 520 q 419 517 419 518 q 414 507 419 511 q 406 504 410 504 m 115 61 q 153 70 136 61 q 182 93 169 79 q 204 124 195 107 q 221 157 214 141 q 210 207 214 181 q 203 262 206 233 q 180 267 193 267 q 120 255 145 267 q 78 227 94 244 q 54 187 62 209 q 46 144 46 165 q 65 85 46 109 q 115 61 85 61 m 281 817 q 270 804 275 817 q 260 770 264 791 q 253 720 256 749 q 247 658 250 691 q 243 590 245 625 q 240 521 241 555 q 272 522 257 522 q 300 522 288 522 l 309 522 q 313 615 313 566 q 311 699 313 662 q 305 763 309 736 q 295 803 301 789 q 281 817 289 817 m 239 497 l 239 425 q 242 338 239 385 q 253 244 245 291 q 283 359 269 294 q 306 501 298 424 l 239 497 z "},"":{"ha":720,"x_min":0,"x_max":844,"o":"m 771 203 q 748 169 764 191 q 709 118 732 146 q 655 60 686 90 q 589 6 625 31 q 513 -33 553 -18 q 428 -49 472 -49 q 319 -10 359 -49 q 278 107 279 29 q 160 145 212 116 q 73 219 109 174 q 19 323 37 264 q 0 450 0 382 q 25 595 0 524 q 93 730 50 667 q 196 848 137 794 q 325 940 256 901 q 470 1001 394 979 q 624 1023 547 1023 q 695 1016 656 1023 q 766 989 733 1008 q 822 939 800 970 q 844 861 844 908 q 822 781 844 825 q 753 697 800 737 l 747 703 q 793 771 780 736 q 806 846 806 806 q 786 908 806 883 q 739 949 767 934 q 677 971 710 965 q 616 978 644 978 q 468 959 541 978 q 329 907 395 941 q 208 825 264 873 q 112 720 152 778 q 48 596 71 663 q 25 458 25 530 q 44 351 25 402 q 98 258 64 300 q 180 188 133 217 q 282 149 227 159 q 304 205 289 178 q 340 251 319 231 q 386 283 361 271 q 439 294 412 294 q 489 278 469 294 q 509 228 509 262 q 492 171 509 195 q 451 132 476 147 q 395 110 425 117 q 335 103 364 103 q 318 103 326 103 q 302 104 310 103 q 316 60 304 80 q 346 26 328 40 q 387 5 363 12 q 435 -3 410 -3 q 609 51 525 -3 q 762 208 693 104 l 771 203 m 436 258 q 385 250 408 258 q 347 225 363 241 q 320 190 330 210 q 306 144 310 169 q 325 143 315 143 q 343 143 334 143 q 392 148 366 143 q 439 162 418 152 q 474 186 460 172 q 488 221 488 201 q 483 238 488 231 q 471 250 478 245 q 454 256 463 254 q 436 258 445 258 m 500 1179 q 493 1185 493 1179 q 496 1195 493 1189 q 503 1206 498 1201 q 512 1216 507 1212 q 521 1219 517 1219 q 525 1218 524 1219 q 553 1186 540 1202 q 579 1155 566 1170 q 605 1126 592 1141 q 633 1099 618 1112 q 635 1092 635 1097 q 630 1079 635 1086 q 619 1072 625 1072 q 612 1075 614 1072 q 554 1133 585 1107 q 500 1179 523 1158 z "},"":{"ha":302,"x_min":14,"x_max":345,"o":"m 215 335 q 224 323 224 333 q 222 316 224 321 q 218 308 220 312 q 213 300 216 303 q 208 297 210 297 q 200 299 205 297 q 186 305 195 302 q 163 310 178 308 q 126 313 149 313 q 72 300 94 313 q 50 267 50 288 q 63 240 50 251 q 95 224 77 230 q 131 215 113 218 q 160 212 150 212 q 170 210 168 212 q 172 205 172 208 q 168 199 172 200 q 157 196 163 198 q 121 181 139 190 q 87 159 102 172 q 62 131 72 146 q 53 97 53 115 q 78 46 53 66 q 147 26 102 26 q 232 42 198 26 q 288 77 266 57 q 322 118 310 98 q 340 150 334 139 l 345 147 q 315 85 333 114 q 272 36 297 57 q 212 4 246 16 q 135 -8 178 -8 q 86 -2 109 -8 q 47 16 64 5 q 22 45 31 28 q 14 83 14 62 q 25 127 14 109 q 52 157 37 145 q 81 175 66 169 q 102 184 96 182 q 64 196 81 188 q 39 217 51 203 q 28 253 28 230 q 38 291 28 274 q 65 320 48 309 q 105 338 83 332 q 154 345 128 345 q 184 342 169 345 q 215 335 199 340 m 68 507 q 62 513 62 507 q 64 523 62 517 q 71 534 67 529 q 80 544 75 540 q 90 547 85 547 q 94 546 92 547 q 122 514 109 530 q 148 483 135 498 q 174 454 161 469 q 202 427 187 440 q 203 420 203 425 q 198 407 203 414 q 188 400 193 400 q 181 403 182 400 q 123 460 154 435 q 68 507 92 486 z "},"":{"ha":720,"x_min":0,"x_max":844,"o":"m 771 203 q 748 169 764 191 q 709 118 732 146 q 655 60 686 90 q 589 6 625 31 q 513 -33 553 -18 q 428 -49 472 -49 q 319 -10 359 -49 q 278 107 279 29 q 160 145 212 116 q 73 219 109 174 q 19 323 37 264 q 0 450 0 382 q 25 595 0 524 q 93 730 50 667 q 196 848 137 794 q 325 940 256 901 q 470 1001 394 979 q 624 1023 547 1023 q 695 1016 656 1023 q 766 989 733 1008 q 822 939 800 970 q 844 861 844 908 q 822 781 844 825 q 753 697 800 737 l 747 703 q 793 771 780 736 q 806 846 806 806 q 786 908 806 883 q 739 949 767 934 q 677 971 710 965 q 616 978 644 978 q 468 959 541 978 q 329 907 395 941 q 208 825 264 873 q 112 720 152 778 q 48 596 71 663 q 25 458 25 530 q 44 351 25 402 q 98 258 64 300 q 180 188 133 217 q 282 149 227 159 q 304 205 289 178 q 340 251 319 231 q 386 283 361 271 q 439 294 412 294 q 489 278 469 294 q 509 228 509 262 q 492 171 509 195 q 451 132 476 147 q 395 110 425 117 q 335 103 364 103 q 318 103 326 103 q 302 104 310 103 q 316 60 304 80 q 346 26 328 40 q 387 5 363 12 q 435 -3 410 -3 q 609 51 525 -3 q 762 208 693 104 l 771 203 m 436 258 q 385 250 408 258 q 347 225 363 241 q 320 190 330 210 q 306 144 310 169 q 325 143 315 143 q 343 143 334 143 q 392 148 366 143 q 439 162 418 152 q 474 186 460 172 q 488 221 488 201 q 483 238 488 231 q 471 250 478 245 q 454 256 463 254 q 436 258 445 258 m 582 1076 q 572 1072 578 1072 q 565 1076 568 1072 q 561 1084 562 1079 q 566 1093 561 1088 q 629 1155 599 1122 q 680 1210 659 1187 q 682 1211 681 1211 q 691 1208 686 1211 q 703 1201 697 1205 q 712 1191 708 1196 q 715 1182 715 1186 q 715 1181 715 1181 q 713 1179 714 1181 q 649 1128 683 1154 q 582 1076 614 1103 z "},"":{"ha":302,"x_min":14,"x_max":345,"o":"m 215 335 q 224 323 224 333 q 222 316 224 321 q 218 308 220 312 q 213 300 216 303 q 208 297 210 297 q 200 299 205 297 q 186 305 195 302 q 163 310 178 308 q 126 313 149 313 q 72 300 94 313 q 50 267 50 288 q 63 240 50 251 q 95 224 77 230 q 131 215 113 218 q 160 212 150 212 q 170 210 168 212 q 172 205 172 208 q 168 199 172 200 q 157 196 163 198 q 121 181 139 190 q 87 159 102 172 q 62 131 72 146 q 53 97 53 115 q 78 46 53 66 q 147 26 102 26 q 232 42 198 26 q 288 77 266 57 q 322 118 310 98 q 340 150 334 139 l 345 147 q 315 85 333 114 q 272 36 297 57 q 212 4 246 16 q 135 -8 178 -8 q 86 -2 109 -8 q 47 16 64 5 q 22 45 31 28 q 14 83 14 62 q 25 127 14 109 q 52 157 37 145 q 81 175 66 169 q 102 184 96 182 q 64 196 81 188 q 39 217 51 203 q 28 253 28 230 q 38 291 28 274 q 65 320 48 309 q 105 338 83 332 q 154 345 128 345 q 184 342 169 345 q 215 335 199 340 m 150 404 q 140 400 146 400 q 133 404 136 400 q 129 412 130 407 q 134 421 129 416 q 197 483 167 450 q 248 538 227 515 q 250 539 249 539 q 259 536 254 539 q 271 529 265 533 q 280 519 276 524 q 283 510 283 514 q 283 509 283 509 q 281 507 282 509 q 217 456 251 482 q 150 404 182 431 z "},"":{"ha":720,"x_min":0,"x_max":844,"o":"m 771 203 q 748 169 764 191 q 709 118 732 146 q 655 60 686 90 q 589 6 625 31 q 513 -33 553 -18 q 428 -49 472 -49 q 319 -10 359 -49 q 278 107 279 29 q 160 145 212 116 q 73 219 109 174 q 19 323 37 264 q 0 450 0 382 q 25 595 0 524 q 93 730 50 667 q 196 848 137 794 q 325 940 256 901 q 470 1001 394 979 q 624 1023 547 1023 q 695 1016 656 1023 q 766 989 733 1008 q 822 939 800 970 q 844 861 844 908 q 822 781 844 825 q 753 697 800 737 l 747 703 q 793 771 780 736 q 806 846 806 806 q 786 908 806 883 q 739 949 767 934 q 677 971 710 965 q 616 978 644 978 q 468 959 541 978 q 329 907 395 941 q 208 825 264 873 q 112 720 152 778 q 48 596 71 663 q 25 458 25 530 q 44 351 25 402 q 98 258 64 300 q 180 188 133 217 q 282 149 227 159 q 304 205 289 178 q 340 251 319 231 q 386 283 361 271 q 439 294 412 294 q 489 278 469 294 q 509 228 509 262 q 492 171 509 195 q 451 132 476 147 q 395 110 425 117 q 335 103 364 103 q 318 103 326 103 q 302 104 310 103 q 316 60 304 80 q 346 26 328 40 q 387 5 363 12 q 435 -3 410 -3 q 609 51 525 -3 q 762 208 693 104 l 771 203 m 436 258 q 385 250 408 258 q 347 225 363 241 q 320 190 330 210 q 306 144 310 169 q 325 143 315 143 q 343 143 334 143 q 392 148 366 143 q 439 162 418 152 q 474 186 460 172 q 488 221 488 201 q 483 238 488 231 q 471 250 478 245 q 454 256 463 254 q 436 258 445 258 m 500 1075 q 496 1072 497 1072 q 489 1077 492 1072 q 486 1088 486 1082 q 494 1101 486 1091 q 514 1124 502 1112 q 542 1152 527 1137 q 569 1178 556 1166 q 591 1197 582 1190 q 602 1204 600 1204 q 608 1204 604 1204 q 618 1203 613 1204 q 628 1198 623 1202 q 633 1189 632 1195 q 657 1144 642 1166 q 694 1103 671 1122 q 698 1098 696 1101 q 700 1093 700 1095 q 691 1080 700 1086 q 668 1075 682 1075 q 647 1098 657 1084 q 627 1127 636 1113 q 610 1151 618 1141 q 597 1161 602 1161 q 580 1152 591 1161 q 555 1131 569 1143 q 527 1102 541 1118 q 500 1075 512 1087 z "},"":{"ha":302,"x_min":14,"x_max":345,"o":"m 215 335 q 224 323 224 333 q 222 316 224 321 q 218 308 220 312 q 213 300 216 303 q 208 297 210 297 q 200 299 205 297 q 186 305 195 302 q 163 310 178 308 q 126 313 149 313 q 72 300 94 313 q 50 267 50 288 q 63 240 50 251 q 95 224 77 230 q 131 215 113 218 q 160 212 150 212 q 170 210 168 212 q 172 205 172 208 q 168 199 172 200 q 157 196 163 198 q 121 181 139 190 q 87 159 102 172 q 62 131 72 146 q 53 97 53 115 q 78 46 53 66 q 147 26 102 26 q 232 42 198 26 q 288 77 266 57 q 322 118 310 98 q 340 150 334 139 l 345 147 q 315 85 333 114 q 272 36 297 57 q 212 4 246 16 q 135 -8 178 -8 q 86 -2 109 -8 q 47 16 64 5 q 22 45 31 28 q 14 83 14 62 q 25 127 14 109 q 52 157 37 145 q 81 175 66 169 q 102 184 96 182 q 64 196 81 188 q 39 217 51 203 q 28 253 28 230 q 38 291 28 274 q 65 320 48 309 q 105 338 83 332 q 154 345 128 345 q 184 342 169 345 q 215 335 199 340 m 68 403 q 64 400 66 400 q 57 405 60 400 q 54 416 54 410 q 62 429 54 419 q 83 452 71 439 q 110 479 96 465 q 138 506 125 494 q 160 525 151 517 q 171 532 169 532 q 177 532 172 532 q 187 531 182 532 q 196 526 192 530 q 201 517 201 523 q 225 472 211 494 q 263 431 240 450 q 267 426 265 429 q 269 421 269 423 q 260 408 269 414 q 237 403 251 403 q 215 426 226 412 q 196 455 205 441 q 179 479 186 469 q 165 489 171 489 q 149 480 160 489 q 124 458 138 471 q 95 430 110 446 q 68 403 81 415 z "},"":{"ha":720,"x_min":0,"x_max":844,"o":"m 771 203 q 748 169 764 191 q 709 118 732 146 q 655 60 686 90 q 589 6 625 31 q 513 -33 553 -18 q 428 -49 472 -49 q 319 -10 359 -49 q 278 107 279 29 q 160 145 212 116 q 73 219 109 174 q 19 323 37 264 q 0 450 0 382 q 25 595 0 524 q 93 730 50 667 q 196 848 137 794 q 325 940 256 901 q 470 1001 394 979 q 624 1023 547 1023 q 695 1016 656 1023 q 766 989 733 1008 q 822 939 800 970 q 844 861 844 908 q 822 781 844 825 q 753 697 800 737 l 747 703 q 793 771 780 736 q 806 846 806 806 q 786 908 806 883 q 739 949 767 934 q 677 971 710 965 q 616 978 644 978 q 468 959 541 978 q 329 907 395 941 q 208 825 264 873 q 112 720 152 778 q 48 596 71 663 q 25 458 25 530 q 44 351 25 402 q 98 258 64 300 q 180 188 133 217 q 282 149 227 159 q 304 205 289 178 q 340 251 319 231 q 386 283 361 271 q 439 294 412 294 q 489 278 469 294 q 509 228 509 262 q 492 171 509 195 q 451 132 476 147 q 395 110 425 117 q 335 103 364 103 q 318 103 326 103 q 302 104 310 103 q 316 60 304 80 q 346 26 328 40 q 387 5 363 12 q 435 -3 410 -3 q 609 51 525 -3 q 762 208 693 104 l 771 203 m 436 258 q 385 250 408 258 q 347 225 363 241 q 320 190 330 210 q 306 144 310 169 q 325 143 315 143 q 343 143 334 143 q 392 148 366 143 q 439 162 418 152 q 474 186 460 172 q 488 221 488 201 q 483 238 488 231 q 471 250 478 245 q 454 256 463 254 q 436 258 445 258 m 500 1122 q 509 1144 500 1135 q 530 1153 518 1153 q 552 1144 543 1153 q 561 1122 561 1135 q 552 1101 561 1109 q 530 1092 543 1092 q 509 1101 518 1092 q 500 1122 500 1109 m 616 1122 q 626 1144 616 1135 q 647 1153 635 1153 q 669 1144 660 1153 q 677 1122 677 1135 q 669 1101 677 1109 q 647 1092 660 1092 q 626 1101 635 1092 q 616 1122 616 1109 z "},"":{"ha":302,"x_min":14,"x_max":345,"o":"m 215 335 q 224 323 224 333 q 222 316 224 321 q 218 308 220 312 q 213 300 216 303 q 208 297 210 297 q 200 299 205 297 q 186 305 195 302 q 163 310 178 308 q 126 313 149 313 q 72 300 94 313 q 50 267 50 288 q 63 240 50 251 q 95 224 77 230 q 131 215 113 218 q 160 212 150 212 q 170 210 168 212 q 172 205 172 208 q 168 199 172 200 q 157 196 163 198 q 121 181 139 190 q 87 159 102 172 q 62 131 72 146 q 53 97 53 115 q 78 46 53 66 q 147 26 102 26 q 232 42 198 26 q 288 77 266 57 q 322 118 310 98 q 340 150 334 139 l 345 147 q 315 85 333 114 q 272 36 297 57 q 212 4 246 16 q 135 -8 178 -8 q 86 -2 109 -8 q 47 16 64 5 q 22 45 31 28 q 14 83 14 62 q 25 127 14 109 q 52 157 37 145 q 81 175 66 169 q 102 184 96 182 q 64 196 81 188 q 39 217 51 203 q 28 253 28 230 q 38 291 28 274 q 65 320 48 309 q 105 338 83 332 q 154 345 128 345 q 184 342 169 345 q 215 335 199 340 m 68 450 q 78 472 68 463 q 99 481 87 481 q 121 472 112 481 q 130 450 130 463 q 121 429 130 437 q 99 420 112 420 q 78 429 87 420 q 68 450 68 437 m 185 450 q 194 472 185 463 q 216 481 203 481 q 237 472 229 481 q 246 450 246 463 q 237 429 246 437 q 216 420 229 420 q 194 429 203 420 q 185 450 185 437 z "},"":{"ha":720,"x_min":0,"x_max":844,"o":"m 771 203 q 748 169 764 191 q 709 118 732 146 q 655 60 686 90 q 589 6 625 31 q 513 -33 553 -18 q 428 -49 472 -49 q 319 -10 359 -49 q 278 107 279 29 q 160 145 212 116 q 73 219 109 174 q 19 323 37 264 q 0 450 0 382 q 25 595 0 524 q 93 730 50 667 q 196 848 137 794 q 325 940 256 901 q 470 1001 394 979 q 624 1023 547 1023 q 695 1016 656 1023 q 766 989 733 1008 q 822 939 800 970 q 844 861 844 908 q 822 781 844 825 q 753 697 800 737 l 747 703 q 793 771 780 736 q 806 846 806 806 q 786 908 806 883 q 739 949 767 934 q 677 971 710 965 q 616 978 644 978 q 468 959 541 978 q 329 907 395 941 q 208 825 264 873 q 112 720 152 778 q 48 596 71 663 q 25 458 25 530 q 44 351 25 402 q 98 258 64 300 q 180 188 133 217 q 282 149 227 159 q 304 205 289 178 q 340 251 319 231 q 386 283 361 271 q 439 294 412 294 q 489 278 469 294 q 509 228 509 262 q 492 171 509 195 q 451 132 476 147 q 395 110 425 117 q 335 103 364 103 q 318 103 326 103 q 302 104 310 103 q 316 60 304 80 q 346 26 328 40 q 387 5 363 12 q 435 -3 410 -3 q 609 51 525 -3 q 762 208 693 104 l 771 203 m 436 258 q 385 250 408 258 q 347 225 363 241 q 320 190 330 210 q 306 144 310 169 q 325 143 315 143 q 343 143 334 143 q 392 148 366 143 q 439 162 418 152 q 474 186 460 172 q 488 221 488 201 q 483 238 488 231 q 471 250 478 245 q 454 256 463 254 q 436 258 445 258 m 507 1103 q 501 1108 502 1103 q 501 1121 500 1114 q 507 1134 503 1128 q 517 1139 511 1139 q 570 1141 543 1139 q 623 1142 597 1142 q 649 1141 636 1142 q 673 1139 661 1141 q 677 1133 677 1139 q 672 1120 676 1126 q 664 1108 669 1114 q 656 1104 659 1103 q 630 1106 643 1106 q 604 1107 616 1107 q 553 1105 579 1107 q 507 1103 526 1104 z "},"":{"ha":302,"x_min":14,"x_max":345,"o":"m 215 335 q 224 323 224 333 q 222 316 224 321 q 218 308 220 312 q 213 300 216 303 q 208 297 210 297 q 200 299 205 297 q 186 305 195 302 q 163 310 178 308 q 126 313 149 313 q 72 300 94 313 q 50 267 50 288 q 63 240 50 251 q 95 224 77 230 q 131 215 113 218 q 160 212 150 212 q 170 210 168 212 q 172 205 172 208 q 168 199 172 200 q 157 196 163 198 q 121 181 139 190 q 87 159 102 172 q 62 131 72 146 q 53 97 53 115 q 78 46 53 66 q 147 26 102 26 q 232 42 198 26 q 288 77 266 57 q 322 118 310 98 q 340 150 334 139 l 345 147 q 315 85 333 114 q 272 36 297 57 q 212 4 246 16 q 135 -8 178 -8 q 86 -2 109 -8 q 47 16 64 5 q 22 45 31 28 q 14 83 14 62 q 25 127 14 109 q 52 157 37 145 q 81 175 66 169 q 102 184 96 182 q 64 196 81 188 q 39 217 51 203 q 28 253 28 230 q 38 291 28 274 q 65 320 48 309 q 105 338 83 332 q 154 345 128 345 q 184 342 169 345 q 215 335 199 340 m 75 431 q 70 436 71 431 q 70 449 68 442 q 75 461 71 456 q 85 467 79 467 q 139 469 111 467 q 192 470 166 470 q 217 469 205 470 q 242 467 230 469 q 245 460 246 467 q 241 448 245 454 q 233 436 237 441 q 224 432 228 431 q 198 434 212 434 q 173 435 185 435 q 121 433 148 435 q 75 431 95 432 z "},"":{"ha":720,"x_min":0,"x_max":844,"o":"m 771 203 q 748 169 764 191 q 709 118 732 146 q 655 60 686 90 q 589 6 625 31 q 513 -33 553 -18 q 428 -49 472 -49 q 319 -10 359 -49 q 278 107 279 29 q 160 145 212 116 q 73 219 109 174 q 19 323 37 264 q 0 450 0 382 q 25 595 0 524 q 93 730 50 667 q 196 848 137 794 q 325 940 256 901 q 470 1001 394 979 q 624 1023 547 1023 q 695 1016 656 1023 q 766 989 733 1008 q 822 939 800 970 q 844 861 844 908 q 822 781 844 825 q 753 697 800 737 l 747 703 q 793 771 780 736 q 806 846 806 806 q 786 908 806 883 q 739 949 767 934 q 677 971 710 965 q 616 978 644 978 q 468 959 541 978 q 329 907 395 941 q 208 825 264 873 q 112 720 152 778 q 48 596 71 663 q 25 458 25 530 q 44 351 25 402 q 98 258 64 300 q 180 188 133 217 q 282 149 227 159 q 304 205 289 178 q 340 251 319 231 q 386 283 361 271 q 439 294 412 294 q 489 278 469 294 q 509 228 509 262 q 492 171 509 195 q 451 132 476 147 q 395 110 425 117 q 335 103 364 103 q 318 103 326 103 q 302 104 310 103 q 316 60 304 80 q 346 26 328 40 q 387 5 363 12 q 435 -3 410 -3 q 609 51 525 -3 q 762 208 693 104 l 771 203 m 436 258 q 385 250 408 258 q 347 225 363 241 q 320 190 330 210 q 306 144 310 169 q 325 143 315 143 q 343 143 334 143 q 392 148 366 143 q 439 162 418 152 q 474 186 460 172 q 488 221 488 201 q 483 238 488 231 q 471 250 478 245 q 454 256 463 254 q 436 258 445 258 m 490 1177 q 494 1187 489 1181 q 505 1198 498 1194 q 516 1202 511 1202 q 521 1194 521 1202 q 532 1161 524 1175 q 552 1138 541 1147 q 578 1124 564 1128 q 604 1120 591 1120 q 632 1125 620 1120 q 653 1140 644 1131 q 669 1161 663 1149 q 679 1185 675 1173 q 685 1193 681 1190 q 694 1198 690 1196 q 701 1198 698 1199 q 703 1192 703 1196 q 663 1115 690 1143 q 589 1086 637 1086 q 554 1092 571 1086 q 525 1109 538 1098 q 502 1137 511 1120 q 490 1177 493 1154 z "},"":{"ha":302,"x_min":14,"x_max":345,"o":"m 215 335 q 224 323 224 333 q 222 316 224 321 q 218 308 220 312 q 213 300 216 303 q 208 297 210 297 q 200 299 205 297 q 186 305 195 302 q 163 310 178 308 q 126 313 149 313 q 72 300 94 313 q 50 267 50 288 q 63 240 50 251 q 95 224 77 230 q 131 215 113 218 q 160 212 150 212 q 170 210 168 212 q 172 205 172 208 q 168 199 172 200 q 157 196 163 198 q 121 181 139 190 q 87 159 102 172 q 62 131 72 146 q 53 97 53 115 q 78 46 53 66 q 147 26 102 26 q 232 42 198 26 q 288 77 266 57 q 322 118 310 98 q 340 150 334 139 l 345 147 q 315 85 333 114 q 272 36 297 57 q 212 4 246 16 q 135 -8 178 -8 q 86 -2 109 -8 q 47 16 64 5 q 22 45 31 28 q 14 83 14 62 q 25 127 14 109 q 52 157 37 145 q 81 175 66 169 q 102 184 96 182 q 64 196 81 188 q 39 217 51 203 q 28 253 28 230 q 38 291 28 274 q 65 320 48 309 q 105 338 83 332 q 154 345 128 345 q 184 342 169 345 q 215 335 199 340 m 59 505 q 62 515 58 509 q 73 526 67 522 q 84 530 79 530 q 90 522 90 530 q 101 489 92 503 q 121 466 109 475 q 146 452 133 456 q 172 448 160 448 q 201 453 189 448 q 222 468 213 458 q 237 489 231 477 q 248 513 243 500 q 254 521 250 517 q 262 526 258 524 q 269 526 267 527 q 271 519 272 524 q 232 443 258 471 q 157 414 205 414 q 123 420 140 414 q 93 437 106 426 q 71 465 80 448 q 59 505 62 482 z "},"":{"ha":720,"x_min":0,"x_max":844,"o":"m 771 203 q 748 169 764 191 q 709 118 732 146 q 655 60 686 90 q 589 6 625 31 q 513 -33 553 -18 q 428 -49 472 -49 q 319 -10 359 -49 q 278 107 279 29 q 160 145 212 116 q 73 219 109 174 q 19 323 37 264 q 0 450 0 382 q 25 595 0 524 q 93 730 50 667 q 196 848 137 794 q 325 940 256 901 q 470 1001 394 979 q 624 1023 547 1023 q 695 1016 656 1023 q 766 989 733 1008 q 822 939 800 970 q 844 861 844 908 q 822 781 844 825 q 753 697 800 737 l 747 703 q 793 771 780 736 q 806 846 806 806 q 786 908 806 883 q 739 949 767 934 q 677 971 710 965 q 616 978 644 978 q 468 959 541 978 q 329 907 395 941 q 208 825 264 873 q 112 720 152 778 q 48 596 71 663 q 25 458 25 530 q 44 351 25 402 q 98 258 64 300 q 180 188 133 217 q 282 149 227 159 q 304 205 289 178 q 340 251 319 231 q 386 283 361 271 q 439 294 412 294 q 489 278 469 294 q 509 228 509 262 q 492 171 509 195 q 451 132 476 147 q 395 110 425 117 q 335 103 364 103 q 318 103 326 103 q 302 104 310 103 q 316 60 304 80 q 346 26 328 40 q 387 5 363 12 q 435 -3 410 -3 q 609 51 525 -3 q 762 208 693 104 l 771 203 m 436 258 q 385 250 408 258 q 347 225 363 241 q 320 190 330 210 q 306 144 310 169 q 325 143 315 143 q 343 143 334 143 q 392 148 366 143 q 439 162 418 152 q 474 186 460 172 q 488 221 488 201 q 483 238 488 231 q 471 250 478 245 q 454 256 463 254 q 436 258 445 258 m 555 1120 q 565 1143 555 1133 q 589 1153 575 1153 q 612 1143 602 1153 q 622 1120 622 1133 q 612 1096 622 1106 q 589 1086 602 1086 q 565 1096 575 1086 q 555 1120 555 1106 z "},"":{"ha":302,"x_min":14,"x_max":345,"o":"m 215 335 q 224 323 224 333 q 222 316 224 321 q 218 308 220 312 q 213 300 216 303 q 208 297 210 297 q 200 299 205 297 q 186 305 195 302 q 163 310 178 308 q 126 313 149 313 q 72 300 94 313 q 50 267 50 288 q 63 240 50 251 q 95 224 77 230 q 131 215 113 218 q 160 212 150 212 q 170 210 168 212 q 172 205 172 208 q 168 199 172 200 q 157 196 163 198 q 121 181 139 190 q 87 159 102 172 q 62 131 72 146 q 53 97 53 115 q 78 46 53 66 q 147 26 102 26 q 232 42 198 26 q 288 77 266 57 q 322 118 310 98 q 340 150 334 139 l 345 147 q 315 85 333 114 q 272 36 297 57 q 212 4 246 16 q 135 -8 178 -8 q 86 -2 109 -8 q 47 16 64 5 q 22 45 31 28 q 14 83 14 62 q 25 127 14 109 q 52 157 37 145 q 81 175 66 169 q 102 184 96 182 q 64 196 81 188 q 39 217 51 203 q 28 253 28 230 q 38 291 28 274 q 65 320 48 309 q 105 338 83 332 q 154 345 128 345 q 184 342 169 345 q 215 335 199 340 m 124 448 q 134 471 124 461 q 157 481 144 481 q 181 471 171 481 q 191 448 191 461 q 181 424 191 434 q 157 414 171 414 q 134 424 144 414 q 124 448 124 434 z "},"":{"ha":720,"x_min":0,"x_max":844,"o":"m 771 203 q 745 165 763 191 q 702 111 728 140 q 642 50 675 81 q 570 -5 608 18 q 547 -24 558 -12 q 528 -49 536 -35 q 515 -77 520 -62 q 510 -106 510 -92 q 520 -128 510 -117 q 547 -139 530 -139 q 591 -131 569 -139 q 632 -111 613 -123 q 636 -109 633 -108 q 643 -112 640 -109 q 647 -120 646 -115 q 642 -129 647 -125 q 590 -160 616 -150 q 541 -170 564 -170 q 519 -168 530 -170 q 500 -159 509 -165 q 485 -143 491 -153 q 479 -117 479 -133 q 492 -73 479 -95 q 525 -28 504 -51 q 477 -43 502 -37 q 428 -49 453 -49 q 319 -10 359 -49 q 278 107 279 29 q 160 145 212 116 q 73 219 109 174 q 19 323 37 264 q 0 450 0 382 q 25 595 0 524 q 93 730 50 667 q 196 848 137 794 q 325 940 256 901 q 470 1001 394 979 q 624 1023 547 1023 q 695 1016 656 1023 q 766 989 733 1008 q 822 939 800 970 q 844 861 844 908 q 822 781 844 825 q 753 697 800 737 l 747 703 q 793 771 780 736 q 806 846 806 806 q 786 908 806 883 q 739 949 767 934 q 677 971 710 965 q 616 978 644 978 q 468 959 541 978 q 329 907 395 941 q 208 825 264 873 q 112 720 152 778 q 48 596 71 663 q 25 458 25 530 q 44 351 25 402 q 98 258 64 300 q 180 188 133 217 q 282 149 227 159 q 304 205 289 178 q 340 251 319 231 q 386 283 361 271 q 439 294 412 294 q 489 278 469 294 q 509 228 509 262 q 492 171 509 195 q 451 132 476 147 q 395 110 425 117 q 335 103 364 103 q 318 103 326 103 q 302 104 310 103 q 316 60 304 80 q 346 26 328 40 q 387 5 363 12 q 435 -3 410 -3 q 609 51 525 -3 q 762 208 693 104 l 771 203 m 436 258 q 385 250 408 258 q 347 225 363 241 q 320 190 330 210 q 306 144 310 169 q 325 143 315 143 q 343 143 334 143 q 392 148 366 143 q 439 162 418 152 q 474 186 460 172 q 488 221 488 201 q 483 238 488 231 q 471 250 478 245 q 454 256 463 254 q 436 258 445 258 z "},"":{"ha":302,"x_min":14,"x_max":345,"o":"m 215 335 q 224 323 224 333 q 222 316 224 321 q 218 308 220 312 q 213 300 216 303 q 208 297 210 297 q 200 299 205 297 q 186 305 195 302 q 163 310 178 308 q 126 313 149 313 q 72 300 94 313 q 50 267 50 288 q 63 240 50 251 q 95 224 77 230 q 131 215 113 218 q 160 212 150 212 q 170 210 168 212 q 172 205 172 208 q 168 199 172 200 q 157 196 163 198 q 121 181 139 190 q 87 159 102 172 q 62 131 72 146 q 53 97 53 115 q 78 46 53 66 q 147 26 102 26 q 232 42 198 26 q 288 77 266 57 q 322 118 310 98 q 340 150 334 139 l 345 147 q 299 63 327 97 q 228 9 272 29 q 208 -4 218 5 q 187 -25 197 -13 q 172 -53 178 -38 q 165 -83 165 -68 q 203 -118 165 -118 q 247 -111 224 -118 q 288 -92 269 -103 q 292 -89 288 -88 q 299 -93 296 -90 q 302 -101 302 -96 q 297 -110 302 -106 q 245 -140 271 -131 q 196 -150 219 -150 q 175 -147 186 -150 q 155 -138 164 -144 q 141 -121 146 -132 q 135 -94 135 -111 q 189 -3 135 -50 q 162 -6 178 -5 q 135 -8 147 -8 q 86 -2 109 -8 q 47 16 64 5 q 22 45 31 28 q 14 83 14 62 q 25 127 14 109 q 52 157 37 145 q 81 175 66 169 q 102 184 96 182 q 64 196 81 188 q 39 217 51 203 q 28 253 28 230 q 38 291 28 274 q 65 320 48 309 q 105 338 83 332 q 154 345 128 345 q 184 342 169 345 q 215 335 199 340 z "},"":{"ha":720,"x_min":0,"x_max":844,"o":"m 771 203 q 748 169 764 191 q 709 118 732 146 q 655 60 686 90 q 589 6 625 31 q 513 -33 553 -18 q 428 -49 472 -49 q 319 -10 359 -49 q 278 107 279 29 q 160 145 212 116 q 73 219 109 174 q 19 323 37 264 q 0 450 0 382 q 25 595 0 524 q 93 730 50 667 q 196 848 137 794 q 325 940 256 901 q 470 1001 394 979 q 624 1023 547 1023 q 695 1016 656 1023 q 766 989 733 1008 q 822 939 800 970 q 844 861 844 908 q 822 781 844 825 q 753 697 800 737 l 747 703 q 793 771 780 736 q 806 846 806 806 q 786 908 806 883 q 739 949 767 934 q 677 971 710 965 q 616 978 644 978 q 468 959 541 978 q 329 907 395 941 q 208 825 264 873 q 112 720 152 778 q 48 596 71 663 q 25 458 25 530 q 44 351 25 402 q 98 258 64 300 q 180 188 133 217 q 282 149 227 159 q 304 205 289 178 q 340 251 319 231 q 386 283 361 271 q 439 294 412 294 q 489 278 469 294 q 509 228 509 262 q 492 171 509 195 q 451 132 476 147 q 395 110 425 117 q 335 103 364 103 q 318 103 326 103 q 302 104 310 103 q 316 60 304 80 q 346 26 328 40 q 387 5 363 12 q 435 -3 410 -3 q 609 51 525 -3 q 762 208 693 104 l 771 203 m 436 258 q 385 250 408 258 q 347 225 363 241 q 320 190 330 210 q 306 144 310 169 q 325 143 315 143 q 343 143 334 143 q 392 148 366 143 q 439 162 418 152 q 474 186 460 172 q 488 221 488 201 q 483 238 488 231 q 471 250 478 245 q 454 256 463 254 q 436 258 445 258 m 676 1198 q 687 1203 680 1203 q 695 1200 691 1203 q 699 1193 699 1198 q 697 1189 699 1190 q 670 1153 685 1173 q 641 1115 656 1133 q 612 1084 626 1097 q 589 1072 599 1072 q 573 1076 580 1072 q 559 1092 566 1080 q 535 1131 550 1109 q 503 1174 520 1152 q 498 1183 498 1178 q 506 1196 498 1191 q 529 1202 513 1202 q 540 1188 532 1202 q 559 1159 549 1175 q 581 1129 570 1143 q 600 1116 592 1116 q 611 1123 603 1116 q 631 1142 620 1131 q 654 1169 642 1154 q 676 1198 666 1183 z "},"":{"ha":302,"x_min":14,"x_max":345,"o":"m 215 335 q 224 323 224 333 q 222 316 224 321 q 218 308 220 312 q 213 300 216 303 q 208 297 210 297 q 200 299 205 297 q 186 305 195 302 q 163 310 178 308 q 126 313 149 313 q 72 300 94 313 q 50 267 50 288 q 63 240 50 251 q 95 224 77 230 q 131 215 113 218 q 160 212 150 212 q 170 210 168 212 q 172 205 172 208 q 168 199 172 200 q 157 196 163 198 q 121 181 139 190 q 87 159 102 172 q 62 131 72 146 q 53 97 53 115 q 78 46 53 66 q 147 26 102 26 q 232 42 198 26 q 288 77 266 57 q 322 118 310 98 q 340 150 334 139 l 345 147 q 315 85 333 114 q 272 36 297 57 q 212 4 246 16 q 135 -8 178 -8 q 86 -2 109 -8 q 47 16 64 5 q 22 45 31 28 q 14 83 14 62 q 25 127 14 109 q 52 157 37 145 q 81 175 66 169 q 102 184 96 182 q 64 196 81 188 q 39 217 51 203 q 28 253 28 230 q 38 291 28 274 q 65 320 48 309 q 105 338 83 332 q 154 345 128 345 q 184 342 169 345 q 215 335 199 340 m 245 526 q 256 531 249 531 q 264 528 260 531 q 268 521 268 526 q 267 517 268 518 q 240 480 254 500 q 210 443 225 460 q 182 412 195 425 q 158 400 168 400 q 142 404 149 400 q 129 420 135 408 q 104 458 119 437 q 72 502 90 480 q 68 511 68 506 q 75 524 68 519 q 98 530 83 530 q 110 516 101 530 q 129 487 118 503 q 151 457 140 471 q 169 444 161 444 q 181 451 172 444 q 200 470 189 458 q 223 497 212 482 q 245 526 235 511 z "},"":{"ha":606,"x_min":41,"x_max":953,"o":"m 335 -240 q 368 -231 353 -239 q 394 -203 383 -222 q 412 -156 406 -185 q 418 -87 418 -127 q 414 -23 418 -62 q 407 64 411 16 q 341 17 378 35 q 253 0 303 0 q 167 15 206 0 q 100 60 128 29 q 57 137 72 90 q 41 248 41 183 q 61 386 41 315 q 116 524 81 456 q 198 655 151 591 q 301 776 245 720 q 417 880 356 833 q 539 961 477 927 q 660 1014 600 995 q 772 1032 720 1032 q 833 1024 802 1032 q 892 997 865 1017 q 936 943 918 977 q 953 857 953 909 q 930 777 953 821 q 861 693 908 733 l 856 699 q 901 767 888 732 q 914 842 914 802 q 901 904 914 876 q 868 951 888 932 q 823 981 848 970 q 772 991 798 991 q 607 960 690 991 q 447 874 524 928 q 304 747 370 820 q 189 591 237 674 q 112 418 140 507 q 83 243 83 329 q 94 171 83 208 q 127 106 104 135 q 186 58 150 77 q 272 40 222 40 q 354 52 323 40 q 406 86 385 64 q 396 214 400 147 q 392 346 392 280 q 392 413 392 378 q 394 482 393 448 q 400 547 396 516 q 412 601 405 577 q 431 638 420 624 q 460 652 443 652 q 498 606 486 652 q 510 465 510 560 q 503 341 510 410 q 478 200 496 272 q 446 118 467 155 q 454 16 450 63 q 458 -60 458 -31 q 448 -135 458 -95 q 417 -209 437 -175 q 368 -264 397 -242 q 301 -286 338 -286 q 278 -282 289 -286 q 261 -273 268 -279 q 250 -262 254 -268 q 245 -250 245 -256 q 249 -238 245 -245 q 256 -225 252 -231 q 265 -215 260 -219 q 272 -211 269 -211 q 276 -213 275 -211 q 277 -219 277 -216 q 278 -225 277 -222 q 282 -231 279 -229 q 300 -238 290 -235 q 335 -240 311 -241 m 433 350 q 436 253 433 304 q 443 151 439 202 q 449 168 446 160 q 456 186 452 176 q 476 295 473 235 q 479 418 479 354 q 477 502 479 465 q 471 565 475 539 q 461 605 467 591 q 447 619 455 619 q 436 604 439 619 q 430 563 432 588 q 429 507 429 538 q 430 447 429 477 q 432 391 431 417 q 433 350 433 366 m 347 1001 q 343 998 345 998 q 336 1003 339 998 q 333 1014 333 1008 q 341 1027 333 1017 q 362 1050 349 1038 q 389 1078 374 1063 q 416 1104 404 1092 q 438 1123 429 1116 q 450 1131 448 1131 q 456 1131 451 1131 q 466 1129 460 1131 q 475 1124 471 1128 q 480 1115 479 1121 q 504 1070 490 1092 q 542 1029 519 1048 q 546 1024 544 1027 q 547 1019 547 1021 q 538 1006 547 1012 q 515 1001 530 1001 q 494 1024 505 1010 q 474 1053 484 1039 q 457 1077 465 1067 q 444 1087 450 1087 q 428 1078 439 1087 q 402 1057 416 1069 q 374 1028 389 1044 q 347 1001 359 1013 z "},"":{"ha":350,"x_min":11,"x_max":315,"o":"m 239 298 q 271 296 258 298 q 291 289 283 293 q 301 279 298 284 q 304 269 304 274 q 297 252 304 262 q 285 243 290 243 q 278 245 282 243 q 265 250 273 248 q 244 255 256 252 q 212 257 231 257 q 92 223 134 257 q 49 129 49 189 q 53 106 49 119 q 67 84 58 94 q 91 67 76 74 q 126 60 105 60 q 194 75 166 60 q 241 109 222 90 q 242 115 241 112 q 244 121 243 117 q 257 164 249 144 q 273 198 264 184 q 291 221 282 213 q 306 229 300 229 q 314 224 313 229 q 315 216 315 220 q 301 176 315 204 q 264 117 288 148 q 253 35 258 84 q 243 -79 248 -15 q 235 -219 238 -142 q 232 -380 232 -295 q 235 -518 232 -452 q 240 -635 237 -584 q 246 -717 243 -686 q 249 -751 249 -749 q 247 -766 249 -761 q 240 -777 245 -771 q 230 -785 236 -781 q 218 -790 224 -790 q 207 -785 210 -790 q 198 -765 203 -780 q 190 -715 193 -750 q 183 -620 186 -680 q 180 -463 180 -559 q 186 -297 180 -377 q 200 -148 191 -218 q 218 -18 208 -77 q 237 86 229 41 q 175 38 209 58 q 102 18 140 18 q 67 23 84 18 q 38 39 51 28 q 18 66 26 50 q 11 104 11 83 q 27 168 11 134 q 74 231 44 202 q 146 279 104 260 q 239 298 189 298 m 277 168 q 272 158 274 165 q 268 142 270 151 q 273 148 271 145 q 276 152 275 150 q 278 157 277 155 q 282 172 281 166 q 283 177 283 176 q 277 168 282 177 m 115 357 q 111 354 113 354 q 104 359 107 354 q 101 370 101 364 q 109 383 101 373 q 130 406 117 393 q 157 433 142 419 q 184 459 172 448 q 207 479 197 471 q 218 486 216 486 q 224 486 219 486 q 234 485 229 486 q 243 480 239 484 q 248 471 248 477 q 272 426 258 448 q 310 385 287 404 q 314 380 312 382 q 315 375 315 377 q 307 362 315 368 q 283 357 298 357 q 262 380 273 366 q 242 409 252 395 q 225 433 233 422 q 212 443 218 443 q 196 434 207 443 q 171 412 184 425 q 142 384 157 399 q 115 357 127 369 z "},"":{"ha":606,"x_min":41,"x_max":953,"o":"m 335 -240 q 368 -231 353 -239 q 394 -203 383 -222 q 412 -156 406 -185 q 418 -87 418 -127 q 414 -23 418 -62 q 407 64 411 16 q 341 17 378 35 q 253 0 303 0 q 167 15 206 0 q 100 60 128 29 q 57 137 72 90 q 41 248 41 183 q 61 386 41 315 q 116 524 81 456 q 198 655 151 591 q 301 776 245 720 q 417 880 356 833 q 539 961 477 927 q 660 1014 600 995 q 772 1032 720 1032 q 833 1024 802 1032 q 892 997 865 1017 q 936 943 918 977 q 953 857 953 909 q 930 777 953 821 q 861 693 908 733 l 856 699 q 901 767 888 732 q 914 842 914 802 q 901 904 914 876 q 868 951 888 932 q 823 981 848 970 q 772 991 798 991 q 607 960 690 991 q 447 874 524 928 q 304 747 370 820 q 189 591 237 674 q 112 418 140 507 q 83 243 83 329 q 94 171 83 208 q 127 106 104 135 q 186 58 150 77 q 272 40 222 40 q 354 52 323 40 q 406 86 385 64 q 396 214 400 147 q 392 346 392 280 q 392 413 392 378 q 394 482 393 448 q 400 547 396 516 q 412 601 405 577 q 431 638 420 624 q 460 652 443 652 q 498 606 486 652 q 510 465 510 560 q 503 341 510 410 q 478 200 496 272 q 446 118 467 155 q 454 16 450 63 q 458 -60 458 -31 q 448 -135 458 -95 q 417 -209 437 -175 q 368 -264 397 -242 q 301 -286 338 -286 q 278 -282 289 -286 q 261 -273 268 -279 q 250 -262 254 -268 q 245 -250 245 -256 q 249 -238 245 -245 q 256 -225 252 -231 q 265 -215 260 -219 q 272 -211 269 -211 q 276 -213 275 -211 q 277 -219 277 -216 q 278 -225 277 -222 q 282 -231 279 -229 q 300 -238 290 -235 q 335 -240 311 -241 m 433 350 q 436 253 433 304 q 443 151 439 202 q 449 168 446 160 q 456 186 452 176 q 476 295 473 235 q 479 418 479 354 q 477 502 479 465 q 471 565 475 539 q 461 605 467 591 q 447 619 455 619 q 436 604 439 619 q 430 563 432 588 q 429 507 429 538 q 430 447 429 477 q 432 391 431 417 q 433 350 433 366 m 338 1103 q 341 1114 336 1107 q 352 1124 346 1120 q 363 1128 358 1128 q 368 1120 368 1128 q 379 1087 371 1101 q 400 1064 388 1073 q 425 1050 412 1055 q 451 1046 439 1046 q 479 1051 467 1046 q 501 1066 492 1057 q 516 1087 510 1075 q 526 1111 522 1099 q 533 1119 528 1116 q 541 1124 537 1122 q 548 1124 545 1125 q 550 1118 551 1122 q 511 1041 537 1069 q 436 1013 484 1013 q 402 1018 418 1013 q 372 1035 385 1024 q 350 1063 359 1046 q 338 1103 340 1080 z "},"":{"ha":350,"x_min":11,"x_max":319,"o":"m 239 298 q 271 296 258 298 q 291 289 283 293 q 301 279 298 284 q 304 269 304 274 q 297 252 304 262 q 285 243 290 243 q 278 245 282 243 q 265 250 273 248 q 244 255 256 252 q 212 257 231 257 q 92 223 134 257 q 49 129 49 189 q 53 106 49 119 q 67 84 58 94 q 91 67 76 74 q 126 60 105 60 q 194 75 166 60 q 241 109 222 90 q 242 115 241 112 q 244 121 243 117 q 257 164 249 144 q 273 198 264 184 q 291 221 282 213 q 306 229 300 229 q 314 224 313 229 q 315 216 315 220 q 301 176 315 204 q 264 117 288 148 q 253 35 258 84 q 243 -79 248 -15 q 235 -219 238 -142 q 232 -380 232 -295 q 235 -518 232 -452 q 240 -635 237 -584 q 246 -717 243 -686 q 249 -751 249 -749 q 247 -766 249 -761 q 240 -777 245 -771 q 230 -785 236 -781 q 218 -790 224 -790 q 207 -785 210 -790 q 198 -765 203 -780 q 190 -715 193 -750 q 183 -620 186 -680 q 180 -463 180 -559 q 186 -297 180 -377 q 200 -148 191 -218 q 218 -18 208 -77 q 237 86 229 41 q 175 38 209 58 q 102 18 140 18 q 67 23 84 18 q 38 39 51 28 q 18 66 26 50 q 11 104 11 83 q 27 168 11 134 q 74 231 44 202 q 146 279 104 260 q 239 298 189 298 m 277 168 q 272 158 274 165 q 268 142 270 151 q 273 148 271 145 q 276 152 275 150 q 278 157 277 155 q 282 172 281 166 q 283 177 283 176 q 277 168 282 177 m 106 458 q 109 469 104 463 q 120 479 114 475 q 131 484 126 484 q 136 476 136 484 q 148 443 139 456 q 168 419 156 429 q 193 406 180 410 q 219 401 207 401 q 248 407 235 401 q 269 421 260 412 q 284 443 278 431 q 294 467 290 454 q 301 475 296 471 q 309 479 305 478 q 316 479 313 481 q 318 473 319 478 q 279 396 305 425 q 204 368 252 368 q 170 374 186 368 q 140 391 153 380 q 118 419 127 402 q 106 458 109 436 z "},"":{"ha":606,"x_min":41,"x_max":953,"o":"m 335 -240 q 368 -231 353 -239 q 394 -203 383 -222 q 412 -156 406 -185 q 418 -87 418 -127 q 414 -23 418 -62 q 407 64 411 16 q 341 17 378 35 q 253 0 303 0 q 167 15 206 0 q 100 60 128 29 q 57 137 72 90 q 41 248 41 183 q 61 386 41 315 q 116 524 81 456 q 198 655 151 591 q 301 776 245 720 q 417 880 356 833 q 539 961 477 927 q 660 1014 600 995 q 772 1032 720 1032 q 833 1024 802 1032 q 892 997 865 1017 q 936 943 918 977 q 953 857 953 909 q 930 777 953 821 q 861 693 908 733 l 856 699 q 901 767 888 732 q 914 842 914 802 q 901 904 914 876 q 868 951 888 932 q 823 981 848 970 q 772 991 798 991 q 607 960 690 991 q 447 874 524 928 q 304 747 370 820 q 189 591 237 674 q 112 418 140 507 q 83 243 83 329 q 94 171 83 208 q 127 106 104 135 q 186 58 150 77 q 272 40 222 40 q 354 52 323 40 q 406 86 385 64 q 396 214 400 147 q 392 346 392 280 q 392 413 392 378 q 394 482 393 448 q 400 547 396 516 q 412 601 405 577 q 431 638 420 624 q 460 652 443 652 q 498 606 486 652 q 510 465 510 560 q 503 341 510 410 q 478 200 496 272 q 446 118 467 155 q 454 16 450 63 q 458 -60 458 -31 q 448 -135 458 -95 q 417 -209 437 -175 q 368 -264 397 -242 q 301 -286 338 -286 q 278 -282 289 -286 q 261 -273 268 -279 q 250 -262 254 -268 q 245 -250 245 -256 q 249 -238 245 -245 q 256 -225 252 -231 q 265 -215 260 -219 q 272 -211 269 -211 q 276 -213 275 -211 q 277 -219 277 -216 q 278 -225 277 -222 q 282 -231 279 -229 q 300 -238 290 -235 q 335 -240 311 -241 m 433 350 q 436 253 433 304 q 443 151 439 202 q 449 168 446 160 q 456 186 452 176 q 476 295 473 235 q 479 418 479 354 q 477 502 479 465 q 471 565 475 539 q 461 605 467 591 q 447 619 455 619 q 436 604 439 619 q 430 563 432 588 q 429 507 429 538 q 430 447 429 477 q 432 391 431 417 q 433 350 433 366 m 403 1046 q 413 1069 403 1059 q 436 1079 422 1079 q 459 1069 450 1079 q 469 1046 469 1059 q 459 1022 469 1032 q 436 1013 450 1013 q 413 1022 422 1013 q 403 1046 403 1032 z "},"":{"ha":350,"x_min":11,"x_max":315,"o":"m 239 298 q 271 296 258 298 q 291 289 283 293 q 301 279 298 284 q 304 269 304 274 q 297 252 304 262 q 285 243 290 243 q 278 245 282 243 q 265 250 273 248 q 244 255 256 252 q 212 257 231 257 q 92 223 134 257 q 49 129 49 189 q 53 106 49 119 q 67 84 58 94 q 91 67 76 74 q 126 60 105 60 q 194 75 166 60 q 241 109 222 90 q 242 115 241 112 q 244 121 243 117 q 257 164 249 144 q 273 198 264 184 q 291 221 282 213 q 306 229 300 229 q 314 224 313 229 q 315 216 315 220 q 301 176 315 204 q 264 117 288 148 q 253 35 258 84 q 243 -79 248 -15 q 235 -219 238 -142 q 232 -380 232 -295 q 235 -518 232 -452 q 240 -635 237 -584 q 246 -717 243 -686 q 249 -751 249 -749 q 247 -766 249 -761 q 240 -777 245 -771 q 230 -785 236 -781 q 218 -790 224 -790 q 207 -785 210 -790 q 198 -765 203 -780 q 190 -715 193 -750 q 183 -620 186 -680 q 180 -463 180 -559 q 186 -297 180 -377 q 200 -148 191 -218 q 218 -18 208 -77 q 237 86 229 41 q 175 38 209 58 q 102 18 140 18 q 67 23 84 18 q 38 39 51 28 q 18 66 26 50 q 11 104 11 83 q 27 168 11 134 q 74 231 44 202 q 146 279 104 260 q 239 298 189 298 m 277 168 q 272 158 274 165 q 268 142 270 151 q 273 148 271 145 q 276 152 275 150 q 278 157 277 155 q 282 172 281 166 q 283 177 283 176 q 277 168 282 177 m 172 401 q 181 425 172 415 q 205 435 191 435 q 228 425 218 435 q 238 401 238 415 q 228 378 238 388 q 205 368 218 368 q 181 378 191 368 q 172 401 172 388 z "}}}
